<svg xmlns="http://www.w3.org/2000/svg" xmlns:xlink="http://www.w3.org/1999/xlink" contentStyleType="text/css" height="839px" preserveAspectRatio="none" style="width:1479px;height:839px;background:#FFFFFF;" version="1.1" viewBox="0 0 1479 839" width="1479px" zoomAndPan="magnify"><defs/><g><rect fill="#C8C8FA" height="820.1797" style="stroke:#181818;stroke-width:0.5;" width="1296.3232" x="41.8535" y="6"/><text fill="#FFFFFF" font-family="sans-serif" font-size="13" font-weight="bold" lengthAdjust="spacing" textLength="34.6646" x="670.877" y="20.0283">Logic</text><rect fill="#F97181" height="820.1797" style="stroke:#181818;stroke-width:0.5;" width="122.1514" x="1340.1768" y="6"/><text fill="#FFFFFF" font-family="sans-serif" font-size="13" font-weight="bold" lengthAdjust="spacing" textLength="37.5527" x="1380.6702" y="20.0283">Model</text><rect fill="#FFFFFF" height="719.9766" style="stroke:#181818;stroke-width:1.0;" width="10" x="118.5566" y="94.2031"/><rect fill="#FFFFFF" height="294.7363" style="stroke:#181818;stroke-width:1.0;" width="10" x="348.9316" y="125.4941"/><rect fill="#FFFFFF" height="16.3301" style="stroke:#181818;stroke-width:1.0;" width="10" x="592.2827" y="166.7852"/><rect fill="#FFFFFF" height="160.5332" style="stroke:#181818;stroke-width:1.0;" width="10" x="592.2827" y="214.4063"/><rect fill="#FFFFFF" height="30.3301" style="stroke:#181818;stroke-width:1.0;" width="10" x="752.627" y="255.6973"/><rect fill="#FFFFFF" height="14" style="stroke:#181818;stroke-width:1.0;" width="10" x="752.627" y="528.1035"/><rect fill="#FFFFFF" height="14" style="stroke:#181818;stroke-width:1.0;" width="10" x="752.627" y="651.9766"/><rect fill="#FFFFFF" height="33.6211" style="stroke:#181818;stroke-width:1.0;" width="10" x="951.4014" y="310.0273"/><rect fill="#FFFFFF" height="348.6582" style="stroke:#181818;stroke-width:1.0;" width="10" x="951.4014" y="451.5215"/><rect fill="#FFFFFF" height="16.3301" style="stroke:#181818;stroke-width:1.0;" width="10" x="1207.5254" y="752.5586"/><rect fill="#FFFFFF" height="14" style="stroke:#181818;stroke-width:1.0;" width="10" x="1396.2524" y="482.8125"/><rect fill="#FFFFFF" height="14" style="stroke:#181818;stroke-width:1.0;" width="10" x="1396.2524" y="599.6855"/><rect fill="#FFFFFF" height="14" style="stroke:#181818;stroke-width:1.0;" width="10" x="1396.2524" y="697.2676"/><rect fill="#FFFFFF" height="64.582" style="stroke:#000000;stroke-width:1.5;" width="616.3506" x="851.9775" y="557.1035"/><line style="stroke:#181818;stroke-width:0.5;stroke-dasharray:5.0,5.0;" x1="122.8535" x2="122.8535" y1="60.9121" y2="832.1797"/><line style="stroke:#181818;stroke-width:0.5;stroke-dasharray:5.0,5.0;" x1="353.2598" x2="353.2598" y1="60.9121" y2="832.1797"/><line style="stroke:#181818;stroke-width:0.5;stroke-dasharray:5.0,5.0;" x1="596.9761" x2="596.9761" y1="165.3047" y2="832.1797"/><line style="stroke:#181818;stroke-width:0.5;stroke-dasharray:5.0,5.0;" x1="757.5894" x2="757.5894" y1="254.2168" y2="832.1797"/><line style="stroke:#181818;stroke-width:0.5;stroke-dasharray:5.0,5.0;" x1="955.9775" x2="955.9775" y1="325.8379" y2="832.1797"/><line style="stroke:#181818;stroke-width:0.5;stroke-dasharray:5.0,5.0;" x1="1211.874" x2="1211.874" y1="751.0781" y2="832.1797"/><line style="stroke:#181818;stroke-width:0.5;stroke-dasharray:5.0,5.0;" x1="1401.1768" x2="1401.1768" y1="60.9121" y2="832.1797"/><rect fill="#3333C4" height="32.6211" rx="2.5" ry="2.5" style="stroke:#181818;stroke-width:0.5;" width="135.4063" x="55.8535" y="27.291"/><text fill="#FFFFFF" font-family="sans-serif" font-size="14" lengthAdjust="spacing" textLength="121.4063" x="62.8535" y="49.3984">logic:LogicManager</text><rect fill="#3333C4" height="32.6211" rx="2.5" ry="2.5" style="stroke:#181818;stroke-width:0.5;" width="265.3438" x="221.2598" y="27.291"/><text fill="#FFFFFF" font-family="sans-serif" font-size="14" lengthAdjust="spacing" textLength="251.3438" x="228.2598" y="49.3984">addressBookParser:AddressBookParser</text><rect fill="#9D0012" height="32.6211" rx="2.5" ry="2.5" style="stroke:#181818;stroke-width:0.5;" width="94.1514" x="1354.1768" y="27.291"/><text fill="#FFFFFF" font-family="sans-serif" font-size="14" lengthAdjust="spacing" textLength="80.1514" x="1361.1768" y="49.3984">model:Model</text><rect fill="#FFFFFF" height="719.9766" style="stroke:#181818;stroke-width:1.0;" width="10" x="118.5566" y="94.2031"/><rect fill="#FFFFFF" height="294.7363" style="stroke:#181818;stroke-width:1.0;" width="10" x="348.9316" y="125.4941"/><rect fill="#FFFFFF" height="16.3301" style="stroke:#181818;stroke-width:1.0;" width="10" x="592.2827" y="166.7852"/><rect fill="#FFFFFF" height="160.5332" style="stroke:#181818;stroke-width:1.0;" width="10" x="592.2827" y="214.4063"/><rect fill="#FFFFFF" height="30.3301" style="stroke:#181818;stroke-width:1.0;" width="10" x="752.627" y="255.6973"/><rect fill="#FFFFFF" height="14" style="stroke:#181818;stroke-width:1.0;" width="10" x="752.627" y="528.1035"/><rect fill="#FFFFFF" height="14" style="stroke:#181818;stroke-width:1.0;" width="10" x="752.627" y="651.9766"/><rect fill="#FFFFFF" height="33.6211" style="stroke:#181818;stroke-width:1.0;" width="10" x="951.4014" y="310.0273"/><rect fill="#FFFFFF" height="348.6582" style="stroke:#181818;stroke-width:1.0;" width="10" x="951.4014" y="451.5215"/><rect fill="#FFFFFF" height="16.3301" style="stroke:#181818;stroke-width:1.0;" width="10" x="1207.5254" y="752.5586"/><rect fill="#FFFFFF" height="14" style="stroke:#181818;stroke-width:1.0;" width="10" x="1396.2524" y="482.8125"/><rect fill="#FFFFFF" height="14" style="stroke:#181818;stroke-width:1.0;" width="10" x="1396.2524" y="599.6855"/><rect fill="#FFFFFF" height="14" style="stroke:#181818;stroke-width:1.0;" width="10" x="1396.2524" y="697.2676"/><polygon fill="#181818" points="106.5566,90.2031,116.5566,94.2031,106.5566,98.2031,110.5566,94.2031" style="stroke:#181818;stroke-width:1.0;"/><line style="stroke:#181818;stroke-width:1.0;" x1="0" x2="112.5566" y1="94.2031" y2="94.2031"/><text fill="#000000" font-family="sans-serif" font-size="13" lengthAdjust="spacing" textLength="99.5566" x="9.5" y="88.9404">execute("add ...")</text><polygon fill="#181818" points="336.9316,121.4941,346.9316,125.4941,336.9316,129.4941,340.9316,125.4941" style="stroke:#181818;stroke-width:1.0;"/><line style="stroke:#181818;stroke-width:1.0;" x1="128.5566" x2="342.9316" y1="125.4941" y2="125.4941"/><text fill="#000000" font-family="sans-serif" font-size="13" lengthAdjust="spacing" textLength="146.5103" x="165.489" y="120.2314">parseCommand("add ...")</text><polygon fill="#181818" points="510.9761,152.7852,520.9761,156.7852,510.9761,160.7852,514.9761,156.7852" style="stroke:#181818;stroke-width:1.0;"/><line style="stroke:#181818;stroke-width:1.0;" x1="358.9316" x2="516.9761" y1="156.7852" y2="156.7852"/><text fill="#000000" font-family="sans-serif" font-size="13" lengthAdjust="spacing" textLength="130.0444" x="375.9316" y="151.5225">AddCommandParser()</text><rect fill="#3333C4" height="32.6211" rx="2.5" ry="2.5" style="stroke:#181818;stroke-width:0.5;" width="148.6133" x="522.9761" y="133.4941"/><text fill="#FFFFFF" font-family="sans-serif" font-size="14" lengthAdjust="spacing" textLength="134.6133" x="529.9761" y="155.6016">:AddCommandParser</text><polygon fill="#181818" points="369.9316,179.1152,359.9316,183.1152,369.9316,187.1152,365.9316,183.1152" style="stroke:#181818;stroke-width:1.0;"/><line style="stroke:#181818;stroke-width:1.0;stroke-dasharray:2.0,2.0;" x1="363.9316" x2="596.2827" y1="183.1152" y2="183.1152"/><polygon fill="#181818" points="580.2827,210.4063,590.2827,214.4063,580.2827,218.4063,584.2827,214.4063" style="stroke:#181818;stroke-width:1.0;"/><line style="stroke:#181818;stroke-width:1.0;" x1="358.9316" x2="586.2827" y1="214.4063" y2="214.4063"/><text fill="#000000" font-family="sans-serif" font-size="13" lengthAdjust="spacing" textLength="131.3394" x="409.9375" y="209.1436">parse("&lt;parameters&gt;")</text><polygon fill="#181818" points="689.5894,241.6973,699.5894,245.6973,689.5894,249.6973,693.5894,245.6973" style="stroke:#181818;stroke-width:1.0;"/><line style="stroke:#181818;stroke-width:1.0;" x1="602.2827" x2="695.5894" y1="245.6973" y2="245.6973"/><text fill="#000000" font-family="sans-serif" font-size="13" lengthAdjust="spacing" textLength="53.4727" x="625.1997" y="240.4346">Student()</text><rect fill="#3333C4" height="32.6211" rx="2.5" ry="2.5" style="stroke:#181818;stroke-width:0.5;" width="112.0752" x="701.5894" y="222.4063"/><text fill="#FFFFFF" font-family="sans-serif" font-size="14" lengthAdjust="spacing" textLength="98.0752" x="708.5894" y="244.5137">student:Student</text><polygon fill="#181818" points="1466.3281,268.0273,1476.3281,272.0273,1466.3281,276.0273,1470.3281,272.0273" style="stroke:#181818;stroke-width:1.0;"/><line style="stroke:#181818;stroke-width:1.0;" x1="762.627" x2="1472.3281" y1="272.0273" y2="272.0273"/><polygon fill="#181818" points="613.2827,282.0273,603.2827,286.0273,613.2827,290.0273,609.2827,286.0273" style="stroke:#181818;stroke-width:1.0;"/><line style="stroke:#181818;stroke-width:1.0;stroke-dasharray:2.0,2.0;" x1="607.2827" x2="756.627" y1="286.0273" y2="286.0273"/><polygon fill="#181818" points="859.9775,296.0273,869.9775,300.0273,859.9775,304.0273,863.9775,300.0273" style="stroke:#181818;stroke-width:1.0;"/><line style="stroke:#181818;stroke-width:1.0;" x1="602.2827" x2="865.9775" y1="300.0273" y2="300.0273"/><rect fill="#3333C4" height="32.6211" rx="2.5" ry="2.5" style="stroke:#181818;stroke-width:0.5;" width="168.8477" x="871.9775" y="294.0273"/><text fill="#FFFFFF" font-family="sans-serif" font-size="14" lengthAdjust="spacing" textLength="154.8477" x="878.9775" y="316.1348">command:AddCommand</text><polygon fill="#181818" points="613.2827,339.6484,603.2827,343.6484,613.2827,347.6484,609.2827,343.6484" style="stroke:#181818;stroke-width:1.0;"/><line style="stroke:#181818;stroke-width:1.0;stroke-dasharray:2.0,2.0;" x1="607.2827" x2="955.4014" y1="343.6484" y2="343.6484"/><polygon fill="#181818" points="369.9316,370.9395,359.9316,374.9395,369.9316,378.9395,365.9316,374.9395" style="stroke:#181818;stroke-width:1.0;"/><line style="stroke:#181818;stroke-width:1.0;stroke-dasharray:2.0,2.0;" x1="363.9316" x2="596.2827" y1="374.9395" y2="374.9395"/><text fill="#000000" font-family="sans-serif" font-size="13" lengthAdjust="spacing" textLength="57.0781" x="449.5681" y="369.6768">command</text><line style="stroke:#A80036;stroke-width:2.0;" x1="588.2827" x2="606.2827" y1="379.9395" y2="397.9395"/><line style="stroke:#A80036;stroke-width:2.0;" x1="588.2827" x2="606.2827" y1="397.9395" y2="379.9395"/><polygon fill="#181818" points="139.5566,416.2305,129.5566,420.2305,139.5566,424.2305,135.5566,420.2305" style="stroke:#181818;stroke-width:1.0;"/><line style="stroke:#181818;stroke-width:1.0;stroke-dasharray:2.0,2.0;" x1="133.5566" x2="352.9316" y1="420.2305" y2="420.2305"/><text fill="#000000" font-family="sans-serif" font-size="13" lengthAdjust="spacing" textLength="57.0781" x="212.7051" y="414.9678">command</text><polygon fill="#181818" points="939.4014,447.5215,949.4014,451.5215,939.4014,455.5215,943.4014,451.5215" style="stroke:#181818;stroke-width:1.0;"/><line style="stroke:#181818;stroke-width:1.0;" x1="128.5566" x2="945.4014" y1="451.5215" y2="451.5215"/><text fill="#000000" font-family="sans-serif" font-size="13" lengthAdjust="spacing" textLength="89.5972" x="495.1804" y="446.2588">execute(model)</text><polygon fill="#181818" points="1384.2524,478.8125,1394.2524,482.8125,1384.2524,486.8125,1388.2524,482.8125" style="stroke:#181818;stroke-width:1.0;"/><line style="stroke:#181818;stroke-width:1.0;" x1="961.4014" x2="1390.2524" y1="482.8125" y2="482.8125"/><text fill="#000000" font-family="sans-serif" font-size="13" lengthAdjust="spacing" textLength="117.0762" x="1120.2888" y="477.5498">hasStudent(student)</text><polygon fill="#181818" points="972.4014,492.8125,962.4014,496.8125,972.4014,500.8125,968.4014,496.8125" style="stroke:#181818;stroke-width:1.0;"/><line style="stroke:#181818;stroke-width:1.0;stroke-dasharray:2.0,2.0;" x1="966.4014" x2="1400.2524" y1="496.8125" y2="496.8125"/><polygon fill="#181818" points="773.627,524.1035,763.627,528.1035,773.627,532.1035,769.627,528.1035" style="stroke:#181818;stroke-width:1.0;"/><line style="stroke:#181818;stroke-width:1.0;" x1="767.627" x2="950.4014" y1="528.1035" y2="528.1035"/><text fill="#000000" font-family="sans-serif" font-size="13" lengthAdjust="spacing" textLength="76.5781" x="818.7251" y="522.8408">getTutorials()</text><polygon fill="#181818" points="939.4014,538.1035,949.4014,542.1035,939.4014,546.1035,943.4014,542.1035" style="stroke:#181818;stroke-width:1.0;"/><line style="stroke:#181818;stroke-width:1.0;stroke-dasharray:2.0,2.0;" x1="757.627" x2="945.4014" y1="542.1035" y2="542.1035"/><path d="M851.9775,557.1035 L924.4121,557.1035 L924.4121,566.3945 L914.4121,576.3945 L851.9775,576.3945 L851.9775,557.1035 " fill="#EEEEEE" style="stroke:#000000;stroke-width:1.5;"/><rect fill="none" height="64.582" style="stroke:#000000;stroke-width:1.5;" width="616.3506" x="851.9775" y="557.1035"/><text fill="#000000" font-family="sans-serif" font-size="13" font-weight="bold" lengthAdjust="spacing" textLength="27.4346" x="866.9775" y="572.1318">loop</text><text fill="#000000" font-family="sans-serif" font-size="11" font-weight="bold" lengthAdjust="spacing" textLength="182.7139" x="939.4121" y="570.9736">[for each tutorial of student to add]</text><polygon fill="#181818" points="1384.2524,595.6855,1394.2524,599.6855,1384.2524,603.6855,1388.2524,599.6855" style="stroke:#181818;stroke-width:1.0;"/><line style="stroke:#181818;stroke-width:1.0;" x1="961.4014" x2="1390.2524" y1="599.6855" y2="599.6855"/><text fill="#000000" font-family="sans-serif" font-size="13" lengthAdjust="spacing" textLength="111.9854" x="1122.8342" y="594.4229">hasTutorial(tutorial)</text><polygon fill="#181818" points="972.4014,609.6855,962.4014,613.6855,972.4014,617.6855,968.4014,613.6855" style="stroke:#181818;stroke-width:1.0;"/><line style="stroke:#181818;stroke-width:1.0;stroke-dasharray:2.0,2.0;" x1="966.4014" x2="1400.2524" y1="613.6855" y2="613.6855"/><polygon fill="#181818" points="773.627,647.9766,763.627,651.9766,773.627,655.9766,769.627,651.9766" style="stroke:#181818;stroke-width:1.0;"/><line style="stroke:#181818;stroke-width:1.0;" x1="767.627" x2="950.4014" y1="651.9766" y2="651.9766"/><text fill="#000000" font-family="sans-serif" font-size="13" lengthAdjust="spacing" textLength="169.7744" x="772.127" y="646.7139">setTutorials(existingTutorials)</text><polygon fill="#181818" points="939.4014,661.9766,949.4014,665.9766,939.4014,669.9766,943.4014,665.9766" style="stroke:#181818;stroke-width:1.0;"/><line style="stroke:#181818;stroke-width:1.0;stroke-dasharray:2.0,2.0;" x1="757.627" x2="945.4014" y1="665.9766" y2="665.9766"/><polygon fill="#181818" points="1384.2524,693.2676,1394.2524,697.2676,1384.2524,701.2676,1388.2524,697.2676" style="stroke:#181818;stroke-width:1.0;"/><line style="stroke:#181818;stroke-width:1.0;" x1="961.4014" x2="1390.2524" y1="697.2676" y2="697.2676"/><text fill="#000000" font-family="sans-serif" font-size="13" lengthAdjust="spacing" textLength="117.8062" x="1119.9238" y="692.0049">addStudent(student)</text><polygon fill="#181818" points="972.4014,707.2676,962.4014,711.2676,972.4014,715.2676,968.4014,711.2676" style="stroke:#181818;stroke-width:1.0;"/><line style="stroke:#181818;stroke-width:1.0;stroke-dasharray:2.0,2.0;" x1="966.4014" x2="1400.2524" y1="711.2676" y2="711.2676"/><polygon fill="#181818" points="1088.874,738.5586,1098.874,742.5586,1088.874,746.5586,1092.874,742.5586" style="stroke:#181818;stroke-width:1.0;"/><line style="stroke:#181818;stroke-width:1.0;" x1="961.4014" x2="1094.874" y1="742.5586" y2="742.5586"/><text fill="#000000" font-family="sans-serif" font-size="13" lengthAdjust="spacing" textLength="105.4727" x="978.4014" y="737.2959">CommandResult()</text><rect fill="#3333C4" height="32.6211" rx="2.5" ry="2.5" style="stroke:#181818;stroke-width:0.5;" width="223.3027" x="1100.874" y="719.2676"/><text fill="#FFFFFF" font-family="sans-serif" font-size="14" lengthAdjust="spacing" textLength="209.3027" x="1107.874" y="741.375">commandResult:CommandResult</text><polygon fill="#181818" points="972.4014,764.8887,962.4014,768.8887,972.4014,772.8887,968.4014,768.8887" style="stroke:#181818;stroke-width:1.0;"/><line style="stroke:#181818;stroke-width:1.0;stroke-dasharray:2.0,2.0;" x1="966.4014" x2="1211.5254" y1="768.8887" y2="768.8887"/><polygon fill="#181818" points="139.5566,796.1797,129.5566,800.1797,139.5566,804.1797,135.5566,800.1797" style="stroke:#181818;stroke-width:1.0;"/><line style="stroke:#181818;stroke-width:1.0;stroke-dasharray:2.0,2.0;" x1="133.5566" x2="955.4014" y1="800.1797" y2="800.1797"/><text fill="#000000" font-family="sans-serif" font-size="13" lengthAdjust="spacing" textLength="93.9263" x="495.5159" y="794.917">commandResult</text><polygon fill="#181818" points="11,810.1797,1,814.1797,11,818.1797,7,814.1797" style="stroke:#181818;stroke-width:1.0;"/><line style="stroke:#181818;stroke-width:1.0;stroke-dasharray:2.0,2.0;" x1="5" x2="122.5566" y1="814.1797" y2="814.1797"/><!--SRC=[hLLDZzem4BtxLqov50vGzMgjaBRqKm9HxUuDLIkJp8954aUsQTb_Nzjnm4uS5gdbGZAUz-RZUIRlU9KLnnnXDlkWz6k1i_fO5aGTU5KpoKgubrBy-Ieg_MXFeIuOhmZPYXCinOvdi5n_-x5uNgoNwuVdfu_4W3JFUCqg3QF2Ub3djs8Lsw4S0LCG6a9y36PvBb6fJq8SVZAfKDBxhiMnzQp3b9PX8SgILNbC41c7yKgRJbMQFZR_3ksVXq5Pmnt4xaHz4_g0wbXekWZV74TaYMZGq1gD6g5M8iS2LklFNvO3GfNMWpe_Hzn3N0Wtqtai80KyONRKEBQIcNiq6qq8opJ_pJH6heH4G4FKruv2RHzyPKdA7eYGJA8_YPGaVVucQAmtxPd6SRYObFG8fgbII8xNEMxAp7LZFBfpmuWQfPgFhYRdM-6lPIBN-VdAqlOfBBS5ajPhEYV1IoBBiD0pkgT8CfFWE55IsEbaPA3f9jygaUc07x6hOht_pdDJ5J2x2a4Bg8NYceiAz1uXHwMbU8MIoOEXt69XdSo17HdnuXuzjuLicPmbqjliNOnV0pUf2N7JDUhFPxh6xWmbPhFj_MN4tQAOl2tMtAyG2dkcsblcrsS0Tqw4DBwnmc6stYqESBd5EzHFHoqaPuMwVfK78vnT2o5gU14IpDaUjAUrElhihVvcAH4mly6AstJ6BS74-NSBihPaxVQWLp_sctpfWGfxW2UkDAzsPyi_DYLTf-d2_rBMRuleUzQ96d_hQFmUgXwJa1Wtd4a7rjaywOdopWCxQ7CtdKQVly0ljFy5]--></g></svg>
