<svg xmlns="http://www.w3.org/2000/svg" xmlns:xlink="http://www.w3.org/1999/xlink" contentStyleType="text/css" height="369px" preserveAspectRatio="none" style="width:804px;height:369px;background:#FFFFFF;" version="1.1" viewBox="0 0 804 369" width="804.6px" zoomAndPan="magnify"><defs/><g><rect fill="#C8C8FA" height="358.0113" style="stroke:#181818;stroke-width:0.3;" width="672.3785" x="54.6059" y="3.6"/><text fill="#FFFFFF" font-family="sans-serif" font-size="7.8" font-weight="bold" lengthAdjust="spacing" textLength="20.7987" x="379.3122" y="12.017">Logic</text><rect fill="#F97181" height="358.0113" style="stroke:#181818;stroke-width:0.3;" width="73.2908" x="728.1844" y="3.6"/><text fill="#FFFFFF" font-family="sans-serif" font-size="7.8" font-weight="bold" lengthAdjust="spacing" textLength="22.5316" x="752.4804" y="12.017">Model</text><rect fill="#FFFFFF" height="297.8895" style="stroke:#181818;stroke-width:0.6;" width="6" x="100.6277" y="56.5219"/><rect fill="#FFFFFF" height="133.8691" style="stroke:#181818;stroke-width:0.6;" width="6" x="238.8527" y="75.2965"/><rect fill="#FFFFFF" height="20.1727" style="stroke:#181818;stroke-width:0.6;" width="6" x="385.7074" y="89.6965"/><rect fill="#FFFFFF" height="53.3473" style="stroke:#181818;stroke-width:0.6;" width="6" x="385.7074" y="128.6437"/><rect fill="#FFFFFF" height="20.1727" style="stroke:#181818;stroke-width:0.6;" width="6" x="508.2809" y="143.0438"/><rect fill="#FFFFFF" height="118.0711" style="stroke:#181818;stroke-width:0.6;" width="6" x="508.2809" y="227.9402"/><rect fill="#FFFFFF" height="20.1727" style="stroke:#181818;stroke-width:0.6;" width="6" x="648.5936" y="307.0641"/><rect fill="#FFFFFF" height="18.7746" style="stroke:#181818;stroke-width:0.6;" width="6" x="761.8298" y="246.7148"/><rect fill="#FFFFFF" height="8.4" style="stroke:#181818;stroke-width:0.6;" width="6" x="761.8298" y="284.2641"/><line style="stroke:#181818;stroke-width:0.3;stroke-dasharray:5.0,5.0;" x1="103.2059" x2="103.2059" y1="36.5473" y2="365.2113"/><line style="stroke:#181818;stroke-width:0.3;stroke-dasharray:5.0,5.0;" x1="241.4496" x2="241.4496" y1="36.5473" y2="365.2113"/><line style="stroke:#181818;stroke-width:0.3;stroke-dasharray:5.0,5.0;" x1="388.6559" x2="388.6559" y1="99.1828" y2="365.2113"/><line style="stroke:#181818;stroke-width:0.3;stroke-dasharray:5.0,5.0;" x1="511.159" x2="511.159" y1="152.5301" y2="365.2113"/><line style="stroke:#181818;stroke-width:0.3;stroke-dasharray:5.0,5.0;" x1="651.2027" x2="651.2027" y1="316.5504" y2="365.2113"/><line style="stroke:#181818;stroke-width:0.3;stroke-dasharray:5.0,5.0;" x1="764.7844" x2="764.7844" y1="36.5473" y2="365.2113"/><rect fill="#3333C4" height="19.5727" rx="1.5" ry="1.5" style="stroke:#181818;stroke-width:0.3;" width="81.2437" x="63.0059" y="16.3746"/><text fill="#FFFFFF" font-family="sans-serif" font-size="8.4" lengthAdjust="spacing" textLength="72.8438" x="67.2059" y="29.6391">logic:LogicManager</text><rect fill="#3333C4" height="19.5727" rx="1.5" ry="1.5" style="stroke:#181818;stroke-width:0.3;" width="159.2062" x="162.2496" y="16.3746"/><text fill="#FFFFFF" font-family="sans-serif" font-size="8.4" lengthAdjust="spacing" textLength="150.8063" x="166.4496" y="29.6391">addressBookParser:AddressBookParser</text><rect fill="#9D0012" height="19.5727" rx="1.5" ry="1.5" style="stroke:#181818;stroke-width:0.3;" width="56.4908" x="736.5844" y="16.3746"/><text fill="#FFFFFF" font-family="sans-serif" font-size="8.4" lengthAdjust="spacing" textLength="48.0908" x="740.7844" y="29.6391">model:Model</text><rect fill="#FFFFFF" height="297.8895" style="stroke:#181818;stroke-width:0.6;" width="6" x="100.6277" y="56.5219"/><rect fill="#FFFFFF" height="133.8691" style="stroke:#181818;stroke-width:0.6;" width="6" x="238.8527" y="75.2965"/><rect fill="#FFFFFF" height="20.1727" style="stroke:#181818;stroke-width:0.6;" width="6" x="385.7074" y="89.6965"/><rect fill="#FFFFFF" height="53.3473" style="stroke:#181818;stroke-width:0.6;" width="6" x="385.7074" y="128.6437"/><rect fill="#FFFFFF" height="20.1727" style="stroke:#181818;stroke-width:0.6;" width="6" x="508.2809" y="143.0438"/><rect fill="#FFFFFF" height="118.0711" style="stroke:#181818;stroke-width:0.6;" width="6" x="508.2809" y="227.9402"/><rect fill="#FFFFFF" height="20.1727" style="stroke:#181818;stroke-width:0.6;" width="6" x="648.5936" y="307.0641"/><rect fill="#FFFFFF" height="18.7746" style="stroke:#181818;stroke-width:0.6;" width="6" x="761.8298" y="246.7148"/><rect fill="#FFFFFF" height="8.4" style="stroke:#181818;stroke-width:0.6;" width="6" x="761.8298" y="284.2641"/><polygon fill="#181818" points="93.4277,54.1219,99.4277,56.5219,93.4277,58.9219,95.8277,56.5219" style="stroke:#181818;stroke-width:0.6;"/><line style="stroke:#181818;stroke-width:0.6;" x1="0" x2="97.0277" y1="56.5219" y2="56.5219"/><text fill="#000000" font-family="sans-serif" font-size="7.8" lengthAdjust="spacing" textLength="89.2277" x="5.7" y="53.3643">execute("delete &lt;index&gt;")</text><polygon fill="#181818" points="231.6527,72.8965,237.6527,75.2965,231.6527,77.6965,234.0527,75.2965" style="stroke:#181818;stroke-width:0.6;"/><line style="stroke:#181818;stroke-width:0.6;" x1="106.6277" x2="235.2527" y1="75.2965" y2="75.2965"/><text fill="#000000" font-family="sans-serif" font-size="7.8" lengthAdjust="spacing" textLength="117.3999" x="114.0403" y="72.1389">parseCommand("delete &lt;index&gt;")</text><polygon fill="#181818" points="332.2559,81.2965,338.2559,83.6965,332.2559,86.0965,334.6559,83.6965" style="stroke:#181818;stroke-width:0.6;"/><line style="stroke:#181818;stroke-width:0.6;" x1="244.8527" x2="335.8559" y1="83.6965" y2="83.6965"/><rect fill="#3333C4" height="19.5727" rx="1.5" ry="1.5" style="stroke:#181818;stroke-width:0.3;" width="98.5031" x="339.4559" y="80.0965"/><text fill="#FFFFFF" font-family="sans-serif" font-size="8.4" lengthAdjust="spacing" textLength="90.1031" x="343.6559" y="93.3609">:DeleteCommandParser</text><polygon fill="#181818" points="251.4527,107.4691,245.4527,109.8691,251.4527,112.2691,249.0527,109.8691" style="stroke:#181818;stroke-width:0.6;"/><line style="stroke:#181818;stroke-width:0.6;stroke-dasharray:2.0,2.0;" x1="247.8527" x2="388.1074" y1="109.8691" y2="109.8691"/><polygon fill="#181818" points="378.5074,126.2437,384.5074,128.6437,378.5074,131.0438,380.9074,128.6437" style="stroke:#181818;stroke-width:0.6;"/><line style="stroke:#181818;stroke-width:0.6;" x1="244.8527" x2="382.1074" y1="128.6437" y2="128.6437"/><text fill="#000000" font-family="sans-serif" font-size="7.8" lengthAdjust="spacing" textLength="58.0011" x="286.2795" y="125.4861">parse("&lt;index&gt;")</text><polygon fill="#181818" points="448.759,134.6437,454.759,137.0438,448.759,139.4438,451.159,137.0438" style="stroke:#181818;stroke-width:0.6;"/><line style="stroke:#181818;stroke-width:0.6;" x1="391.7074" x2="452.359" y1="137.0438" y2="137.0438"/><rect fill="#3333C4" height="19.5727" rx="1.5" ry="1.5" style="stroke:#181818;stroke-width:0.3;" width="110.6438" x="455.959" y="133.4438"/><text fill="#FFFFFF" font-family="sans-serif" font-size="8.4" lengthAdjust="spacing" textLength="102.2437" x="460.159" y="146.7082">command:DeleteCommand</text><polygon fill="#181818" points="398.3074,160.8164,392.3074,163.2164,398.3074,165.6164,395.9074,163.2164" style="stroke:#181818;stroke-width:0.6;"/><line style="stroke:#181818;stroke-width:0.6;stroke-dasharray:2.0,2.0;" x1="394.7074" x2="510.6809" y1="163.2164" y2="163.2164"/><polygon fill="#181818" points="251.4527,179.591,245.4527,181.991,251.4527,184.391,249.0527,181.991" style="stroke:#181818;stroke-width:0.6;"/><line style="stroke:#181818;stroke-width:0.6;stroke-dasharray:2.0,2.0;" x1="247.8527" x2="388.1074" y1="181.991" y2="181.991"/><text fill="#000000" font-family="sans-serif" font-size="7.8" lengthAdjust="spacing" textLength="34.2469" x="299.6566" y="178.8334">command</text><line style="stroke:#A80036;stroke-width:1.2;" x1="383.3074" x2="394.1074" y1="184.991" y2="195.791"/><line style="stroke:#A80036;stroke-width:1.2;" x1="383.3074" x2="394.1074" y1="195.791" y2="184.991"/><polygon fill="#181818" points="113.2277,206.7656,107.2277,209.1656,113.2277,211.5656,110.8277,209.1656" style="stroke:#181818;stroke-width:0.6;"/><line style="stroke:#181818;stroke-width:0.6;stroke-dasharray:2.0,2.0;" x1="109.6277" x2="241.2527" y1="209.1656" y2="209.1656"/><text fill="#000000" font-family="sans-serif" font-size="7.8" lengthAdjust="spacing" textLength="34.2469" x="157.1168" y="206.008">command</text><polygon fill="#181818" points="501.0809,225.5402,507.0809,227.9402,501.0809,230.3402,503.4809,227.9402" style="stroke:#181818;stroke-width:0.6;"/><line style="stroke:#181818;stroke-width:0.6;" x1="106.6277" x2="504.6809" y1="227.9402" y2="227.9402"/><text fill="#000000" font-family="sans-serif" font-size="7.8" lengthAdjust="spacing" textLength="53.7583" x="280.5751" y="224.7826">execute(model)</text><polygon fill="#181818" points="754.6298,244.3148,760.6298,246.7148,754.6298,249.1148,757.0298,246.7148" style="stroke:#181818;stroke-width:0.6;"/><line style="stroke:#181818;stroke-width:0.6;" x1="514.2809" x2="758.2298" y1="246.7148" y2="246.7148"/><text fill="#000000" font-family="sans-serif" font-size="7.8" lengthAdjust="spacing" textLength="81.0735" x="597.5186" y="243.5572">getFilteredStudentList()</text><polygon fill="#181818" points="520.8809,263.0895,514.8809,265.4895,520.8809,267.8895,518.4809,265.4895" style="stroke:#181818;stroke-width:0.6;"/><line style="stroke:#181818;stroke-width:0.6;stroke-dasharray:2.0,2.0;" x1="517.2809" x2="764.2298" y1="265.4895" y2="265.4895"/><text fill="#000000" font-family="sans-serif" font-size="7.8" lengthAdjust="spacing" textLength="48.1254" x="615.4926" y="262.3318">lastShownList</text><polygon fill="#181818" points="754.6298,281.8641,760.6298,284.2641,754.6298,286.6641,757.0298,284.2641" style="stroke:#181818;stroke-width:0.6;"/><line style="stroke:#181818;stroke-width:0.6;" x1="514.2809" x2="758.2298" y1="284.2641" y2="284.2641"/><text fill="#000000" font-family="sans-serif" font-size="7.8" lengthAdjust="spacing" textLength="110.5711" x="582.7698" y="281.1064">deleteStudent(studentToDelete)</text><polygon fill="#181818" points="520.8809,290.2641,514.8809,292.6641,520.8809,295.0641,518.4809,292.6641" style="stroke:#181818;stroke-width:0.6;"/><line style="stroke:#181818;stroke-width:0.6;stroke-dasharray:2.0,2.0;" x1="517.2809" x2="764.2298" y1="292.6641" y2="292.6641"/><polygon fill="#181818" points="577.4027,298.6641,583.4027,301.0641,577.4027,303.4641,579.8027,301.0641" style="stroke:#181818;stroke-width:0.6;"/><line style="stroke:#181818;stroke-width:0.6;" x1="514.2809" x2="581.0027" y1="301.0641" y2="301.0641"/><rect fill="#3333C4" height="19.5727" rx="1.5" ry="1.5" style="stroke:#181818;stroke-width:0.3;" width="133.9816" x="584.6027" y="297.4641"/><text fill="#FFFFFF" font-family="sans-serif" font-size="8.4" lengthAdjust="spacing" textLength="125.5816" x="588.8027" y="310.7285">commandResult:CommandResult</text><polygon fill="#181818" points="520.8809,324.8367,514.8809,327.2367,520.8809,329.6367,518.4809,327.2367" style="stroke:#181818;stroke-width:0.6;"/><line style="stroke:#181818;stroke-width:0.6;stroke-dasharray:2.0,2.0;" x1="517.2809" x2="650.9936" y1="327.2367" y2="327.2367"/><polygon fill="#181818" points="113.2277,343.6113,107.2277,346.0113,113.2277,348.4113,110.8277,346.0113" style="stroke:#181818;stroke-width:0.6;"/><line style="stroke:#181818;stroke-width:0.6;stroke-dasharray:2.0,2.0;" x1="109.6277" x2="510.6809" y1="346.0113" y2="346.0113"/><text fill="#000000" font-family="sans-serif" font-size="7.8" lengthAdjust="spacing" textLength="56.3558" x="280.7764" y="342.8537">commandResult</text><polygon fill="#181818" points="6.6,352.0113,0.6,354.4113,6.6,356.8113,4.2,354.4113" style="stroke:#181818;stroke-width:0.6;"/><line style="stroke:#181818;stroke-width:0.6;stroke-dasharray:2.0,2.0;" x1="3" x2="103.0277" y1="354.4113" y2="354.4113"/><!--SRC=[bPHDZzem48Rl_XNJNCeUGjLhj4BQiX-j1A9QzeQgbOcdOE7OaMswxB-lxQIxSUAmz4GOp_lCbyUVk2p5aI5Cfr-CVHKuhO-L8ER0PKqrhU16Q_LohwHT-rEe1UMIaAqwmKBjU0cBrSEF-VDyjLWzFZzz9KvaUSbhAYramdiKmMz99TsXpe0Qw1gw-bXC6TDep3Ub3Z-fDgYBcxubq0RMSMHnYm8jpbLLKSawZ8Hzd58sRZ5iYFaGy8ZcA6mnx_uBcCWIOT1XNUkR_YyLGm7BrUtTOgJ_bVSeWby03nJlm4q-Y-TI09wmF5gSP2oK1TTSCZpDiYj2Iyl_K6VgAWY9z8utd4m1jVze2pn77cW9AJNwayIio32I2vzoVEEd3adg6kIfGWZ3ywHB4_hNaKcMw46IdEf2El5Um15kh-fGRpBHqPh_es-ktFRoVzJ1pzyvOoY1-kS7h89Q6Mwvac3t20oDrUeLAgeFZhf5uPtSWR_FwdVuRF5UigLwcavoimzXVeqCkObowOI7AvGeDd6n-tiJ3-Hz4SCwNrqwnrcxxWNiqDvpOL4ZMrltrakxuCPEEgJWIKWZo1Cf26hiUgzUf5TsoscLex6R3M_3Japp-wGQ_uipI4Hizo1wAuTfnCTlZDXCuWVtRFIUShWxwHlG-e-lqEOwpwFNjEFQjVy5]--></g></svg>
