<svg xmlns="http://www.w3.org/2000/svg" xmlns:xlink="http://www.w3.org/1999/xlink" contentStyleType="text/css" height="648.8px" preserveAspectRatio="none" style="width:801px;height:648px;background:#FFFFFF;" version="1.1" viewBox="0 0 801 648" width="801.6px" zoomAndPan="magnify"><defs/><g><rect fill="#C8C8FA" height="641.4992" style="stroke:#181818;stroke-width:0.20000000000000004;" width="730.9586" x="16.4494" y="2.4"/><text fill="#FFFFFF" font-family="sans-serif" font-size="5.2" font-weight="bold" lengthAdjust="spacing" textLength="13.8658" x="374.2734" y="8.0113">Logic</text><rect fill="#F97181" height="641.4992" style="stroke:#181818;stroke-width:0.20000000000000004;" width="48.8605" x="748.208" y="2.4"/><text fill="#FFFFFF" font-family="sans-serif" font-size="5.2" font-weight="bold" lengthAdjust="spacing" textLength="15.0211" x="764.4054" y="8.0113">Model</text><rect fill="#FFFFFF" height="601.418" style="stroke:#181818;stroke-width:0.4000000000000001;" width="4" x="47.1307" y="37.6813"/><rect fill="#FFFFFF" height="227.9094" style="stroke:#181818;stroke-width:0.4000000000000001;" width="4" x="139.2807" y="50.1977"/><rect fill="#FFFFFF" height="6.532" style="stroke:#181818;stroke-width:0.4000000000000001;" width="4" x="236.1719" y="66.7141"/><rect fill="#FFFFFF" height="174.2281" style="stroke:#181818;stroke-width:0.4000000000000001;" width="4" x="236.1719" y="85.7625"/><rect fill="#FFFFFF" height="6.532" style="stroke:#181818;stroke-width:0.4000000000000001;" width="4" x="363.5549" y="102.2789"/><rect fill="#FFFFFF" height="5.6" style="stroke:#181818;stroke-width:0.4000000000000001;" width="4" x="363.5549" y="121.3273"/><rect fill="#FFFFFF" height="5.6" style="stroke:#181818;stroke-width:0.4000000000000001;" width="4" x="363.5549" y="139.4438"/><rect fill="#FFFFFF" height="5.6" style="stroke:#181818;stroke-width:0.4000000000000001;" width="4" x="363.5549" y="157.5602"/><rect fill="#FFFFFF" height="5.6" style="stroke:#181818;stroke-width:0.4000000000000001;" width="4" x="363.5549" y="175.6766"/><rect fill="#FFFFFF" height="5.6" style="stroke:#181818;stroke-width:0.4000000000000001;" width="4" x="363.5549" y="193.793"/><rect fill="#FFFFFF" height="5.6" style="stroke:#181818;stroke-width:0.4000000000000001;" width="4" x="363.5549" y="211.9094"/><rect fill="#FFFFFF" height="5.6" style="stroke:#181818;stroke-width:0.4000000000000001;" width="4" x="363.5549" y="338.9727"/><rect fill="#FFFFFF" height="5.6" style="stroke:#181818;stroke-width:0.4000000000000001;" width="4" x="363.5549" y="357.0891"/><rect fill="#FFFFFF" height="5.6" style="stroke:#181818;stroke-width:0.4000000000000001;" width="4" x="363.5549" y="375.2055"/><rect fill="#FFFFFF" height="5.6" style="stroke:#181818;stroke-width:0.4000000000000001;" width="4" x="363.5549" y="393.3219"/><rect fill="#FFFFFF" height="5.6" style="stroke:#181818;stroke-width:0.4000000000000001;" width="4" x="363.5549" y="411.4383"/><rect fill="#FFFFFF" height="5.6" style="stroke:#181818;stroke-width:0.4000000000000001;" width="4" x="363.5549" y="429.5547"/><rect fill="#FFFFFF" height="20.3648" style="stroke:#181818;stroke-width:0.4000000000000001;" width="4" x="466.9063" y="227.1094"/><rect fill="#FFFFFF" height="342.8758" style="stroke:#181818;stroke-width:0.4000000000000001;" width="4" x="466.9063" y="290.6234"/><rect fill="#FFFFFF" height="148.6633" style="stroke:#181818;stroke-width:0.4000000000000001;" width="4" x="468.9063" y="324.4563"/><rect fill="#FFFFFF" height="6.532" style="stroke:#181818;stroke-width:0.4000000000000001;" width="4" x="616.0719" y="451.6711"/><rect fill="#FFFFFF" height="5.6" style="stroke:#181818;stroke-width:0.4000000000000001;" width="4" x="616.0719" y="506.5523"/><rect fill="#FFFFFF" height="5.6" style="stroke:#181818;stroke-width:0.4000000000000001;" width="4" x="616.0719" y="556.1016"/><rect fill="#FFFFFF" height="6.532" style="stroke:#181818;stroke-width:0.4000000000000001;" width="4" x="695.1475" y="614.4508"/><rect fill="#FFFFFF" height="5.6" style="stroke:#181818;stroke-width:0.4000000000000001;" width="4" x="770.6383" y="303.1398"/><rect fill="#FFFFFF" height="5.6" style="stroke:#181818;stroke-width:0.4000000000000001;" width="4" x="770.6383" y="488.4359"/><rect fill="#FFFFFF" height="5.6" style="stroke:#181818;stroke-width:0.4000000000000001;" width="4" x="770.6383" y="535.1852"/><rect fill="#FFFFFF" height="5.6" style="stroke:#181818;stroke-width:0.4000000000000001;" width="4" x="770.6383" y="574.218"/><rect fill="#FFFFFF" height="5.6" style="stroke:#181818;stroke-width:0.4000000000000001;" width="4" x="770.6383" y="592.3344"/><rect fill="#FFFFFF" height="25.8328" style="stroke:#000000;stroke-width:0.6000000000000001;" width="372.1746" x="427.2939" y="518.1523"/><line style="stroke:#181818;stroke-width:0.20000000000000004;stroke-dasharray:5.0,5.0;" x1="48.8494" x2="48.8494" y1="24.3648" y2="646.2992"/><line style="stroke:#181818;stroke-width:0.20000000000000004;stroke-dasharray:5.0,5.0;" x1="141.0119" x2="141.0119" y1="24.3648" y2="646.2992"/><line style="stroke:#181818;stroke-width:0.20000000000000004;stroke-dasharray:5.0,5.0;" x1="237.8064" x2="237.8064" y1="66.1219" y2="646.2992"/><line style="stroke:#181818;stroke-width:0.20000000000000004;stroke-dasharray:5.0,5.0;" x1="365.4158" x2="365.4158" y1="101.6867" y2="646.2992"/><line style="stroke:#181818;stroke-width:0.20000000000000004;stroke-dasharray:5.0,5.0;" x1="468.8939" x2="468.8939" y1="233.4336" y2="646.2992"/><line style="stroke:#181818;stroke-width:0.20000000000000004;stroke-dasharray:5.0,5.0;" x1="618.0568" x2="618.0568" y1="451.0789" y2="646.2992"/><line style="stroke:#181818;stroke-width:0.20000000000000004;stroke-dasharray:5.0,5.0;" x1="696.8869" x2="696.8869" y1="613.8586" y2="646.2992"/><line style="stroke:#181818;stroke-width:0.20000000000000004;stroke-dasharray:5.0,5.0;" x1="772.608" x2="772.608" y1="24.3648" y2="646.2992"/><rect fill="#3333C4" height="13.0484" rx="1" ry="1" style="stroke:#181818;stroke-width:0.20000000000000004;" width="54.1625" x="22.0494" y="10.9164"/><text fill="#FFFFFF" font-family="sans-serif" font-size="5.6" lengthAdjust="spacing" textLength="48.5625" x="24.8494" y="19.7594">logic:LogicManager</text><rect fill="#3333C4" height="13.0484" rx="1" ry="1" style="stroke:#181818;stroke-width:0.20000000000000004;" width="106.1375" x="88.2119" y="10.9164"/><text fill="#FFFFFF" font-family="sans-serif" font-size="5.6" lengthAdjust="spacing" textLength="100.5375" x="91.0119" y="19.7594">addressBookParser:AddressBookParser</text><rect fill="#9D0012" height="13.0484" rx="1" ry="1" style="stroke:#181818;stroke-width:0.20000000000000004;" width="37.6605" x="753.808" y="10.9164"/><text fill="#FFFFFF" font-family="sans-serif" font-size="5.6" lengthAdjust="spacing" textLength="32.0605" x="756.608" y="19.7594">model:Model</text><rect fill="#FFFFFF" height="601.418" style="stroke:#181818;stroke-width:0.4000000000000001;" width="4" x="47.1307" y="37.6813"/><rect fill="#FFFFFF" height="227.9094" style="stroke:#181818;stroke-width:0.4000000000000001;" width="4" x="139.2807" y="50.1977"/><rect fill="#FFFFFF" height="6.532" style="stroke:#181818;stroke-width:0.4000000000000001;" width="4" x="236.1719" y="66.7141"/><rect fill="#FFFFFF" height="174.2281" style="stroke:#181818;stroke-width:0.4000000000000001;" width="4" x="236.1719" y="85.7625"/><rect fill="#FFFFFF" height="6.532" style="stroke:#181818;stroke-width:0.4000000000000001;" width="4" x="363.5549" y="102.2789"/><rect fill="#FFFFFF" height="5.6" style="stroke:#181818;stroke-width:0.4000000000000001;" width="4" x="363.5549" y="121.3273"/><rect fill="#FFFFFF" height="5.6" style="stroke:#181818;stroke-width:0.4000000000000001;" width="4" x="363.5549" y="139.4438"/><rect fill="#FFFFFF" height="5.6" style="stroke:#181818;stroke-width:0.4000000000000001;" width="4" x="363.5549" y="157.5602"/><rect fill="#FFFFFF" height="5.6" style="stroke:#181818;stroke-width:0.4000000000000001;" width="4" x="363.5549" y="175.6766"/><rect fill="#FFFFFF" height="5.6" style="stroke:#181818;stroke-width:0.4000000000000001;" width="4" x="363.5549" y="193.793"/><rect fill="#FFFFFF" height="5.6" style="stroke:#181818;stroke-width:0.4000000000000001;" width="4" x="363.5549" y="211.9094"/><rect fill="#FFFFFF" height="5.6" style="stroke:#181818;stroke-width:0.4000000000000001;" width="4" x="363.5549" y="338.9727"/><rect fill="#FFFFFF" height="5.6" style="stroke:#181818;stroke-width:0.4000000000000001;" width="4" x="363.5549" y="357.0891"/><rect fill="#FFFFFF" height="5.6" style="stroke:#181818;stroke-width:0.4000000000000001;" width="4" x="363.5549" y="375.2055"/><rect fill="#FFFFFF" height="5.6" style="stroke:#181818;stroke-width:0.4000000000000001;" width="4" x="363.5549" y="393.3219"/><rect fill="#FFFFFF" height="5.6" style="stroke:#181818;stroke-width:0.4000000000000001;" width="4" x="363.5549" y="411.4383"/><rect fill="#FFFFFF" height="5.6" style="stroke:#181818;stroke-width:0.4000000000000001;" width="4" x="363.5549" y="429.5547"/><rect fill="#FFFFFF" height="20.3648" style="stroke:#181818;stroke-width:0.4000000000000001;" width="4" x="466.9063" y="227.1094"/><rect fill="#FFFFFF" height="342.8758" style="stroke:#181818;stroke-width:0.4000000000000001;" width="4" x="466.9063" y="290.6234"/><rect fill="#FFFFFF" height="148.6633" style="stroke:#181818;stroke-width:0.4000000000000001;" width="4" x="468.9063" y="324.4563"/><rect fill="#FFFFFF" height="6.532" style="stroke:#181818;stroke-width:0.4000000000000001;" width="4" x="616.0719" y="451.6711"/><rect fill="#FFFFFF" height="5.6" style="stroke:#181818;stroke-width:0.4000000000000001;" width="4" x="616.0719" y="506.5523"/><rect fill="#FFFFFF" height="5.6" style="stroke:#181818;stroke-width:0.4000000000000001;" width="4" x="616.0719" y="556.1016"/><rect fill="#FFFFFF" height="6.532" style="stroke:#181818;stroke-width:0.4000000000000001;" width="4" x="695.1475" y="614.4508"/><rect fill="#FFFFFF" height="5.6" style="stroke:#181818;stroke-width:0.4000000000000001;" width="4" x="770.6383" y="303.1398"/><rect fill="#FFFFFF" height="5.6" style="stroke:#181818;stroke-width:0.4000000000000001;" width="4" x="770.6383" y="488.4359"/><rect fill="#FFFFFF" height="5.6" style="stroke:#181818;stroke-width:0.4000000000000001;" width="4" x="770.6383" y="535.1852"/><rect fill="#FFFFFF" height="5.6" style="stroke:#181818;stroke-width:0.4000000000000001;" width="4" x="770.6383" y="574.218"/><rect fill="#FFFFFF" height="5.6" style="stroke:#181818;stroke-width:0.4000000000000001;" width="4" x="770.6383" y="592.3344"/><polygon fill="#181818" points="42.3307,36.0813,46.3307,37.6813,42.3307,39.2813,43.9307,37.6813" style="stroke:#181818;stroke-width:0.4000000000000001;"/><line style="stroke:#181818;stroke-width:0.4000000000000001;" x1="0" x2="44.7307" y1="37.6813" y2="37.6813"/><text fill="#000000" font-family="sans-serif" font-size="5.2" lengthAdjust="spacing" textLength="39.5307" x="3.8" y="35.5762">execute("edit ...")</text><polygon fill="#181818" points="134.4807,48.5977,138.4807,50.1977,134.4807,51.7977,136.0807,50.1977" style="stroke:#181818;stroke-width:0.4000000000000001;"/><line style="stroke:#181818;stroke-width:0.4000000000000001;" x1="51.1307" x2="136.8807" y1="50.1977" y2="50.1977"/><text fill="#000000" font-family="sans-serif" font-size="5.2" lengthAdjust="spacing" textLength="58.3121" x="66.0496" y="48.0926">parseCommand("edit ...")</text><polygon fill="#181818" points="203.8064,61.1141,207.8064,62.7141,203.8064,64.3141,205.4064,62.7141" style="stroke:#181818;stroke-width:0.4000000000000001;"/><line style="stroke:#181818;stroke-width:0.4000000000000001;" x1="143.2807" x2="206.2064" y1="62.7141" y2="62.7141"/><text fill="#000000" font-family="sans-serif" font-size="5.2" lengthAdjust="spacing" textLength="51.7258" x="150.0807" y="60.609">EditCommandParser()</text><rect fill="#3333C4" height="13.0484" rx="1" ry="1" style="stroke:#181818;stroke-width:0.20000000000000004;" width="59.1309" x="208.6064" y="53.3977"/><text fill="#FFFFFF" font-family="sans-serif" font-size="5.6" lengthAdjust="spacing" textLength="53.5309" x="211.4064" y="62.2406">:EditCommandParser</text><polygon fill="#181818" points="147.6807,71.6461,143.6807,73.2461,147.6807,74.8461,146.0807,73.2461" style="stroke:#181818;stroke-width:0.4000000000000001;"/><line style="stroke:#181818;stroke-width:0.4000000000000001;stroke-dasharray:2.0,2.0;" x1="145.2807" x2="237.7719" y1="73.2461" y2="73.2461"/><polygon fill="#181818" points="231.3719,84.1625,235.3719,85.7625,231.3719,87.3625,232.9719,85.7625" style="stroke:#181818;stroke-width:0.4000000000000001;"/><line style="stroke:#181818;stroke-width:0.4000000000000001;" x1="143.2807" x2="233.7719" y1="85.7625" y2="85.7625"/><text fill="#000000" font-family="sans-serif" font-size="5.2" lengthAdjust="spacing" textLength="52.5357" x="163.4584" y="83.6574">parse("&lt;parameters&gt;")</text><polygon fill="#181818" points="303.0158,96.6789,307.0158,98.2789,303.0158,99.8789,304.6158,98.2789" style="stroke:#181818;stroke-width:0.4000000000000001;"/><line style="stroke:#181818;stroke-width:0.4000000000000001;" x1="240.1719" x2="305.4158" y1="98.2789" y2="98.2789"/><text fill="#000000" font-family="sans-serif" font-size="5.2" lengthAdjust="spacing" textLength="54.0439" x="246.9719" y="96.1738">EditStudentDescriptor()</text><rect fill="#3333C4" height="13.0484" rx="1" ry="1" style="stroke:#181818;stroke-width:0.20000000000000004;" width="115.4781" x="307.8158" y="88.9625"/><text fill="#FFFFFF" font-family="sans-serif" font-size="5.6" lengthAdjust="spacing" textLength="109.8781" x="310.6158" y="97.8055">editStudentDescriptor:EditStudentDescriptor</text><polygon fill="#181818" points="244.5719,107.2109,240.5719,108.8109,244.5719,110.4109,242.9719,108.8109" style="stroke:#181818;stroke-width:0.4000000000000001;"/><line style="stroke:#181818;stroke-width:0.4000000000000001;stroke-dasharray:2.0,2.0;" x1="242.1719" x2="365.1549" y1="108.8109" y2="108.8109"/><polygon fill="#181818" points="358.7549,119.7273,362.7549,121.3273,358.7549,122.9273,360.3549,121.3273" style="stroke:#181818;stroke-width:0.4000000000000001;"/><line style="stroke:#181818;stroke-width:0.4000000000000001;" x1="240.1719" x2="361.1549" y1="121.3273" y2="121.3273"/><text fill="#000000" font-family="sans-serif" font-size="5.2" lengthAdjust="spacing" textLength="24.2709" x="289.7279" y="119.2223">setName()</text><polygon fill="#181818" points="244.5719,125.3273,240.5719,126.9273,244.5719,128.5273,242.9719,126.9273" style="stroke:#181818;stroke-width:0.4000000000000001;"/><line style="stroke:#181818;stroke-width:0.4000000000000001;stroke-dasharray:2.0,2.0;" x1="242.1719" x2="365.1549" y1="126.9273" y2="126.9273"/><polygon fill="#181818" points="358.7549,137.8438,362.7549,139.4438,358.7549,141.0438,360.3549,139.4438" style="stroke:#181818;stroke-width:0.4000000000000001;"/><line style="stroke:#181818;stroke-width:0.4000000000000001;" x1="240.1719" x2="361.1549" y1="139.4438" y2="139.4438"/><text fill="#000000" font-family="sans-serif" font-size="5.2" lengthAdjust="spacing" textLength="32.6625" x="285.5321" y="137.3387">setStudentId()</text><polygon fill="#181818" points="244.5719,143.4438,240.5719,145.0438,244.5719,146.6438,242.9719,145.0438" style="stroke:#181818;stroke-width:0.4000000000000001;"/><line style="stroke:#181818;stroke-width:0.4000000000000001;stroke-dasharray:2.0,2.0;" x1="242.1719" x2="365.1549" y1="145.0438" y2="145.0438"/><polygon fill="#181818" points="358.7549,155.9602,362.7549,157.5602,358.7549,159.1602,360.3549,157.5602" style="stroke:#181818;stroke-width:0.4000000000000001;"/><line style="stroke:#181818;stroke-width:0.4000000000000001;" x1="240.1719" x2="361.1549" y1="157.5602" y2="157.5602"/><text fill="#000000" font-family="sans-serif" font-size="5.2" lengthAdjust="spacing" textLength="25.4363" x="289.1452" y="155.4551">setPhone()</text><polygon fill="#181818" points="244.5719,161.5602,240.5719,163.1602,244.5719,164.7602,242.9719,163.1602" style="stroke:#181818;stroke-width:0.4000000000000001;"/><line style="stroke:#181818;stroke-width:0.4000000000000001;stroke-dasharray:2.0,2.0;" x1="242.1719" x2="365.1549" y1="163.1602" y2="163.1602"/><polygon fill="#181818" points="358.7549,174.0766,362.7549,175.6766,358.7549,177.2766,360.3549,175.6766" style="stroke:#181818;stroke-width:0.4000000000000001;"/><line style="stroke:#181818;stroke-width:0.4000000000000001;" x1="240.1719" x2="361.1549" y1="175.6766" y2="175.6766"/><text fill="#000000" font-family="sans-serif" font-size="5.2" lengthAdjust="spacing" textLength="23.4025" x="290.1621" y="173.5715">setEmail()</text><polygon fill="#181818" points="244.5719,179.6766,240.5719,181.2766,244.5719,182.8766,242.9719,181.2766" style="stroke:#181818;stroke-width:0.4000000000000001;"/><line style="stroke:#181818;stroke-width:0.4000000000000001;stroke-dasharray:2.0,2.0;" x1="242.1719" x2="365.1549" y1="181.2766" y2="181.2766"/><polygon fill="#181818" points="358.7549,192.193,362.7549,193.793,358.7549,195.393,360.3549,193.793" style="stroke:#181818;stroke-width:0.4000000000000001;"/><line style="stroke:#181818;stroke-width:0.4000000000000001;" x1="240.1719" x2="361.1549" y1="193.793" y2="193.793"/><text fill="#000000" font-family="sans-serif" font-size="5.2" lengthAdjust="spacing" textLength="26.8785" x="288.4241" y="191.6879">setHandle()</text><polygon fill="#181818" points="244.5719,197.793,240.5719,199.393,244.5719,200.993,242.9719,199.393" style="stroke:#181818;stroke-width:0.4000000000000001;"/><line style="stroke:#181818;stroke-width:0.4000000000000001;stroke-dasharray:2.0,2.0;" x1="242.1719" x2="365.1549" y1="199.393" y2="199.393"/><polygon fill="#181818" points="358.7549,210.3094,362.7549,211.9094,358.7549,213.5094,360.3549,211.9094" style="stroke:#181818;stroke-width:0.4000000000000001;"/><line style="stroke:#181818;stroke-width:0.4000000000000001;" x1="240.1719" x2="361.1549" y1="211.9094" y2="211.9094"/><text fill="#000000" font-family="sans-serif" font-size="5.2" lengthAdjust="spacing" textLength="30.3393" x="286.6938" y="209.8043">setTutorials()</text><polygon fill="#181818" points="244.5719,215.9094,240.5719,217.5094,244.5719,219.1094,242.9719,217.5094" style="stroke:#181818;stroke-width:0.4000000000000001;"/><line style="stroke:#181818;stroke-width:0.4000000000000001;stroke-dasharray:2.0,2.0;" x1="242.1719" x2="365.1549" y1="217.5094" y2="217.5094"/><polygon fill="#181818" points="430.4939,221.5094,434.4939,223.1094,430.4939,224.7094,432.0939,223.1094" style="stroke:#181818;stroke-width:0.4000000000000001;"/><line style="stroke:#181818;stroke-width:0.4000000000000001;" x1="240.1719" x2="432.8939" y1="223.1094" y2="223.1094"/><rect fill="#3333C4" height="13.0484" rx="1" ry="1" style="stroke:#181818;stroke-width:0.20000000000000004;" width="67.2246" x="435.2939" y="220.7094"/><text fill="#FFFFFF" font-family="sans-serif" font-size="5.6" lengthAdjust="spacing" textLength="61.6246" x="438.0939" y="229.5523">command:EditCommand</text><polygon fill="#181818" points="244.5719,245.8742,240.5719,247.4742,244.5719,249.0742,242.9719,247.4742" style="stroke:#181818;stroke-width:0.4000000000000001;"/><line style="stroke:#181818;stroke-width:0.4000000000000001;stroke-dasharray:2.0,2.0;" x1="242.1719" x2="468.5063" y1="247.4742" y2="247.4742"/><text fill="#000000" font-family="sans-serif" font-size="5.2" lengthAdjust="spacing" textLength="22.8313" x="343.1234" y="245.3691">command</text><polygon fill="#181818" points="147.6807,258.3906,143.6807,259.9906,147.6807,261.5906,146.0807,259.9906" style="stroke:#181818;stroke-width:0.4000000000000001;"/><line style="stroke:#181818;stroke-width:0.4000000000000001;stroke-dasharray:2.0,2.0;" x1="145.2807" x2="237.7719" y1="259.9906" y2="259.9906"/><text fill="#000000" font-family="sans-serif" font-size="5.2" lengthAdjust="spacing" textLength="22.8313" x="179.3106" y="257.8855">command</text><line style="stroke:#A80036;stroke-width:0.8000000000000002;" x1="234.5719" x2="241.7719" y1="261.9906" y2="269.1906"/><line style="stroke:#A80036;stroke-width:0.8000000000000002;" x1="234.5719" x2="241.7719" y1="269.1906" y2="261.9906"/><polygon fill="#181818" points="55.5307,276.507,51.5307,278.107,55.5307,279.707,53.9307,278.107" style="stroke:#181818;stroke-width:0.4000000000000001;"/><line style="stroke:#181818;stroke-width:0.4000000000000001;stroke-dasharray:2.0,2.0;" x1="53.1307" x2="140.8807" y1="278.107" y2="278.107"/><text fill="#000000" font-family="sans-serif" font-size="5.2" lengthAdjust="spacing" textLength="22.8313" x="84.79" y="276.002">command</text><polygon fill="#181818" points="462.1063,289.0234,466.1063,290.6234,462.1063,292.2234,463.7063,290.6234" style="stroke:#181818;stroke-width:0.4000000000000001;"/><line style="stroke:#181818;stroke-width:0.4000000000000001;" x1="51.1307" x2="464.5063" y1="290.6234" y2="290.6234"/><text fill="#000000" font-family="sans-serif" font-size="5.2" lengthAdjust="spacing" textLength="35.8389" x="241.099" y="288.5184">execute(model)</text><polygon fill="#181818" points="765.8383,301.5398,769.8383,303.1398,765.8383,304.7398,767.4383,303.1398" style="stroke:#181818;stroke-width:0.4000000000000001;"/><line style="stroke:#181818;stroke-width:0.4000000000000001;" x1="470.9063" x2="768.2383" y1="303.1398" y2="303.1398"/><text fill="#000000" font-family="sans-serif" font-size="5.2" lengthAdjust="spacing" textLength="54.049" x="593.7478" y="301.0348">getFilteredStudentList()</text><polygon fill="#181818" points="475.3063,307.1398,471.3063,308.7398,475.3063,310.3398,473.7063,308.7398" style="stroke:#181818;stroke-width:0.4000000000000001;"/><line style="stroke:#181818;stroke-width:0.4000000000000001;stroke-dasharray:2.0,2.0;" x1="472.9063" x2="772.2383" y1="308.7398" y2="308.7398"/><line style="stroke:#181818;stroke-width:0.4000000000000001;" x1="470.9063" x2="489.7063" y1="319.2563" y2="319.2563"/><line style="stroke:#181818;stroke-width:0.4000000000000001;" x1="489.7063" x2="489.7063" y1="319.2563" y2="324.4563"/><line style="stroke:#181818;stroke-width:0.4000000000000001;" x1="473.3063" x2="489.7063" y1="324.4563" y2="324.4563"/><polygon fill="#181818" points="477.3063,322.8563,473.3063,324.4563,477.3063,326.0563,475.7063,324.4563" style="stroke:#181818;stroke-width:0.4000000000000001;"/><text fill="#000000" font-family="sans-serif" font-size="5.2" lengthAdjust="spacing" textLength="135.5656" x="475.7063" y="317.1512">createEditedStudent(studentToEdit, editStudentDescriptor)</text><polygon fill="#181818" points="371.9549,337.3727,367.9549,338.9727,371.9549,340.5727,370.3549,338.9727" style="stroke:#181818;stroke-width:0.4000000000000001;"/><line style="stroke:#181818;stroke-width:0.4000000000000001;" x1="369.5549" x2="468.5063" y1="338.9727" y2="338.9727"/><text fill="#000000" font-family="sans-serif" font-size="5.2" lengthAdjust="spacing" textLength="24.5629" x="405.9491" y="336.8676">getName()</text><polygon fill="#181818" points="464.1063,342.9727,468.1063,344.5727,464.1063,346.1727,465.7063,344.5727" style="stroke:#181818;stroke-width:0.4000000000000001;"/><line style="stroke:#181818;stroke-width:0.4000000000000001;stroke-dasharray:2.0,2.0;" x1="365.5549" x2="466.5063" y1="344.5727" y2="344.5727"/><polygon fill="#181818" points="371.9549,355.4891,367.9549,357.0891,371.9549,358.6891,370.3549,357.0891" style="stroke:#181818;stroke-width:0.4000000000000001;"/><line style="stroke:#181818;stroke-width:0.4000000000000001;" x1="369.5549" x2="468.5063" y1="357.0891" y2="357.0891"/><text fill="#000000" font-family="sans-serif" font-size="5.2" lengthAdjust="spacing" textLength="24.5629" x="405.9491" y="354.984">getName()</text><polygon fill="#181818" points="464.1063,361.0891,468.1063,362.6891,464.1063,364.2891,465.7063,362.6891" style="stroke:#181818;stroke-width:0.4000000000000001;"/><line style="stroke:#181818;stroke-width:0.4000000000000001;stroke-dasharray:2.0,2.0;" x1="365.5549" x2="466.5063" y1="362.6891" y2="362.6891"/><polygon fill="#181818" points="371.9549,373.6055,367.9549,375.2055,371.9549,376.8055,370.3549,375.2055" style="stroke:#181818;stroke-width:0.4000000000000001;"/><line style="stroke:#181818;stroke-width:0.4000000000000001;" x1="369.5549" x2="468.5063" y1="375.2055" y2="375.2055"/><text fill="#000000" font-family="sans-serif" font-size="5.2" lengthAdjust="spacing" textLength="24.5629" x="405.9491" y="373.1004">getName()</text><polygon fill="#181818" points="464.1063,379.2055,468.1063,380.8055,464.1063,382.4055,465.7063,380.8055" style="stroke:#181818;stroke-width:0.4000000000000001;"/><line style="stroke:#181818;stroke-width:0.4000000000000001;stroke-dasharray:2.0,2.0;" x1="365.5549" x2="466.5063" y1="380.8055" y2="380.8055"/><polygon fill="#181818" points="371.9549,391.7219,367.9549,393.3219,371.9549,394.9219,370.3549,393.3219" style="stroke:#181818;stroke-width:0.4000000000000001;"/><line style="stroke:#181818;stroke-width:0.4000000000000001;" x1="369.5549" x2="468.5063" y1="393.3219" y2="393.3219"/><text fill="#000000" font-family="sans-serif" font-size="5.2" lengthAdjust="spacing" textLength="24.5629" x="405.9491" y="391.2168">getName()</text><polygon fill="#181818" points="464.1063,397.3219,468.1063,398.9219,464.1063,400.5219,465.7063,398.9219" style="stroke:#181818;stroke-width:0.4000000000000001;"/><line style="stroke:#181818;stroke-width:0.4000000000000001;stroke-dasharray:2.0,2.0;" x1="365.5549" x2="466.5063" y1="398.9219" y2="398.9219"/><polygon fill="#181818" points="371.9549,409.8383,367.9549,411.4383,371.9549,413.0383,370.3549,411.4383" style="stroke:#181818;stroke-width:0.4000000000000001;"/><line style="stroke:#181818;stroke-width:0.4000000000000001;" x1="369.5549" x2="468.5063" y1="411.4383" y2="411.4383"/><text fill="#000000" font-family="sans-serif" font-size="5.2" lengthAdjust="spacing" textLength="24.5629" x="405.9491" y="409.3332">getName()</text><polygon fill="#181818" points="464.1063,415.4383,468.1063,417.0383,464.1063,418.6383,465.7063,417.0383" style="stroke:#181818;stroke-width:0.4000000000000001;"/><line style="stroke:#181818;stroke-width:0.4000000000000001;stroke-dasharray:2.0,2.0;" x1="365.5549" x2="466.5063" y1="417.0383" y2="417.0383"/><polygon fill="#181818" points="371.9549,427.9547,367.9549,429.5547,371.9549,431.1547,370.3549,429.5547" style="stroke:#181818;stroke-width:0.4000000000000001;"/><line style="stroke:#181818;stroke-width:0.4000000000000001;" x1="369.5549" x2="468.5063" y1="429.5547" y2="429.5547"/><text fill="#000000" font-family="sans-serif" font-size="5.2" lengthAdjust="spacing" textLength="24.5629" x="405.9491" y="427.4496">getName()</text><polygon fill="#181818" points="464.1063,433.5547,468.1063,435.1547,464.1063,436.7547,465.7063,435.1547" style="stroke:#181818;stroke-width:0.4000000000000001;"/><line style="stroke:#181818;stroke-width:0.4000000000000001;stroke-dasharray:2.0,2.0;" x1="365.5549" x2="466.5063" y1="435.1547" y2="435.1547"/><polygon fill="#181818" points="590.8568,446.0711,594.8568,447.6711,590.8568,449.2711,592.4568,447.6711" style="stroke:#181818;stroke-width:0.4000000000000001;"/><line style="stroke:#181818;stroke-width:0.4000000000000001;" x1="472.9063" x2="593.2568" y1="447.6711" y2="447.6711"/><text fill="#000000" font-family="sans-serif" font-size="5.2" lengthAdjust="spacing" textLength="21.3891" x="523.587" y="445.566">Student()</text><rect fill="#3333C4" height="13.0484" rx="1" ry="1" style="stroke:#181818;stroke-width:0.20000000000000004;" width="44.8301" x="595.6568" y="438.3547"/><text fill="#FFFFFF" font-family="sans-serif" font-size="5.6" lengthAdjust="spacing" textLength="39.2301" x="598.4568" y="447.1977">student:Student</text><polygon fill="#181818" points="477.3063,456.6031,473.3063,458.2031,477.3063,459.8031,475.7063,458.2031" style="stroke:#181818;stroke-width:0.4000000000000001;"/><line style="stroke:#181818;stroke-width:0.4000000000000001;stroke-dasharray:2.0,2.0;" x1="474.9063" x2="617.6719" y1="458.2031" y2="458.2031"/><line style="stroke:#181818;stroke-width:0.4000000000000001;stroke-dasharray:2.0,2.0;" x1="472.9063" x2="489.7063" y1="472.7195" y2="472.7195"/><line style="stroke:#181818;stroke-width:0.4000000000000001;stroke-dasharray:2.0,2.0;" x1="489.7063" x2="489.7063" y1="472.7195" y2="477.9195"/><line style="stroke:#181818;stroke-width:0.4000000000000001;stroke-dasharray:2.0,2.0;" x1="470.9063" x2="489.7063" y1="477.9195" y2="477.9195"/><polygon fill="#181818" points="474.9063,476.3195,470.9063,477.9195,474.9063,479.5195,473.3063,477.9195" style="stroke:#181818;stroke-width:0.4000000000000001;"/><text fill="#000000" font-family="sans-serif" font-size="5.2" lengthAdjust="spacing" textLength="17.0574" x="475.7063" y="470.6145">student</text><polygon fill="#181818" points="765.8383,486.8359,769.8383,488.4359,765.8383,490.0359,767.4383,488.4359" style="stroke:#181818;stroke-width:0.4000000000000001;"/><line style="stroke:#181818;stroke-width:0.4000000000000001;" x1="470.9063" x2="768.2383" y1="488.4359" y2="488.4359"/><text fill="#000000" font-family="sans-serif" font-size="5.2" lengthAdjust="spacing" textLength="29.773" x="605.8857" y="486.3309">hasStudent()</text><polygon fill="#181818" points="475.3063,492.4359,471.3063,494.0359,475.3063,495.6359,473.7063,494.0359" style="stroke:#181818;stroke-width:0.4000000000000001;"/><line style="stroke:#181818;stroke-width:0.4000000000000001;stroke-dasharray:2.0,2.0;" x1="472.9063" x2="772.2383" y1="494.0359" y2="494.0359"/><polygon fill="#181818" points="611.2719,504.9523,615.2719,506.5523,611.2719,508.1523,612.8719,506.5523" style="stroke:#181818;stroke-width:0.4000000000000001;"/><line style="stroke:#181818;stroke-width:0.4000000000000001;" x1="470.9063" x2="613.6719" y1="506.5523" y2="506.5523"/><text fill="#000000" font-family="sans-serif" font-size="5.2" lengthAdjust="spacing" textLength="30.6313" x="528.1734" y="504.4473">getTutorials()</text><polygon fill="#181818" points="475.3063,510.5523,471.3063,512.1523,475.3063,513.7523,473.7063,512.1523" style="stroke:#181818;stroke-width:0.4000000000000001;"/><line style="stroke:#181818;stroke-width:0.4000000000000001;stroke-dasharray:2.0,2.0;" x1="472.9063" x2="617.6719" y1="512.1523" y2="512.1523"/><path d="M427.2939,518.1523 L456.2678,518.1523 L456.2678,521.8688 L452.2678,525.8688 L427.2939,525.8688 L427.2939,518.1523 " fill="#EEEEEE" style="stroke:#000000;stroke-width:0.6000000000000001;"/><rect fill="none" height="25.8328" style="stroke:#000000;stroke-width:0.6000000000000001;" width="372.1746" x="427.2939" y="518.1523"/><text fill="#000000" font-family="sans-serif" font-size="5.2" font-weight="bold" lengthAdjust="spacing" textLength="10.9738" x="433.2939" y="524.1637">loop</text><text fill="#000000" font-family="sans-serif" font-size="4.4" font-weight="bold" lengthAdjust="spacing" textLength="73.0855" x="462.2678" y="523.7004">[for each tutorial of student to edit]</text><polygon fill="#181818" points="765.8383,533.5852,769.8383,535.1852,765.8383,536.7852,767.4383,535.1852" style="stroke:#181818;stroke-width:0.4000000000000001;"/><line style="stroke:#181818;stroke-width:0.4000000000000001;" x1="470.9063" x2="768.2383" y1="535.1852" y2="535.1852"/><text fill="#000000" font-family="sans-serif" font-size="5.2" lengthAdjust="spacing" textLength="44.7941" x="598.3752" y="533.0801">hasTutorial(tutorial)</text><polygon fill="#181818" points="475.3063,539.1852,471.3063,540.7852,475.3063,542.3852,473.7063,540.7852" style="stroke:#181818;stroke-width:0.4000000000000001;"/><line style="stroke:#181818;stroke-width:0.4000000000000001;stroke-dasharray:2.0,2.0;" x1="472.9063" x2="772.2383" y1="540.7852" y2="540.7852"/><polygon fill="#181818" points="611.2719,554.5016,615.2719,556.1016,611.2719,557.7016,612.8719,556.1016" style="stroke:#181818;stroke-width:0.4000000000000001;"/><line style="stroke:#181818;stroke-width:0.4000000000000001;" x1="470.9063" x2="613.6719" y1="556.1016" y2="556.1016"/><text fill="#000000" font-family="sans-serif" font-size="5.2" lengthAdjust="spacing" textLength="30.3393" x="528.3194" y="553.9965">setTutorials()</text><polygon fill="#181818" points="475.3063,560.1016,471.3063,561.7016,475.3063,563.3016,473.7063,561.7016" style="stroke:#181818;stroke-width:0.4000000000000001;"/><line style="stroke:#181818;stroke-width:0.4000000000000001;stroke-dasharray:2.0,2.0;" x1="472.9063" x2="617.6719" y1="561.7016" y2="561.7016"/><polygon fill="#181818" points="765.8383,572.618,769.8383,574.218,765.8383,575.818,767.4383,574.218" style="stroke:#181818;stroke-width:0.4000000000000001;"/><line style="stroke:#181818;stroke-width:0.4000000000000001;" x1="470.9063" x2="768.2383" y1="574.218" y2="574.218"/><text fill="#000000" font-family="sans-serif" font-size="5.2" lengthAdjust="spacing" textLength="95.3951" x="573.0747" y="572.1129">setStudent(studentToEdit, editedStudent)</text><polygon fill="#181818" points="475.3063,578.218,471.3063,579.818,475.3063,581.418,473.7063,579.818" style="stroke:#181818;stroke-width:0.4000000000000001;"/><line style="stroke:#181818;stroke-width:0.4000000000000001;stroke-dasharray:2.0,2.0;" x1="472.9063" x2="772.2383" y1="579.818" y2="579.818"/><polygon fill="#181818" points="765.8383,590.7344,769.8383,592.3344,765.8383,593.9344,767.4383,592.3344" style="stroke:#181818;stroke-width:0.4000000000000001;"/><line style="stroke:#181818;stroke-width:0.4000000000000001;" x1="470.9063" x2="768.2383" y1="592.3344" y2="592.3344"/><text fill="#000000" font-family="sans-serif" font-size="5.2" lengthAdjust="spacing" textLength="152.0188" x="544.7629" y="590.2293">updateFilteredStudentList(PREDICATE_SHOW_ALL_PERSONS)</text><polygon fill="#181818" points="475.3063,596.3344,471.3063,597.9344,475.3063,599.5344,473.7063,597.9344" style="stroke:#181818;stroke-width:0.4000000000000001;"/><line style="stroke:#181818;stroke-width:0.4000000000000001;stroke-dasharray:2.0,2.0;" x1="472.9063" x2="772.2383" y1="597.9344" y2="597.9344"/><polygon fill="#181818" points="647.6869,608.8508,651.6869,610.4508,647.6869,612.0508,649.2869,610.4508" style="stroke:#181818;stroke-width:0.4000000000000001;"/><line style="stroke:#181818;stroke-width:0.4000000000000001;" x1="470.9063" x2="650.0869" y1="610.4508" y2="610.4508"/><text fill="#000000" font-family="sans-serif" font-size="5.2" lengthAdjust="spacing" textLength="42.1891" x="540.6021" y="608.3457">CommandResult()</text><rect fill="#3333C4" height="13.0484" rx="1" ry="1" style="stroke:#181818;stroke-width:0.20000000000000004;" width="89.3211" x="652.4869" y="601.1344"/><text fill="#FFFFFF" font-family="sans-serif" font-size="5.6" lengthAdjust="spacing" textLength="83.7211" x="655.2869" y="609.9773">commandResult:CommandResult</text><polygon fill="#181818" points="475.3063,619.3828,471.3063,620.9828,475.3063,622.5828,473.7063,620.9828" style="stroke:#181818;stroke-width:0.4000000000000001;"/><line style="stroke:#181818;stroke-width:0.4000000000000001;stroke-dasharray:2.0,2.0;" x1="472.9063" x2="696.7475" y1="620.9828" y2="620.9828"/><polygon fill="#181818" points="55.5307,631.8992,51.5307,633.4992,55.5307,635.0992,53.9307,633.4992" style="stroke:#181818;stroke-width:0.4000000000000001;"/><line style="stroke:#181818;stroke-width:0.4000000000000001;stroke-dasharray:2.0,2.0;" x1="53.1307" x2="468.5063" y1="633.4992" y2="633.4992"/><text fill="#000000" font-family="sans-serif" font-size="5.2" lengthAdjust="spacing" textLength="37.5705" x="241.2332" y="631.3941">commandResult</text><polygon fill="#181818" points="4.4,637.4992,0.4,639.0992,4.4,640.6992,2.8,639.0992" style="stroke:#181818;stroke-width:0.4000000000000001;"/><line style="stroke:#181818;stroke-width:0.4000000000000001;stroke-dasharray:2.0,2.0;" x1="2" x2="48.7307" y1="639.0992" y2="639.0992"/><!--SRC=[xLXHRziW47xdLx2yB9MMJ7krgaXPcgwLt2PA8ksXcY9gqmJLDXQGhVtt0u8JC91cNJL5Mls4ZxlllZiE3li3gR9YasFOxt_cuhd0_NfJ5e0_agf639Lmo1ZzTKahCLUpi2uGgG2ufqymfIkImNJoxNgq74tIoMov-0AaaI0PgL4bOATG6edMkq4LMc7MWOX3Ms3RkyOepndc_2kbZrF4E6R9i2tHQ9uq3fcCSo96j2nHbLi8dZIEWANgNCXyLU82yuoHMb2cOJtf3jgRYSDdMnOsppR3k37V-acCFsrenYzwd66-AKGoijyqW2DnOB3a8ijWMmitDCS5l9bSZDD8BPHA8z5w6jYps0FUzGPkZIGGF-5i8t1NBu2irNxd3A1Ca9z8O4SN0CTI8ldraS1Q3KneOKpF2e2COJNZLGlmFKYtVb4blgnhUVHnWO_H2mK4Sdm8vMXwEYlTphdU-5XWnWUTmmIjb7XL7c8_Y6o892nlfyVt0S9ulL24xJH5q8wcpB6ubNawUP96V9sVFDFfcbQddyznYKXnyYolf69n-ibSREIGe8B_SwR-SHudtoY4pa8dvZ0R6Qhfiv6Z-kYZ_aKa4_x7AvBBW25IjpSeAAmf9uBG2eerXZdcWj5dM2BsA37lSQ6Kv8HgmVH13msuChb7h1yYUBVMJdv4UjBMnt4DoU_uWJ03FRdTxEsbsDyQzDtZx9ZL6vXxIG9NM5oIGZP1d9lYIGaNTfLgJG2s1grrjsaRlPOVb-cs69LivwvhxdCBgiIVOF3gUMHGiGsuUjiMzcVdmpknTsB_5p7JSinCcsVphPOq8vjPOmCQhGFUTxe76fFglaRjY9Pa7unhn0Fy_kumt8U-Ybm9NXL_GMaD7-HIoRar50PNTJWJk-gCwbm5K3xnU1j6tGRYJ1kqWrAoS0BKZ9S474ZoFX7yBHCH2Mt_SH1gDhjEz6RBtFZTrBbK2hNNwMnySJqQBiRB-TNa-tAOfilfU3QVtCvVJyBiEkTFHfkP-viZST_jzBiemBKxmALbrzwPuSkFqOvjqBlpNi_vzs4fslBV]--></g></svg>
