<svg xmlns="http://www.w3.org/2000/svg" xmlns:xlink="http://www.w3.org/1999/xlink" contentStyleType="text/css" height="1803px" preserveAspectRatio="none" style="width:2117px;height:1803px;background:#FFFFFF;" version="1.1" viewBox="0 0 2117 1803" width="2117px" zoomAndPan="magnify"><defs/><g><rect fill="#C8C8FA" height="1784.9121" style="stroke:#181818;stroke-width:0.5;" width="1827.3965" x="41.1235" y="6"/><text fill="#FFFFFF" font-family="sans-serif" font-size="13" font-weight="bold" lengthAdjust="spacing" textLength="34.6646" x="935.6836" y="20.0283">Logic</text><rect fill="#F97181" height="1784.9121" style="stroke:#181818;stroke-width:0.5;" width="122.1514" x="1870.52" y="6"/><text fill="#FFFFFF" font-family="sans-serif" font-size="13" font-weight="bold" lengthAdjust="spacing" textLength="37.5527" x="1911.0134" y="20.0283">Model</text><rect fill="#FFFFFF" height="1684.709" style="stroke:#181818;stroke-width:1.0;" width="10" x="117.8267" y="94.2031"/><rect fill="#FFFFFF" height="615.0645" style="stroke:#181818;stroke-width:1.0;" width="10" x="348.2017" y="125.4941"/><rect fill="#FFFFFF" height="16.3301" style="stroke:#181818;stroke-width:1.0;" width="10" x="590.4297" y="166.7852"/><rect fill="#FFFFFF" height="480.8613" style="stroke:#181818;stroke-width:1.0;" width="10" x="590.4297" y="214.4063"/><rect fill="#FFFFFF" height="16.3301" style="stroke:#181818;stroke-width:1.0;" width="10" x="908.8872" y="255.6973"/><rect fill="#FFFFFF" height="14" style="stroke:#181818;stroke-width:1.0;" width="10" x="908.8872" y="303.3184"/><rect fill="#FFFFFF" height="14" style="stroke:#181818;stroke-width:1.0;" width="10" x="908.8872" y="348.6094"/><rect fill="#FFFFFF" height="14" style="stroke:#181818;stroke-width:1.0;" width="10" x="908.8872" y="393.9004"/><rect fill="#FFFFFF" height="14" style="stroke:#181818;stroke-width:1.0;" width="10" x="908.8872" y="439.1914"/><rect fill="#FFFFFF" height="14" style="stroke:#181818;stroke-width:1.0;" width="10" x="908.8872" y="484.4824"/><rect fill="#FFFFFF" height="14" style="stroke:#181818;stroke-width:1.0;" width="10" x="908.8872" y="529.7734"/><rect fill="#FFFFFF" height="14" style="stroke:#181818;stroke-width:1.0;" width="10" x="908.8872" y="575.0645"/><rect fill="#FFFFFF" height="14" style="stroke:#181818;stroke-width:1.0;" width="10" x="908.8872" y="892.7227"/><rect fill="#FFFFFF" height="14" style="stroke:#181818;stroke-width:1.0;" width="10" x="908.8872" y="938.0137"/><rect fill="#FFFFFF" height="14" style="stroke:#181818;stroke-width:1.0;" width="10" x="908.8872" y="983.3047"/><rect fill="#FFFFFF" height="14" style="stroke:#181818;stroke-width:1.0;" width="10" x="908.8872" y="1028.5957"/><rect fill="#FFFFFF" height="14" style="stroke:#181818;stroke-width:1.0;" width="10" x="908.8872" y="1073.8867"/><rect fill="#FFFFFF" height="14" style="stroke:#181818;stroke-width:1.0;" width="10" x="908.8872" y="1119.1777"/><rect fill="#FFFFFF" height="14" style="stroke:#181818;stroke-width:1.0;" width="10" x="908.8872" y="1164.4688"/><rect fill="#FFFFFF" height="50.9121" style="stroke:#181818;stroke-width:1.0;" width="10" x="1167.2656" y="613.0645"/><rect fill="#FFFFFF" height="993.0625" style="stroke:#181818;stroke-width:1.0;" width="10" x="1167.2656" y="771.8496"/><rect fill="#FFFFFF" height="462.2402" style="stroke:#181818;stroke-width:1.0;" width="10" x="1172.2656" y="856.4316"/><rect fill="#FFFFFF" height="16.3301" style="stroke:#181818;stroke-width:1.0;" width="10" x="1540.1797" y="1265.0508"/><rect fill="#FFFFFF" height="14" style="stroke:#181818;stroke-width:1.0;" width="10" x="1540.1797" y="1447.5449"/><rect fill="#FFFFFF" height="14" style="stroke:#181818;stroke-width:1.0;" width="10" x="1540.1797" y="1571.418"/><rect fill="#FFFFFF" height="16.3301" style="stroke:#181818;stroke-width:1.0;" width="10" x="1737.8687" y="1717.291"/><rect fill="#FFFFFF" height="14" style="stroke:#181818;stroke-width:1.0;" width="10" x="1926.5957" y="803.1406"/><rect fill="#FFFFFF" height="14" style="stroke:#181818;stroke-width:1.0;" width="10" x="1926.5957" y="1356.9629"/><rect fill="#FFFFFF" height="14" style="stroke:#181818;stroke-width:1.0;" width="10" x="1926.5957" y="1402.2539"/><rect fill="#FFFFFF" height="14" style="stroke:#181818;stroke-width:1.0;" width="10" x="1926.5957" y="1519.127"/><rect fill="#FFFFFF" height="14" style="stroke:#181818;stroke-width:1.0;" width="10" x="1926.5957" y="1616.709"/><rect fill="#FFFFFF" height="14" style="stroke:#181818;stroke-width:1.0;" width="10" x="1926.5957" y="1662"/><rect fill="#FFFFFF" height="578.1523" style="stroke:#181818;stroke-width:1.0;" width="10" x="2055.0332" y="1209.7598"/><rect fill="#FFFFFF" height="64.582" style="stroke:#000000;stroke-width:1.5;" width="930.4365" x="1068.2349" y="1476.5449"/><line style="stroke:#181818;stroke-width:0.5;stroke-dasharray:5.0,5.0;" x1="122.1235" x2="122.1235" y1="60.9121" y2="1796.9121"/><line style="stroke:#181818;stroke-width:0.5;stroke-dasharray:5.0,5.0;" x1="352.5298" x2="352.5298" y1="60.9121" y2="1796.9121"/><line style="stroke:#181818;stroke-width:0.5;stroke-dasharray:5.0,5.0;" x1="594.5161" x2="594.5161" y1="165.3047" y2="1796.9121"/><line style="stroke:#181818;stroke-width:0.5;stroke-dasharray:5.0,5.0;" x1="913.5396" x2="913.5396" y1="254.2168" y2="1796.9121"/><line style="stroke:#181818;stroke-width:0.5;stroke-dasharray:5.0,5.0;" x1="1172.2349" x2="1172.2349" y1="628.875" y2="1796.9121"/><line style="stroke:#181818;stroke-width:0.5;stroke-dasharray:5.0,5.0;" x1="1545.1421" x2="1545.1421" y1="1263.5703" y2="1796.9121"/><line style="stroke:#181818;stroke-width:0.5;stroke-dasharray:5.0,5.0;" x1="1742.2173" x2="1742.2173" y1="1715.8105" y2="1796.9121"/><line style="stroke:#181818;stroke-width:0.5;stroke-dasharray:5.0,5.0;" x1="1931.52" x2="1931.52" y1="60.9121" y2="1796.9121"/><line style="stroke:#181818;stroke-width:0.5;stroke-dasharray:5.0,5.0;" x1="2059.6714" x2="2059.6714" y1="60.9121" y2="1796.9121"/><rect fill="#3333C4" height="32.6211" rx="2.5" ry="2.5" style="stroke:#181818;stroke-width:0.5;" width="135.4063" x="55.1235" y="27.291"/><text fill="#FFFFFF" font-family="sans-serif" font-size="14" lengthAdjust="spacing" textLength="121.4063" x="62.1235" y="49.3984">logic:LogicManager</text><rect fill="#3333C4" height="32.6211" rx="2.5" ry="2.5" style="stroke:#181818;stroke-width:0.5;" width="265.3438" x="220.5298" y="27.291"/><text fill="#FFFFFF" font-family="sans-serif" font-size="14" lengthAdjust="spacing" textLength="251.3438" x="227.5298" y="49.3984">addressBookParser:AddressBookParser</text><rect fill="#9D0012" height="32.6211" rx="2.5" ry="2.5" style="stroke:#181818;stroke-width:0.5;" width="94.1514" x="1884.52" y="27.291"/><text fill="#FFFFFF" font-family="sans-serif" font-size="14" lengthAdjust="spacing" textLength="80.1514" x="1891.52" y="49.3984">model:Model</text><rect fill="#E2E2F0" height="32.6211" rx="2.5" ry="2.5" style="stroke:#181818;stroke-width:0.5;" width="102.7236" x="2008.6714" y="27.291"/><text fill="#FFFFFF" font-family="sans-serif" font-size="14" lengthAdjust="spacing" textLength="88.7236" x="2015.6714" y="49.3984">StudentToEdit</text><rect fill="#FFFFFF" height="1684.709" style="stroke:#181818;stroke-width:1.0;" width="10" x="117.8267" y="94.2031"/><rect fill="#FFFFFF" height="615.0645" style="stroke:#181818;stroke-width:1.0;" width="10" x="348.2017" y="125.4941"/><rect fill="#FFFFFF" height="16.3301" style="stroke:#181818;stroke-width:1.0;" width="10" x="590.4297" y="166.7852"/><rect fill="#FFFFFF" height="480.8613" style="stroke:#181818;stroke-width:1.0;" width="10" x="590.4297" y="214.4063"/><rect fill="#FFFFFF" height="16.3301" style="stroke:#181818;stroke-width:1.0;" width="10" x="908.8872" y="255.6973"/><rect fill="#FFFFFF" height="14" style="stroke:#181818;stroke-width:1.0;" width="10" x="908.8872" y="303.3184"/><rect fill="#FFFFFF" height="14" style="stroke:#181818;stroke-width:1.0;" width="10" x="908.8872" y="348.6094"/><rect fill="#FFFFFF" height="14" style="stroke:#181818;stroke-width:1.0;" width="10" x="908.8872" y="393.9004"/><rect fill="#FFFFFF" height="14" style="stroke:#181818;stroke-width:1.0;" width="10" x="908.8872" y="439.1914"/><rect fill="#FFFFFF" height="14" style="stroke:#181818;stroke-width:1.0;" width="10" x="908.8872" y="484.4824"/><rect fill="#FFFFFF" height="14" style="stroke:#181818;stroke-width:1.0;" width="10" x="908.8872" y="529.7734"/><rect fill="#FFFFFF" height="14" style="stroke:#181818;stroke-width:1.0;" width="10" x="908.8872" y="575.0645"/><rect fill="#FFFFFF" height="14" style="stroke:#181818;stroke-width:1.0;" width="10" x="908.8872" y="892.7227"/><rect fill="#FFFFFF" height="14" style="stroke:#181818;stroke-width:1.0;" width="10" x="908.8872" y="938.0137"/><rect fill="#FFFFFF" height="14" style="stroke:#181818;stroke-width:1.0;" width="10" x="908.8872" y="983.3047"/><rect fill="#FFFFFF" height="14" style="stroke:#181818;stroke-width:1.0;" width="10" x="908.8872" y="1028.5957"/><rect fill="#FFFFFF" height="14" style="stroke:#181818;stroke-width:1.0;" width="10" x="908.8872" y="1073.8867"/><rect fill="#FFFFFF" height="14" style="stroke:#181818;stroke-width:1.0;" width="10" x="908.8872" y="1119.1777"/><rect fill="#FFFFFF" height="14" style="stroke:#181818;stroke-width:1.0;" width="10" x="908.8872" y="1164.4688"/><rect fill="#FFFFFF" height="50.9121" style="stroke:#181818;stroke-width:1.0;" width="10" x="1167.2656" y="613.0645"/><rect fill="#FFFFFF" height="993.0625" style="stroke:#181818;stroke-width:1.0;" width="10" x="1167.2656" y="771.8496"/><rect fill="#FFFFFF" height="462.2402" style="stroke:#181818;stroke-width:1.0;" width="10" x="1172.2656" y="856.4316"/><rect fill="#FFFFFF" height="16.3301" style="stroke:#181818;stroke-width:1.0;" width="10" x="1540.1797" y="1265.0508"/><rect fill="#FFFFFF" height="14" style="stroke:#181818;stroke-width:1.0;" width="10" x="1540.1797" y="1447.5449"/><rect fill="#FFFFFF" height="14" style="stroke:#181818;stroke-width:1.0;" width="10" x="1540.1797" y="1571.418"/><rect fill="#FFFFFF" height="16.3301" style="stroke:#181818;stroke-width:1.0;" width="10" x="1737.8687" y="1717.291"/><rect fill="#FFFFFF" height="14" style="stroke:#181818;stroke-width:1.0;" width="10" x="1926.5957" y="803.1406"/><rect fill="#FFFFFF" height="14" style="stroke:#181818;stroke-width:1.0;" width="10" x="1926.5957" y="1356.9629"/><rect fill="#FFFFFF" height="14" style="stroke:#181818;stroke-width:1.0;" width="10" x="1926.5957" y="1402.2539"/><rect fill="#FFFFFF" height="14" style="stroke:#181818;stroke-width:1.0;" width="10" x="1926.5957" y="1519.127"/><rect fill="#FFFFFF" height="14" style="stroke:#181818;stroke-width:1.0;" width="10" x="1926.5957" y="1616.709"/><rect fill="#FFFFFF" height="14" style="stroke:#181818;stroke-width:1.0;" width="10" x="1926.5957" y="1662"/><rect fill="#FFFFFF" height="578.1523" style="stroke:#181818;stroke-width:1.0;" width="10" x="2055.0332" y="1209.7598"/><polygon fill="#181818" points="105.8267,90.2031,115.8267,94.2031,105.8267,98.2031,109.8267,94.2031" style="stroke:#181818;stroke-width:1.0;"/><line style="stroke:#181818;stroke-width:1.0;" x1="0" x2="111.8267" y1="94.2031" y2="94.2031"/><text fill="#000000" font-family="sans-serif" font-size="13" lengthAdjust="spacing" textLength="98.8267" x="9.5" y="88.9404">execute("edit ...")</text><polygon fill="#181818" points="336.2017,121.4941,346.2017,125.4941,336.2017,129.4941,340.2017,125.4941" style="stroke:#181818;stroke-width:1.0;"/><line style="stroke:#181818;stroke-width:1.0;" x1="127.8267" x2="342.2017" y1="125.4941" y2="125.4941"/><text fill="#000000" font-family="sans-serif" font-size="13" lengthAdjust="spacing" textLength="145.7803" x="165.124" y="120.2314">parseCommand("edit ...")</text><polygon fill="#181818" points="509.5161,152.7852,519.5161,156.7852,509.5161,160.7852,513.5161,156.7852" style="stroke:#181818;stroke-width:1.0;"/><line style="stroke:#181818;stroke-width:1.0;" x1="358.2017" x2="515.5161" y1="156.7852" y2="156.7852"/><text fill="#000000" font-family="sans-serif" font-size="13" lengthAdjust="spacing" textLength="129.3145" x="375.2017" y="151.5225">EditCommandParser()</text><rect fill="#3333C4" height="32.6211" rx="2.5" ry="2.5" style="stroke:#181818;stroke-width:0.5;" width="147.8271" x="521.5161" y="133.4941"/><text fill="#FFFFFF" font-family="sans-serif" font-size="14" lengthAdjust="spacing" textLength="133.8271" x="528.5161" y="155.6016">:EditCommandParser</text><polygon fill="#181818" points="369.2017,179.1152,359.2017,183.1152,369.2017,187.1152,365.2017,183.1152" style="stroke:#181818;stroke-width:1.0;"/><line style="stroke:#181818;stroke-width:1.0;stroke-dasharray:2.0,2.0;" x1="363.2017" x2="594.4297" y1="183.1152" y2="183.1152"/><polygon fill="#181818" points="578.4297,210.4063,588.4297,214.4063,578.4297,218.4063,582.4297,214.4063" style="stroke:#181818;stroke-width:1.0;"/><line style="stroke:#181818;stroke-width:1.0;" x1="358.2017" x2="584.4297" y1="214.4063" y2="214.4063"/><text fill="#000000" font-family="sans-serif" font-size="13" lengthAdjust="spacing" textLength="131.3394" x="408.646" y="209.1436">parse("&lt;parameters&gt;")</text><polygon fill="#181818" points="757.5396,241.6973,767.5396,245.6973,757.5396,249.6973,761.5396,245.6973" style="stroke:#181818;stroke-width:1.0;"/><line style="stroke:#181818;stroke-width:1.0;" x1="600.4297" x2="763.5396" y1="245.6973" y2="245.6973"/><text fill="#000000" font-family="sans-serif" font-size="13" lengthAdjust="spacing" textLength="135.1099" x="617.4297" y="240.4346">EditStudentDescriptor()</text><rect fill="#3333C4" height="32.6211" rx="2.5" ry="2.5" style="stroke:#181818;stroke-width:0.5;" width="288.6953" x="769.5396" y="222.4063"/><text fill="#FFFFFF" font-family="sans-serif" font-size="14" lengthAdjust="spacing" textLength="274.6953" x="776.5396" y="244.5137">editStudentDescriptor:EditStudentDescriptor</text><polygon fill="#181818" points="611.4297,268.0273,601.4297,272.0273,611.4297,276.0273,607.4297,272.0273" style="stroke:#181818;stroke-width:1.0;"/><line style="stroke:#181818;stroke-width:1.0;stroke-dasharray:2.0,2.0;" x1="605.4297" x2="912.8872" y1="272.0273" y2="272.0273"/><polygon fill="#181818" points="896.8872,299.3184,906.8872,303.3184,896.8872,307.3184,900.8872,303.3184" style="stroke:#181818;stroke-width:1.0;"/><line style="stroke:#181818;stroke-width:1.0;" x1="600.4297" x2="902.8872" y1="303.3184" y2="303.3184"/><text fill="#000000" font-family="sans-serif" font-size="13" lengthAdjust="spacing" textLength="60.6772" x="724.3198" y="298.0557">setName()</text><polygon fill="#181818" points="611.4297,313.3184,601.4297,317.3184,611.4297,321.3184,607.4297,317.3184" style="stroke:#181818;stroke-width:1.0;"/><line style="stroke:#181818;stroke-width:1.0;stroke-dasharray:2.0,2.0;" x1="605.4297" x2="912.8872" y1="317.3184" y2="317.3184"/><polygon fill="#181818" points="896.8872,344.6094,906.8872,348.6094,896.8872,352.6094,900.8872,348.6094" style="stroke:#181818;stroke-width:1.0;"/><line style="stroke:#181818;stroke-width:1.0;" x1="600.4297" x2="902.8872" y1="348.6094" y2="348.6094"/><text fill="#000000" font-family="sans-serif" font-size="13" lengthAdjust="spacing" textLength="81.6563" x="713.8303" y="343.3467">setStudentId()</text><polygon fill="#181818" points="611.4297,358.6094,601.4297,362.6094,611.4297,366.6094,607.4297,362.6094" style="stroke:#181818;stroke-width:1.0;"/><line style="stroke:#181818;stroke-width:1.0;stroke-dasharray:2.0,2.0;" x1="605.4297" x2="912.8872" y1="362.6094" y2="362.6094"/><polygon fill="#181818" points="896.8872,389.9004,906.8872,393.9004,896.8872,397.9004,900.8872,393.9004" style="stroke:#181818;stroke-width:1.0;"/><line style="stroke:#181818;stroke-width:1.0;" x1="600.4297" x2="902.8872" y1="393.9004" y2="393.9004"/><text fill="#000000" font-family="sans-serif" font-size="13" lengthAdjust="spacing" textLength="63.5908" x="722.863" y="388.6377">setPhone()</text><polygon fill="#181818" points="611.4297,403.9004,601.4297,407.9004,611.4297,411.9004,607.4297,407.9004" style="stroke:#181818;stroke-width:1.0;"/><line style="stroke:#181818;stroke-width:1.0;stroke-dasharray:2.0,2.0;" x1="605.4297" x2="912.8872" y1="407.9004" y2="407.9004"/><polygon fill="#181818" points="896.8872,435.1914,906.8872,439.1914,896.8872,443.1914,900.8872,439.1914" style="stroke:#181818;stroke-width:1.0;"/><line style="stroke:#181818;stroke-width:1.0;" x1="600.4297" x2="902.8872" y1="439.1914" y2="439.1914"/><text fill="#000000" font-family="sans-serif" font-size="13" lengthAdjust="spacing" textLength="58.5063" x="725.4053" y="433.9287">setEmail()</text><polygon fill="#181818" points="611.4297,449.1914,601.4297,453.1914,611.4297,457.1914,607.4297,453.1914" style="stroke:#181818;stroke-width:1.0;"/><line style="stroke:#181818;stroke-width:1.0;stroke-dasharray:2.0,2.0;" x1="605.4297" x2="912.8872" y1="453.1914" y2="453.1914"/><polygon fill="#181818" points="896.8872,480.4824,906.8872,484.4824,896.8872,488.4824,900.8872,484.4824" style="stroke:#181818;stroke-width:1.0;"/><line style="stroke:#181818;stroke-width:1.0;" x1="600.4297" x2="902.8872" y1="484.4824" y2="484.4824"/><text fill="#000000" font-family="sans-serif" font-size="13" lengthAdjust="spacing" textLength="67.1963" x="721.0603" y="479.2197">setHandle()</text><polygon fill="#181818" points="611.4297,494.4824,601.4297,498.4824,611.4297,502.4824,607.4297,498.4824" style="stroke:#181818;stroke-width:1.0;"/><line style="stroke:#181818;stroke-width:1.0;stroke-dasharray:2.0,2.0;" x1="605.4297" x2="912.8872" y1="498.4824" y2="498.4824"/><polygon fill="#181818" points="896.8872,525.7734,906.8872,529.7734,896.8872,533.7734,900.8872,529.7734" style="stroke:#181818;stroke-width:1.0;"/><line style="stroke:#181818;stroke-width:1.0;" x1="600.4297" x2="902.8872" y1="529.7734" y2="529.7734"/><text fill="#000000" font-family="sans-serif" font-size="13" lengthAdjust="spacing" textLength="65.7363" x="721.7903" y="524.5107">setDetails()</text><polygon fill="#181818" points="611.4297,539.7734,601.4297,543.7734,611.4297,547.7734,607.4297,543.7734" style="stroke:#181818;stroke-width:1.0;"/><line style="stroke:#181818;stroke-width:1.0;stroke-dasharray:2.0,2.0;" x1="605.4297" x2="912.8872" y1="543.7734" y2="543.7734"/><polygon fill="#181818" points="896.8872,571.0645,906.8872,575.0645,896.8872,579.0645,900.8872,575.0645" style="stroke:#181818;stroke-width:1.0;"/><line style="stroke:#181818;stroke-width:1.0;" x1="600.4297" x2="902.8872" y1="575.0645" y2="575.0645"/><text fill="#000000" font-family="sans-serif" font-size="13" lengthAdjust="spacing" textLength="75.8481" x="716.7344" y="569.8018">setTutorials()</text><polygon fill="#181818" points="611.4297,585.0645,601.4297,589.0645,611.4297,593.0645,607.4297,589.0645" style="stroke:#181818;stroke-width:1.0;"/><line style="stroke:#181818;stroke-width:1.0;stroke-dasharray:2.0,2.0;" x1="605.4297" x2="912.8872" y1="589.0645" y2="589.0645"/><polygon fill="#181818" points="1076.2349,599.0645,1086.2349,603.0645,1076.2349,607.0645,1080.2349,603.0645" style="stroke:#181818;stroke-width:1.0;"/><line style="stroke:#181818;stroke-width:1.0;" x1="600.4297" x2="1082.2349" y1="603.0645" y2="603.0645"/><rect fill="#3333C4" height="32.6211" rx="2.5" ry="2.5" style="stroke:#181818;stroke-width:0.5;" width="168.0615" x="1088.2349" y="597.0645"/><text fill="#FFFFFF" font-family="sans-serif" font-size="14" lengthAdjust="spacing" textLength="154.0615" x="1095.2349" y="619.1719">command:EditCommand</text><polygon fill="#181818" points="611.4297,659.9766,601.4297,663.9766,611.4297,667.9766,607.4297,663.9766" style="stroke:#181818;stroke-width:1.0;"/><line style="stroke:#181818;stroke-width:1.0;stroke-dasharray:2.0,2.0;" x1="605.4297" x2="1171.2656" y1="663.9766" y2="663.9766"/><text fill="#000000" font-family="sans-serif" font-size="13" lengthAdjust="spacing" textLength="57.0781" x="857.8086" y="658.7139">command</text><polygon fill="#181818" points="369.2017,691.2676,359.2017,695.2676,369.2017,699.2676,365.2017,695.2676" style="stroke:#181818;stroke-width:1.0;"/><line style="stroke:#181818;stroke-width:1.0;stroke-dasharray:2.0,2.0;" x1="363.2017" x2="594.4297" y1="695.2676" y2="695.2676"/><text fill="#000000" font-family="sans-serif" font-size="13" lengthAdjust="spacing" textLength="57.0781" x="448.2766" y="690.0049">command</text><line style="stroke:#A80036;stroke-width:2.0;" x1="586.4297" x2="604.4297" y1="700.2676" y2="718.2676"/><line style="stroke:#A80036;stroke-width:2.0;" x1="586.4297" x2="604.4297" y1="718.2676" y2="700.2676"/><polygon fill="#181818" points="138.8267,736.5586,128.8267,740.5586,138.8267,744.5586,134.8267,740.5586" style="stroke:#181818;stroke-width:1.0;"/><line style="stroke:#181818;stroke-width:1.0;stroke-dasharray:2.0,2.0;" x1="132.8267" x2="352.2017" y1="740.5586" y2="740.5586"/><text fill="#000000" font-family="sans-serif" font-size="13" lengthAdjust="spacing" textLength="57.0781" x="211.9751" y="735.2959">command</text><polygon fill="#181818" points="1155.2656,767.8496,1165.2656,771.8496,1155.2656,775.8496,1159.2656,771.8496" style="stroke:#181818;stroke-width:1.0;"/><line style="stroke:#181818;stroke-width:1.0;" x1="127.8267" x2="1161.2656" y1="771.8496" y2="771.8496"/><text fill="#000000" font-family="sans-serif" font-size="13" lengthAdjust="spacing" textLength="89.5972" x="602.7476" y="766.5869">execute(model)</text><polygon fill="#181818" points="1914.5957,799.1406,1924.5957,803.1406,1914.5957,807.1406,1918.5957,803.1406" style="stroke:#181818;stroke-width:1.0;"/><line style="stroke:#181818;stroke-width:1.0;" x1="1177.2656" x2="1920.5957" y1="803.1406" y2="803.1406"/><text fill="#000000" font-family="sans-serif" font-size="13" lengthAdjust="spacing" textLength="135.1226" x="1484.3694" y="797.8779">getFilteredStudentList()</text><polygon fill="#181818" points="1188.2656,813.1406,1178.2656,817.1406,1188.2656,821.1406,1184.2656,817.1406" style="stroke:#181818;stroke-width:1.0;"/><line style="stroke:#181818;stroke-width:1.0;stroke-dasharray:2.0,2.0;" x1="1182.2656" x2="1930.5957" y1="817.1406" y2="817.1406"/><line style="stroke:#181818;stroke-width:1.0;" x1="1177.2656" x2="1224.2656" y1="843.4316" y2="843.4316"/><line style="stroke:#181818;stroke-width:1.0;" x1="1224.2656" x2="1224.2656" y1="843.4316" y2="856.4316"/><line style="stroke:#181818;stroke-width:1.0;" x1="1183.2656" x2="1224.2656" y1="856.4316" y2="856.4316"/><polygon fill="#181818" points="1193.2656,852.4316,1183.2656,856.4316,1193.2656,860.4316,1189.2656,856.4316" style="stroke:#181818;stroke-width:1.0;"/><text fill="#000000" font-family="sans-serif" font-size="13" lengthAdjust="spacing" textLength="338.9141" x="1189.2656" y="838.1689">createEditedStudent(studentToEdit, editStudentDescriptor)</text><polygon fill="#181818" points="929.8872,888.7227,919.8872,892.7227,929.8872,896.7227,925.8872,892.7227" style="stroke:#181818;stroke-width:1.0;"/><line style="stroke:#181818;stroke-width:1.0;" x1="923.8872" x2="1171.2656" y1="892.7227" y2="892.7227"/><text fill="#000000" font-family="sans-serif" font-size="13" lengthAdjust="spacing" textLength="61.4072" x="1014.8728" y="887.46">getName()</text><polygon fill="#181818" points="1160.2656,902.7227,1170.2656,906.7227,1160.2656,910.7227,1164.2656,906.7227" style="stroke:#181818;stroke-width:1.0;"/><line style="stroke:#181818;stroke-width:1.0;stroke-dasharray:2.0,2.0;" x1="913.8872" x2="1166.2656" y1="906.7227" y2="906.7227"/><polygon fill="#181818" points="929.8872,934.0137,919.8872,938.0137,929.8872,942.0137,925.8872,938.0137" style="stroke:#181818;stroke-width:1.0;"/><line style="stroke:#181818;stroke-width:1.0;" x1="923.8872" x2="1171.2656" y1="938.0137" y2="938.0137"/><text fill="#000000" font-family="sans-serif" font-size="13" lengthAdjust="spacing" textLength="82.3862" x="1004.3833" y="932.751">getStudentId()</text><polygon fill="#181818" points="1160.2656,948.0137,1170.2656,952.0137,1160.2656,956.0137,1164.2656,952.0137" style="stroke:#181818;stroke-width:1.0;"/><line style="stroke:#181818;stroke-width:1.0;stroke-dasharray:2.0,2.0;" x1="913.8872" x2="1166.2656" y1="952.0137" y2="952.0137"/><polygon fill="#181818" points="929.8872,979.3047,919.8872,983.3047,929.8872,987.3047,925.8872,983.3047" style="stroke:#181818;stroke-width:1.0;"/><line style="stroke:#181818;stroke-width:1.0;" x1="923.8872" x2="1171.2656" y1="983.3047" y2="983.3047"/><text fill="#000000" font-family="sans-serif" font-size="13" lengthAdjust="spacing" textLength="64.3208" x="1013.416" y="978.042">getPhone()</text><polygon fill="#181818" points="1160.2656,993.3047,1170.2656,997.3047,1160.2656,1001.3047,1164.2656,997.3047" style="stroke:#181818;stroke-width:1.0;"/><line style="stroke:#181818;stroke-width:1.0;stroke-dasharray:2.0,2.0;" x1="913.8872" x2="1166.2656" y1="997.3047" y2="997.3047"/><polygon fill="#181818" points="929.8872,1024.5957,919.8872,1028.5957,929.8872,1032.5957,925.8872,1028.5957" style="stroke:#181818;stroke-width:1.0;"/><line style="stroke:#181818;stroke-width:1.0;" x1="923.8872" x2="1171.2656" y1="1028.5957" y2="1028.5957"/><text fill="#000000" font-family="sans-serif" font-size="13" lengthAdjust="spacing" textLength="59.2363" x="1015.9583" y="1023.333">getEmail()</text><polygon fill="#181818" points="1160.2656,1038.5957,1170.2656,1042.5957,1160.2656,1046.5957,1164.2656,1042.5957" style="stroke:#181818;stroke-width:1.0;"/><line style="stroke:#181818;stroke-width:1.0;stroke-dasharray:2.0,2.0;" x1="913.8872" x2="1166.2656" y1="1042.5957" y2="1042.5957"/><polygon fill="#181818" points="929.8872,1069.8867,919.8872,1073.8867,929.8872,1077.8867,925.8872,1073.8867" style="stroke:#181818;stroke-width:1.0;"/><line style="stroke:#181818;stroke-width:1.0;" x1="923.8872" x2="1171.2656" y1="1073.8867" y2="1073.8867"/><text fill="#000000" font-family="sans-serif" font-size="13" lengthAdjust="spacing" textLength="67.9263" x="1011.6133" y="1068.624">getHandle()</text><polygon fill="#181818" points="1160.2656,1083.8867,1170.2656,1087.8867,1160.2656,1091.8867,1164.2656,1087.8867" style="stroke:#181818;stroke-width:1.0;"/><line style="stroke:#181818;stroke-width:1.0;stroke-dasharray:2.0,2.0;" x1="913.8872" x2="1166.2656" y1="1087.8867" y2="1087.8867"/><polygon fill="#181818" points="929.8872,1115.1777,919.8872,1119.1777,929.8872,1123.1777,925.8872,1119.1777" style="stroke:#181818;stroke-width:1.0;"/><line style="stroke:#181818;stroke-width:1.0;" x1="923.8872" x2="1171.2656" y1="1119.1777" y2="1119.1777"/><text fill="#000000" font-family="sans-serif" font-size="13" lengthAdjust="spacing" textLength="66.4663" x="1012.3433" y="1113.915">getDetails()</text><polygon fill="#181818" points="1160.2656,1129.1777,1170.2656,1133.1777,1160.2656,1137.1777,1164.2656,1133.1777" style="stroke:#181818;stroke-width:1.0;"/><line style="stroke:#181818;stroke-width:1.0;stroke-dasharray:2.0,2.0;" x1="913.8872" x2="1166.2656" y1="1133.1777" y2="1133.1777"/><polygon fill="#181818" points="929.8872,1160.4688,919.8872,1164.4688,929.8872,1168.4688,925.8872,1164.4688" style="stroke:#181818;stroke-width:1.0;"/><line style="stroke:#181818;stroke-width:1.0;" x1="923.8872" x2="1171.2656" y1="1164.4688" y2="1164.4688"/><text fill="#000000" font-family="sans-serif" font-size="13" lengthAdjust="spacing" textLength="76.5781" x="1007.2874" y="1159.2061">getTutorials()</text><polygon fill="#181818" points="1160.2656,1174.4688,1170.2656,1178.4688,1160.2656,1182.4688,1164.2656,1178.4688" style="stroke:#181818;stroke-width:1.0;"/><line style="stroke:#181818;stroke-width:1.0;stroke-dasharray:2.0,2.0;" x1="913.8872" x2="1166.2656" y1="1178.4688" y2="1178.4688"/><polygon fill="#181818" points="2043.0332,1205.7598,2053.0332,1209.7598,2043.0332,1213.7598,2047.0332,1209.7598" style="stroke:#181818;stroke-width:1.0;"/><line style="stroke:#181818;stroke-width:1.0;" x1="1182.2656" x2="2049.0332" y1="1209.7598" y2="1209.7598"/><text fill="#000000" font-family="sans-serif" font-size="13" lengthAdjust="spacing" textLength="99.0044" x="1569.1472" y="1204.4971">getAttendances()</text><polygon fill="#181818" points="1160.2656,1219.7598,1170.2656,1223.7598,1160.2656,1227.7598,1164.2656,1223.7598" style="stroke:#181818;stroke-width:1.0;"/><line style="stroke:#181818;stroke-width:1.0;stroke-dasharray:2.0,2.0;" x1="913.8872" x2="1166.2656" y1="1223.7598" y2="1223.7598"/><polygon fill="#181818" points="1477.1421,1251.0508,1487.1421,1255.0508,1477.1421,1259.0508,1481.1421,1255.0508" style="stroke:#181818;stroke-width:1.0;"/><line style="stroke:#181818;stroke-width:1.0;" x1="1182.2656" x2="1483.1421" y1="1255.0508" y2="1255.0508"/><text fill="#000000" font-family="sans-serif" font-size="13" lengthAdjust="spacing" textLength="53.4727" x="1308.9675" y="1249.7881">Student()</text><rect fill="#3333C4" height="32.6211" rx="2.5" ry="2.5" style="stroke:#181818;stroke-width:0.5;" width="112.0752" x="1489.1421" y="1231.7598"/><text fill="#FFFFFF" font-family="sans-serif" font-size="14" lengthAdjust="spacing" textLength="98.0752" x="1496.1421" y="1253.8672">student:Student</text><polygon fill="#181818" points="1193.2656,1277.3809,1183.2656,1281.3809,1193.2656,1285.3809,1189.2656,1281.3809" style="stroke:#181818;stroke-width:1.0;"/><line style="stroke:#181818;stroke-width:1.0;stroke-dasharray:2.0,2.0;" x1="1187.2656" x2="1544.1797" y1="1281.3809" y2="1281.3809"/><line style="stroke:#181818;stroke-width:1.0;stroke-dasharray:2.0,2.0;" x1="1182.2656" x2="1224.2656" y1="1317.6719" y2="1317.6719"/><line style="stroke:#181818;stroke-width:1.0;stroke-dasharray:2.0,2.0;" x1="1224.2656" x2="1224.2656" y1="1317.6719" y2="1330.6719"/><line style="stroke:#181818;stroke-width:1.0;stroke-dasharray:2.0,2.0;" x1="1177.2656" x2="1224.2656" y1="1330.6719" y2="1330.6719"/><polygon fill="#181818" points="1187.2656,1326.6719,1177.2656,1330.6719,1187.2656,1334.6719,1183.2656,1330.6719" style="stroke:#181818;stroke-width:1.0;"/><text fill="#000000" font-family="sans-serif" font-size="13" lengthAdjust="spacing" textLength="42.6436" x="1189.2656" y="1312.4092">student</text><polygon fill="#181818" points="1914.5957,1352.9629,1924.5957,1356.9629,1914.5957,1360.9629,1918.5957,1356.9629" style="stroke:#181818;stroke-width:1.0;"/><line style="stroke:#181818;stroke-width:1.0;" x1="1177.2656" x2="1920.5957" y1="1356.9629" y2="1356.9629"/><text fill="#000000" font-family="sans-serif" font-size="13" lengthAdjust="spacing" textLength="93.1963" x="1505.3325" y="1351.7002">isSamePerson()</text><polygon fill="#181818" points="1188.2656,1366.9629,1178.2656,1370.9629,1188.2656,1374.9629,1184.2656,1370.9629" style="stroke:#181818;stroke-width:1.0;"/><line style="stroke:#181818;stroke-width:1.0;stroke-dasharray:2.0,2.0;" x1="1182.2656" x2="1930.5957" y1="1370.9629" y2="1370.9629"/><polygon fill="#181818" points="1914.5957,1398.2539,1924.5957,1402.2539,1914.5957,1406.2539,1918.5957,1402.2539" style="stroke:#181818;stroke-width:1.0;"/><line style="stroke:#181818;stroke-width:1.0;" x1="1177.2656" x2="1920.5957" y1="1402.2539" y2="1402.2539"/><text fill="#000000" font-family="sans-serif" font-size="13" lengthAdjust="spacing" textLength="74.4326" x="1514.7144" y="1396.9912">hasStudent()</text><polygon fill="#181818" points="1188.2656,1412.2539,1178.2656,1416.2539,1188.2656,1420.2539,1184.2656,1416.2539" style="stroke:#181818;stroke-width:1.0;"/><line style="stroke:#181818;stroke-width:1.0;stroke-dasharray:2.0,2.0;" x1="1182.2656" x2="1930.5957" y1="1416.2539" y2="1416.2539"/><polygon fill="#181818" points="1528.1797,1443.5449,1538.1797,1447.5449,1528.1797,1451.5449,1532.1797,1447.5449" style="stroke:#181818;stroke-width:1.0;"/><line style="stroke:#181818;stroke-width:1.0;" x1="1177.2656" x2="1534.1797" y1="1447.5449" y2="1447.5449"/><text fill="#000000" font-family="sans-serif" font-size="13" lengthAdjust="spacing" textLength="76.5781" x="1320.4336" y="1442.2822">getTutorials()</text><polygon fill="#181818" points="1188.2656,1457.5449,1178.2656,1461.5449,1188.2656,1465.5449,1184.2656,1461.5449" style="stroke:#181818;stroke-width:1.0;"/><line style="stroke:#181818;stroke-width:1.0;stroke-dasharray:2.0,2.0;" x1="1182.2656" x2="1544.1797" y1="1461.5449" y2="1461.5449"/><path d="M1068.2349,1476.5449 L1140.6694,1476.5449 L1140.6694,1485.8359 L1130.6694,1495.8359 L1068.2349,1495.8359 L1068.2349,1476.5449 " fill="#EEEEEE" style="stroke:#000000;stroke-width:1.5;"/><rect fill="none" height="64.582" style="stroke:#000000;stroke-width:1.5;" width="930.4365" x="1068.2349" y="1476.5449"/><text fill="#000000" font-family="sans-serif" font-size="13" font-weight="bold" lengthAdjust="spacing" textLength="27.4346" x="1083.2349" y="1491.5732">loop</text><text fill="#000000" font-family="sans-serif" font-size="11" font-weight="bold" lengthAdjust="spacing" textLength="182.7139" x="1155.6694" y="1490.415">[for each tutorial of student to edit]</text><polygon fill="#181818" points="1914.5957,1515.127,1924.5957,1519.127,1914.5957,1523.127,1918.5957,1519.127" style="stroke:#181818;stroke-width:1.0;"/><line style="stroke:#181818;stroke-width:1.0;" x1="1177.2656" x2="1920.5957" y1="1519.127" y2="1519.127"/><text fill="#000000" font-family="sans-serif" font-size="13" lengthAdjust="spacing" textLength="111.9854" x="1495.938" y="1513.8643">hasTutorial(tutorial)</text><polygon fill="#181818" points="1188.2656,1529.127,1178.2656,1533.127,1188.2656,1537.127,1184.2656,1533.127" style="stroke:#181818;stroke-width:1.0;"/><line style="stroke:#181818;stroke-width:1.0;stroke-dasharray:2.0,2.0;" x1="1182.2656" x2="1930.5957" y1="1533.127" y2="1533.127"/><polygon fill="#181818" points="1528.1797,1567.418,1538.1797,1571.418,1528.1797,1575.418,1532.1797,1571.418" style="stroke:#181818;stroke-width:1.0;"/><line style="stroke:#181818;stroke-width:1.0;" x1="1177.2656" x2="1534.1797" y1="1571.418" y2="1571.418"/><text fill="#000000" font-family="sans-serif" font-size="13" lengthAdjust="spacing" textLength="75.8481" x="1320.7986" y="1566.1553">setTutorials()</text><polygon fill="#181818" points="1188.2656,1581.418,1178.2656,1585.418,1188.2656,1589.418,1184.2656,1585.418" style="stroke:#181818;stroke-width:1.0;"/><line style="stroke:#181818;stroke-width:1.0;stroke-dasharray:2.0,2.0;" x1="1182.2656" x2="1544.1797" y1="1585.418" y2="1585.418"/><polygon fill="#181818" points="1914.5957,1612.709,1924.5957,1616.709,1914.5957,1620.709,1918.5957,1616.709" style="stroke:#181818;stroke-width:1.0;"/><line style="stroke:#181818;stroke-width:1.0;" x1="1177.2656" x2="1920.5957" y1="1616.709" y2="1616.709"/><text fill="#000000" font-family="sans-serif" font-size="13" lengthAdjust="spacing" textLength="238.4878" x="1432.6868" y="1611.4463">setStudent(studentToEdit, editedStudent)</text><polygon fill="#181818" points="1188.2656,1626.709,1178.2656,1630.709,1188.2656,1634.709,1184.2656,1630.709" style="stroke:#181818;stroke-width:1.0;"/><line style="stroke:#181818;stroke-width:1.0;stroke-dasharray:2.0,2.0;" x1="1182.2656" x2="1930.5957" y1="1630.709" y2="1630.709"/><polygon fill="#181818" points="1914.5957,1658,1924.5957,1662,1914.5957,1666,1918.5957,1662" style="stroke:#181818;stroke-width:1.0;"/><line style="stroke:#181818;stroke-width:1.0;" x1="1177.2656" x2="1920.5957" y1="1662" y2="1662"/><text fill="#000000" font-family="sans-serif" font-size="13" lengthAdjust="spacing" textLength="380.0469" x="1361.9072" y="1656.7373">updateFilteredStudentList(PREDICATE_SHOW_ALL_STUDENTS)</text><polygon fill="#181818" points="1188.2656,1672,1178.2656,1676,1188.2656,1680,1184.2656,1676" style="stroke:#181818;stroke-width:1.0;"/><line style="stroke:#181818;stroke-width:1.0;stroke-dasharray:2.0,2.0;" x1="1182.2656" x2="1930.5957" y1="1676" y2="1676"/><polygon fill="#181818" points="1619.2173,1703.291,1629.2173,1707.291,1619.2173,1711.291,1623.2173,1707.291" style="stroke:#181818;stroke-width:1.0;"/><line style="stroke:#181818;stroke-width:1.0;" x1="1177.2656" x2="1625.2173" y1="1707.291" y2="1707.291"/><text fill="#000000" font-family="sans-serif" font-size="13" lengthAdjust="spacing" textLength="105.4727" x="1351.5051" y="1702.0283">CommandResult()</text><rect fill="#3333C4" height="32.6211" rx="2.5" ry="2.5" style="stroke:#181818;stroke-width:0.5;" width="223.3027" x="1631.2173" y="1684"/><text fill="#FFFFFF" font-family="sans-serif" font-size="14" lengthAdjust="spacing" textLength="209.3027" x="1638.2173" y="1706.1074">commandResult:CommandResult</text><polygon fill="#181818" points="1188.2656,1729.6211,1178.2656,1733.6211,1188.2656,1737.6211,1184.2656,1733.6211" style="stroke:#181818;stroke-width:1.0;"/><line style="stroke:#181818;stroke-width:1.0;stroke-dasharray:2.0,2.0;" x1="1182.2656" x2="1741.8687" y1="1733.6211" y2="1733.6211"/><polygon fill="#181818" points="138.8267,1760.9121,128.8267,1764.9121,138.8267,1768.9121,134.8267,1764.9121" style="stroke:#181818;stroke-width:1.0;"/><line style="stroke:#181818;stroke-width:1.0;stroke-dasharray:2.0,2.0;" x1="132.8267" x2="1171.2656" y1="1764.9121" y2="1764.9121"/><text fill="#000000" font-family="sans-serif" font-size="13" lengthAdjust="spacing" textLength="93.9263" x="603.083" y="1759.6494">commandResult</text><polygon fill="#181818" points="11,1774.9121,1,1778.9121,11,1782.9121,7,1778.9121" style="stroke:#181818;stroke-width:1.0;"/><line style="stroke:#181818;stroke-width:1.0;stroke-dasharray:2.0,2.0;" x1="5" x2="121.8267" y1="1778.9121" y2="1778.9121"/><!--SRC=[pLXHRzem47xth_1u6PK6qrwZ2ea1NIlHWW1f3sX2RkA2rH17iTdQVp_RCM37DgMTfS5JEDzzzztvxBla4odIV9TXsEr-PVmrnzrojyq1UoP5YIgqXVsgedzkQC7dSXMMEI8508_q1OxfcgHmFFbnDrWD9kF9RBNu1eGH9oafKS5XAvSQYTAxHmLQuwe54OEcmBItZL6MLPYnxvG-Jr75S9NqcnA5vaZ3aCae8tn0jrjKP0Q28mqZOA4wvo9V1HzYbbQavBHIi8xq0EsiXE7JceN9iyamRCngFudsfmpryviUPvZjSfuCp7yAm99OC5Xm4MLGry8zpN0ExoV3qJXG2rkfaIWz1UnO706NdPvT8md4BpZTSTnM6o1gjTkw0YZbv3VYsD85mB8KI6vz9B2K3peqFwPZ1K1QORdYL0jmFGYtRb4bhgnjU7HnWOlHyGK4CdmAvMnwAYljrhKw-9ZZYlLQfmaQAN6gtCU-5pWGYL_UJ8_h0_ZnEhu8csaAe9rDcM7-8F9qyIIr-2wxUARJ3IqkFv-ZBIBvnREy5OhvvITpYBd89hjudekTU2JeFp1rsqwO_5x1TsTRCVlPY53rF11eAMUtf3UHTFYVRqac0eP8JfcGKrXIHZYX1UGR33FCU4LVuHPLpmBp4UTIIIp8KO4-gKSDBaqUKTNr4Lnkb9DVWTvP-pYlSRgJYITCp-pG74hChJXEDsf6kZfdztfwVahW6lCRaejcZJDTF6F2k5cbIXE0sg2nxoPjhTVmOpEjYr7A3kxQUkvSK2d-0hqZyfb1XGxWEcwhVT_zy0QnwEqrAhkeBJKgiwXjD2gpkAqpAhN8xJ8gj-WjyltivkPLLBFgSoww1IfIRF6oDEFnqSrQhmJe2MBxkzDb1C1UwuJtW-w9bYxd5grsHZCtMmfXSt7PJiNx7otYDP8z-WOnJ_J_XdrCRAWEFvJTdD8IFeb246iRo3Mkd3nqPkN48liTWE8NZdVFgBs7k586pQ2ap9y0kU8a0Nksy9W85ZCHWT2EBvU-8U0m8KGleLsP2INVs3ETZOPtW_vYj9hVJdwk-kFnQZgQpISFyu-Jq6VQ-XBMP6P_9ali_sRwRHHWsvtWqh1hddl_KAgrGyT_UTtfMD_E34LJ_XS0]--></g></svg>
