<svg xmlns="http://www.w3.org/2000/svg" xmlns:xlink="http://www.w3.org/1999/xlink" contentStyleType="text/css" height="460px" preserveAspectRatio="none" style="width:516px;height:460px;background:#FFFFFF;" version="1.1" viewBox="0 0 516 460" width="516px" zoomAndPan="magnify"><defs/><g><!--class Tutorial--><g id="elem_Tutorial"><rect codeLine="17" fill="#9D0012" height="51.3472" id="Tutorial" rx="2.5" ry="2.5" style="stroke:#FFFFFF;stroke-width:1.0;" width="91.3721" x="26" y="89.77"/><text fill="#FFFFFF" font-family="Arial" font-size="15" lengthAdjust="spacing" textLength="50.0171" x="46.6775" y="108.8398">Tutorial</text><line style="stroke:#FFFFFF;stroke-width:1.0;" x1="27" x2="116.3721" y1="117.0185" y2="117.0185"/><text fill="#FFFFFF" font-family="sans-serif" font-size="14" lengthAdjust="spacing" textLength="79.3721" x="32" y="134.1504">name: String</text></g><!--class Student--><g id="elem_Student"><rect codeLine="8" fill="#9D0012" height="131.8403" id="Student" rx="2.5" ry="2.5" style="stroke:#FFFFFF;stroke-width:1.0;" width="165.3164" x="192" y="49.27"/><text fill="#FFFFFF" font-family="Arial" font-size="15" lengthAdjust="spacing" textLength="51.709" x="248.8037" y="68.3398">Student</text><line style="stroke:#FFFFFF;stroke-width:1.0;" x1="193" x2="356.3164" y1="76.5185" y2="76.5185"/><text fill="#FFFFFF" font-family="sans-serif" font-size="14" lengthAdjust="spacing" textLength="80.1445" x="198" y="93.6504">name: Name</text><text fill="#FFFFFF" font-family="sans-serif" font-size="14" lengthAdjust="spacing" textLength="127.6406" x="198" y="109.749">studentId: StudentID</text><text fill="#FFFFFF" font-family="sans-serif" font-size="14" lengthAdjust="spacing" textLength="87.1924" x="198" y="125.8476">phone: Phone</text><text fill="#FFFFFF" font-family="sans-serif" font-size="14" lengthAdjust="spacing" textLength="76.2412" x="198" y="141.9463">email: Email</text><text fill="#FFFFFF" font-family="sans-serif" font-size="14" lengthAdjust="spacing" textLength="153.3164" x="198" y="158.0449">handle: TelegramHandle</text><text fill="#FFFFFF" font-family="sans-serif" font-size="14" lengthAdjust="spacing" textLength="91.041" x="198" y="174.1435">details: Details</text></g><!--class Assignment--><g id="elem_Assignment"><rect codeLine="21" fill="#9D0012" height="51.3472" id="Assignment" rx="2.5" ry="2.5" style="stroke:#FFFFFF;stroke-width:1.0;" width="128.7305" x="7" y="377.27"/><text fill="#FFFFFF" font-family="Arial" font-size="15" lengthAdjust="spacing" textLength="78.3691" x="32.1807" y="396.3398">Assignment</text><line style="stroke:#FFFFFF;stroke-width:1.0;" x1="8" x2="134.7305" y1="404.5185" y2="404.5185"/><text fill="#FFFFFF" font-family="sans-serif" font-size="14" lengthAdjust="spacing" textLength="116.7305" x="13" y="421.6504">dueDate: Datetime</text></g><!--class Attendance--><g id="elem_Attendance"><rect codeLine="25" fill="#9D0012" height="51.3472" id="Attendance" rx="2.5" ry="2.5" style="stroke:#FFFFFF;stroke-width:1.0;" width="211.2334" x="298" y="241.27"/><text fill="#FFFFFF" font-family="Arial" font-size="15" lengthAdjust="spacing" textLength="75.8936" x="365.6699" y="260.3398">Attendance</text><line style="stroke:#FFFFFF;stroke-width:1.0;" x1="299" x2="508.2334" y1="268.5185" y2="268.5185"/><text fill="#FFFFFF" font-family="sans-serif" font-size="14" lengthAdjust="spacing" textLength="199.2334" x="304" y="285.6504">attendances: ArrayList&lt;Integer&gt;</text></g><!--class Submission--><g id="elem_Submission"><rect codeLine="29" fill="#9D0012" height="27.2485" id="Submission" rx="2.5" ry="2.5" style="stroke:#FFFFFF;stroke-width:1.0;" width="83.5342" x="178.5" y="253.27"/><text fill="#FFFFFF" font-family="Arial" font-size="15" lengthAdjust="spacing" textLength="77.5342" x="181.5" y="272.3398">Submission</text></g><!--class State--><g id="elem_State"><rect codeLine="31" fill="#9D0012" height="100.793" id="State" rx="2.5" ry="2.5" style="stroke:#FFFFFF;stroke-width:1.0;" width="130.2275" x="171.5" y="352.27"/><text fill="#FFFFFF" font-family="Arial" font-size="15" lengthAdjust="spacing" textLength="100.0708" x="186.5784" y="371.3398">&#171;enumeration&#187;</text><text fill="#FFFFFF" font-family="Arial" font-size="15" lengthAdjust="spacing" textLength="120.0586" x="176.5845" y="388.5884">SubmissionStatus</text><line style="stroke:#FFFFFF;stroke-width:1.0;" x1="172.5" x2="300.7275" y1="396.7671" y2="396.7671"/><text fill="#FFFFFF" font-family="sans-serif" font-size="14" lengthAdjust="spacing" textLength="80.8896" x="177.5" y="413.8989">SUBMITTED</text><text fill="#FFFFFF" font-family="sans-serif" font-size="14" lengthAdjust="spacing" textLength="118.2275" x="177.5" y="429.9975">NOT_SUBMITTED</text><text fill="#FFFFFF" font-family="sans-serif" font-size="14" lengthAdjust="spacing" textLength="59.8965" x="177.5" y="446.0962">GRADED</text></g><ellipse cx="154.5" cy="115.27" fill="#9D0012" rx="2" ry="2" style="stroke:#9D0012;stroke-width:1.0;"/><ellipse cx="141.5" cy="266.77" fill="#9D0012" rx="2" ry="2" style="stroke:#9D0012;stroke-width:1.0;"/><!--link Tutorial to Assignment--><g id="link_Tutorial_Assignment"><path codeLine="37" d="M71.5,153.11 C71.5,207.24 71.5,317.3 71.5,371.19 " fill="none" id="Tutorial-Assignment" style="stroke:#9D0012;stroke-width:1.1;"/><polygon fill="#9D0012" points="71.5,141.11,67.5,147.11,71.5,153.11,75.5,147.11,71.5,141.11" style="stroke:#9D0012;stroke-width:1.1;"/><polygon fill="#9D0012" points="71.5,377.19,75.5,368.19,71.5,372.19,67.5,368.19,71.5,377.19" style="stroke:#9D0012;stroke-width:1.1;"/><text fill="#000000" font-family="sans-serif" font-size="13" font-weight="bold" lengthAdjust="spacing" textLength="7.23" x="63.6296" y="161.3819">1</text><text fill="#000000" font-family="sans-serif" font-size="13" font-weight="bold" lengthAdjust="spacing" textLength="5.0591" x="65.8723" y="366.7088">*</text></g><!--reverse link Tutorial to Student--><g id="link_Tutorial_Student"><path codeLine="39" d="M82.4686,84.1173 C95.3586,51.3873 119.79,6 157,19.27 C175.61,25.91 193.4,36.89 209.25,49.11 " fill="none" id="Tutorial-backto-Student" style="stroke:#9D0012;stroke-width:1.1;"/><polygon fill="#9D0012" points="80.27,89.7,87.2897,82.7917,82.1022,85.0478,79.8461,79.8603,80.27,89.7" style="stroke:#9D0012;stroke-width:1.1;"/><text fill="#000000" font-family="sans-serif" font-size="13" font-weight="bold" lengthAdjust="spacing" textLength="5.0591" x="76.9894" y="78.8181">*</text><text fill="#000000" font-family="sans-serif" font-size="13" font-weight="bold" lengthAdjust="spacing" textLength="5.0591" x="195.9773" y="38.455">*</text></g><!--link Tutorial to apoint11--><g id="link_Tutorial_apoint11"><path d="M117.21,115.27 C128.96,115.27 140.71,115.27 152.46,115.27 " fill="none" id="Tutorial-apoint11" style="stroke:#9D0012;stroke-width:1.1;"/><text fill="#000000" font-family="sans-serif" font-size="13" font-weight="bold" lengthAdjust="spacing" textLength="5.0591" x="125.4692" y="112.3124">*</text></g><!--link apoint11 to Student--><g id="link_apoint11_Student"><path d="M156.84,115.27 C168.49,115.27 180.13,115.27 191.77,115.27 " fill="none" id="apoint11-Student" style="stroke:#9D0012;stroke-width:1.1;"/><text fill="#000000" font-family="sans-serif" font-size="13" font-weight="bold" lengthAdjust="spacing" textLength="5.0591" x="178.901" y="112.8696">*</text></g><!--link apoint11 to Attendance--><g id="link_apoint11_Attendance"><path d="M154.5,117.35 C154.54,124.16 155.67,161.38 174.5,181.27 C194.27,202.16 257.47,224.66 312.47,241.18 " fill="none" id="apoint11-Attendance" style="stroke:#9D0012;stroke-width:1.1;stroke-dasharray:7.0,7.0;"/></g><!--link Student to apoint17--><g id="link_Student_apoint17"><path d="M214.35,181.56 C197.08,200.63 178.37,221.63 161.5,241.27 C153.77,250.27 144.85,261.52 142.25,264.82 " fill="none" id="Student-apoint17" style="stroke:#9D0012;stroke-width:1.1;"/><text fill="#000000" font-family="sans-serif" font-size="13" font-weight="bold" lengthAdjust="spacing" textLength="5.0591" x="202.876" y="201.369">*</text></g><!--link apoint17 to Assignment--><g id="link_apoint17_Assignment"><path d="M140.71,269.27 C135.28,279.68 102.93,341.61 84.44,377 " fill="none" id="apoint17-Assignment" style="stroke:#9D0012;stroke-width:1.1;"/><text fill="#000000" font-family="sans-serif" font-size="13" font-weight="bold" lengthAdjust="spacing" textLength="5.0591" x="82.2899" y="366.4677">*</text></g><!--link apoint17 to Submission--><g id="link_apoint17_Submission"><path d="M143.66,266.77 C155.27,266.77 166.87,266.77 178.48,266.77 " fill="none" id="apoint17-Submission" style="stroke:#9D0012;stroke-width:1.1;stroke-dasharray:7.0,7.0;"/></g><!--link Submission to State--><g id="link_Submission_State"><path codeLine="46" d="M222.03,280.62 C224,297.06 226.7971,320.5425 229.8771,346.2825 " fill="none" id="Submission-to-State" style="stroke:#9D0012;stroke-width:1.1;"/><polygon fill="#9D0012" points="230.59,352.24,233.4924,342.8285,229.9959,347.2754,225.549,343.779,230.59,352.24" style="stroke:#9D0012;stroke-width:1.1;"/></g><!--SRC=[RP9HRu8m4CVV-obkF3aZ9BuIOg9YDXALHTZR4jD10usbcBPaCSk- -uuAWcuyjDV__Thxz-WJbvbeSWRQN0JppaqbY3vnUQQALa2Lgh_IacSdoRI6kJT_JAvhKIlOnU5cUrp7s_Wm0Z91jLxHx5Iekf7vNvIiMmBInjIAKq68tG69GKFIm3S1_2Ijc0zx7ErINvDHxlTS5Dh4kQmbWc_jP0LMKIvysBIJ5KegSu58oWGhqE2hNTjKpWnIseVm6f2VtanlxivDOXINnG0jjUQ5h0RJUSD2Qf1iHyFH-y0QmsHEPSOwbju4hBzKYbwsN9iWaeOLJ2s6dKdpMN6iL4j2c6mgS8AWdPcY1iN5uaCEI6AeQRG3jEqdckYA9U-hNPIccslFzd5wl5TU3iiGGwnvkxWpTs3gkWjmfixefcC24u6hU54QrowwFtDF_0TCUcBMIy_WUQCU4TA_1dk4-sXYqgLd8z4UCMxM44Dx3zkFNm00]--></g></svg>

