<?xml version="1.0" encoding="us-ascii" standalone="no"?><svg xmlns="http://www.w3.org/2000/svg" xmlns:xlink="http://www.w3.org/1999/xlink" contentStyleType="text/css" height="662px" preserveAspectRatio="none" style="width:489px;height:662px;background:#FFFFFF;" version="1.1" viewBox="0 0 489 662" width="489px" zoomAndPan="magnify"><defs/><g><!--cluster ModelPackage--><g id="cluster_ModelPackage"><rect fill="#FFFFFF" height="649" rx="2.5" ry="2.5" style="stroke:#181818;stroke-width:1.0;" width="476" x="7" y="7"/><text fill="#000000" font-family="sans-serif" font-size="14" font-weight="bold" lengthAdjust="spacing" textLength="44" x="223" y="22.1318">Model</text></g><!--class ReadOnlyAddressBook--><g id="elem_ReadOnlyAddressBook"><rect codeLine="7" fill="#9D0012" height="44.4971" id="ReadOnlyAddressBook" rx="2.5" ry="2.5" style="stroke:#FFFFFF;stroke-width:1.0;" width="158" x="23" y="42"/><text fill="#FFFFFF" font-family="Arial" font-size="15" lengthAdjust="spacing" textLength="72" x="66" y="61.0698">&#171;interface&#187;</text><text fill="#FFFFFF" font-family="Arial" font-size="15" lengthAdjust="spacing" textLength="152" x="26" y="78.3184">ReadOnlyAddressBook</text></g><!--class ReadOnlyUserPrefs--><g id="elem_ReadOnlyUserPrefs"><rect codeLine="8" fill="#9D0012" height="44.4971" id="ReadOnlyUserPrefs" rx="2.5" ry="2.5" style="stroke:#FFFFFF;stroke-width:1.0;" width="137" x="329.5" y="42"/><text fill="#FFFFFF" font-family="Arial" font-size="15" lengthAdjust="spacing" textLength="72" x="362" y="61.0698">&#171;interface&#187;</text><text fill="#FFFFFF" font-family="Arial" font-size="15" lengthAdjust="spacing" textLength="131" x="332.5" y="78.3184">ReadOnlyUserPrefs</text></g><!--class Model--><g id="elem_Model"><rect codeLine="9" fill="#9D0012" height="44.4971" id="Model" rx="2.5" ry="2.5" style="stroke:#FFFFFF;stroke-width:1.0;" width="78" x="216" y="42"/><text fill="#FFFFFF" font-family="Arial" font-size="15" lengthAdjust="spacing" textLength="72" x="219" y="61.0698">&#171;interface&#187;</text><text fill="#FFFFFF" font-family="Arial" font-size="15" lengthAdjust="spacing" textLength="38" x="236" y="78.3184">Model</text></g><!--class AddressBook--><g id="elem_AddressBook"><rect codeLine="10" fill="#9D0012" height="27.2485" id="AddressBook" rx="2.5" ry="2.5" style="stroke:#FFFFFF;stroke-width:1.0;" width="93" x="66.5" y="147"/><text fill="#FFFFFF" font-family="Arial" font-size="15" lengthAdjust="spacing" textLength="87" x="69.5" y="166.0698">AddressBook</text></g><!--class ModelManager--><g id="elem_ModelManager"><rect codeLine="11" fill="#9D0012" height="27.2485" id="ModelManager" rx="2.5" ry="2.5" style="stroke:#FFFFFF;stroke-width:1.0;" width="100" x="205" y="147"/><text fill="#FFFFFF" font-family="Arial" font-size="15" lengthAdjust="spacing" textLength="94" x="208" y="166.0698">ModelManager</text></g><!--class UserPrefs--><g id="elem_UserPrefs"><rect codeLine="12" fill="#9D0012" height="27.2485" id="UserPrefs" rx="2.5" ry="2.5" style="stroke:#FFFFFF;stroke-width:1.0;" width="72" x="351" y="147"/><text fill="#FFFFFF" font-family="Arial" font-size="15" lengthAdjust="spacing" textLength="66" x="354" y="166.0698">UserPrefs</text></g><!--class Tutorial--><g id="elem_Tutorial"><rect codeLine="24" fill="#9D0012" height="51.3472" id="Tutorial" rx="2.5" ry="2.5" style="stroke:#FFFFFF;stroke-width:1.0;" width="92" x="156" y="427"/><text fill="#FFFFFF" font-family="Arial" font-size="15" lengthAdjust="spacing" textLength="48" x="178" y="446.0698">Tutorial</text><line style="stroke:#FFFFFF;stroke-width:1.0;" x1="157" x2="247" y1="454.2485" y2="454.2485"/><text fill="#FFFFFF" font-family="sans-serif" font-size="14" lengthAdjust="spacing" textLength="80" x="162" y="471.3804">name: String</text></g><!--class Student--><g id="elem_Student"><rect codeLine="17" fill="#9D0012" height="115.7417" id="Student" rx="2.5" ry="2.5" style="stroke:#FFFFFF;stroke-width:1.0;" width="117" x="285.5" y="250"/><text fill="#FFFFFF" font-family="Arial" font-size="15" lengthAdjust="spacing" textLength="50" x="319" y="269.0698">Student</text><line style="stroke:#FFFFFF;stroke-width:1.0;" x1="286.5" x2="401.5" y1="277.2485" y2="277.2485"/><text fill="#FFFFFF" font-family="sans-serif" font-size="14" lengthAdjust="spacing" textLength="80" x="291.5" y="294.3804">name: String</text><text fill="#FFFFFF" font-family="sans-serif" font-size="14" lengthAdjust="spacing" textLength="105" x="291.5" y="310.479">studentID: String</text><text fill="#FFFFFF" font-family="sans-serif" font-size="14" lengthAdjust="spacing" textLength="85" x="291.5" y="326.5776">phone: String</text><text fill="#FFFFFF" font-family="sans-serif" font-size="14" lengthAdjust="spacing" textLength="78" x="291.5" y="342.6763">email: String</text><text fill="#FFFFFF" font-family="sans-serif" font-size="14" lengthAdjust="spacing" textLength="88" x="291.5" y="358.7749">handle: String</text></g><!--class Assignment--><g id="elem_Assignment"><rect codeLine="28" fill="#9D0012" height="51.3472" id="Assignment" rx="2.5" ry="2.5" style="stroke:#FFFFFF;stroke-width:1.0;" width="130" x="149" y="564"/><text fill="#FFFFFF" font-family="Arial" font-size="15" lengthAdjust="spacing" textLength="77" x="175.5" y="583.0698">Assignment</text><line style="stroke:#FFFFFF;stroke-width:1.0;" x1="150" x2="278" y1="591.2485" y2="591.2485"/><text fill="#FFFFFF" font-family="sans-serif" font-size="14" lengthAdjust="spacing" textLength="118" x="155" y="608.3804">dueDate: Datetime</text></g><!--class Attendance--><g id="elem_Attendance"><rect codeLine="32" fill="#9D0012" height="67.4458" id="Attendance" rx="2.5" ry="2.5" style="stroke:#FFFFFF;stroke-width:1.0;" width="93" x="36.5" y="274.5"/><text fill="#FFFFFF" font-family="Arial" font-size="15" lengthAdjust="spacing" textLength="73" x="46.5" y="293.5698">Attendance</text><line style="stroke:#FFFFFF;stroke-width:1.0;" x1="37.5" x2="128.5" y1="301.7485" y2="301.7485"/><text fill="#FFFFFF" font-family="sans-serif" font-size="14" lengthAdjust="spacing" textLength="72" x="42.5" y="318.8804">weekNo: int</text><text fill="#FFFFFF" font-family="sans-serif" font-size="14" lengthAdjust="spacing" textLength="81" x="42.5" y="334.979">lessonNo: int</text></g><!--class Submission--><g id="elem_Submission"><rect codeLine="37" fill="#9D0012" height="27.2485" id="Submission" rx="2.5" ry="2.5" style="stroke:#FFFFFF;stroke-width:1.0;" width="83" x="355.5" y="439"/><text fill="#FFFFFF" font-family="Arial" font-size="15" lengthAdjust="spacing" textLength="77" x="358.5" y="458.0698">Submission</text></g><!--class State--><g id="elem_State"><rect codeLine="39" fill="#9D0012" height="100.793" id="State" rx="2.5" ry="2.5" style="stroke:#FFFFFF;stroke-width:1.0;" width="135" x="329.5" y="539"/><text fill="#FFFFFF" font-family="Arial" font-size="15" lengthAdjust="spacing" textLength="97" x="348.5" y="558.0698">&#171;enumeration&#187;</text><text fill="#FFFFFF" font-family="Arial" font-size="15" lengthAdjust="spacing" textLength="34" x="380" y="575.3184">State</text><line style="stroke:#FFFFFF;stroke-width:1.0;" x1="330.5" x2="463.5" y1="583.4971" y2="583.4971"/><text fill="#FFFFFF" font-family="sans-serif" font-size="14" lengthAdjust="spacing" textLength="86" x="335.5" y="600.6289">COMPLETED</text><text fill="#FFFFFF" font-family="sans-serif" font-size="14" lengthAdjust="spacing" textLength="104" x="335.5" y="616.7275">VALID_REASON</text><text fill="#FFFFFF" font-family="sans-serif" font-size="14" lengthAdjust="spacing" textLength="123" x="335.5" y="632.8262">NOT_COMPLETED</text></g><ellipse cx="318" cy="452.5" fill="#9D0012" rx="2" ry="2" style="stroke:#9D0012;stroke-width:1.0;"/><!--reverse link ReadOnlyAddressBook to AddressBook--><g id="link_ReadOnlyAddressBook_AddressBook"><path codeLine="46" d="M106.5731,104.3202 C108.7331,122.9502 109.73,131.41 111.53,146.85 " fill="none" id="ReadOnlyAddressBook-backto-AddressBook" style="stroke:#9D0012;stroke-width:1.1;stroke-dasharray:7.0,7.0;"/><polygon fill="none" points="104.5,86.44,100.613,105.0112,112.5331,103.6292,104.5,86.44" style="stroke:#9D0012;stroke-width:1.1;"/></g><!--reverse link Model to ModelManager--><g id="link_Model_ModelManager"><path codeLine="48" d="M255,104.44 C255,123.07 255,131.41 255,146.85 " fill="none" id="Model-backto-ModelManager" style="stroke:#9D0012;stroke-width:1.1;stroke-dasharray:7.0,7.0;"/><polygon fill="none" points="255,86.44,249,104.44,261,104.44,255,86.44" style="stroke:#9D0012;stroke-width:1.1;"/></g><!--link Model to ReadOnlyUserPrefs--><g id="link_Model_ReadOnlyUserPrefs"><path codeLine="49" d="M294.1,64 C305.87,64 311.64,64 323.41,64 " fill="none" id="Model-to-ReadOnlyUserPrefs" style="stroke:#9D0012;stroke-width:1.1;stroke-dasharray:7.0,7.0;"/><polygon fill="#9D0012" points="329.41,64,320.41,60,324.41,64,320.41,68,329.41,64" style="stroke:#9D0012;stroke-width:1.1;"/></g><!--reverse link ReadOnlyAddressBook to Model--><g id="link_ReadOnlyAddressBook_Model"><path codeLine="50" d="M187.19,64 C198.72,64 204.26,64 215.79,64 " fill="none" id="ReadOnlyAddressBook-backto-Model" style="stroke:#9D0012;stroke-width:1.1;stroke-dasharray:7.0,7.0;"/><polygon fill="#9D0012" points="181.19,64,190.19,68,186.19,64,190.19,60,181.19,64" style="stroke:#9D0012;stroke-width:1.1;"/></g><!--reverse link AddressBook to ModelManager--><g id="link_AddressBook_ModelManager"><path codeLine="51" d="M165.59,160.5 C180.63,160.5 189.66,160.5 204.69,160.5 " fill="none" id="AddressBook-backto-ModelManager" style="stroke:#9D0012;stroke-width:1.1;"/><polygon fill="#9D0012" points="159.59,160.5,168.59,164.5,164.59,160.5,168.59,156.5,159.59,160.5" style="stroke:#9D0012;stroke-width:1.1;"/><text fill="#000000" font-family="sans-serif" font-size="13" font-weight="bold" lengthAdjust="spacing" textLength="7" x="167.5731" y="157.634">1</text></g><!--link ModelManager to UserPrefs--><g id="link_ModelManager_UserPrefs"><path codeLine="52" d="M305.02,160.5 C320.28,160.5 329.55,160.5 344.81,160.5 " fill="none" id="ModelManager-to-UserPrefs" style="stroke:#9D0012;stroke-width:1.1;"/><polygon fill="#9D0012" points="350.81,160.5,341.81,156.5,345.81,160.5,341.81,164.5,350.81,160.5" style="stroke:#9D0012;stroke-width:1.1;"/><text fill="#000000" font-family="sans-serif" font-size="13" font-weight="bold" lengthAdjust="spacing" textLength="7" x="335.996" y="157.3846">1</text></g><!--reverse link ReadOnlyUserPrefs to UserPrefs--><g id="link_ReadOnlyUserPrefs_UserPrefs"><path codeLine="53" d="M393.4269,104.3202 C391.2669,122.9502 390.27,131.41 388.47,146.85 " fill="none" id="ReadOnlyUserPrefs-backto-UserPrefs" style="stroke:#9D0012;stroke-width:1.1;stroke-dasharray:7.0,7.0;"/><polygon fill="none" points="395.5,86.44,387.4669,103.6292,399.387,105.0112,395.5,86.44" style="stroke:#9D0012;stroke-width:1.1;"/></g><!--link ModelManager to Tutorial--><g id="link_ModelManager_Tutorial"><path codeLine="55" d="M248.14,174.25 C239.46,191.07 224.82,221.84 218,250 C202.88,312.42 201.1578,382.5601 201.4278,420.9201 " fill="none" id="ModelManager-to-Tutorial" style="stroke:#9D0012;stroke-width:1.1;"/><polygon fill="#9D0012" points="201.47,426.92,205.4066,417.8921,201.4348,421.9201,197.4068,417.9484,201.47,426.92" style="stroke:#9D0012;stroke-width:1.1;"/><polygon fill="#000000" points="222.0697,313.3871,226.6403,305.0467,220.865,303.9531,222.0697,313.3871" style="stroke:#000000;stroke-width:1.0;"/><text fill="#000000" font-family="sans-serif" font-size="13" font-weight="bold" lengthAdjust="spacing" textLength="35" x="232" y="313.1938">filters</text><text fill="#000000" font-family="sans-serif" font-size="13" font-weight="bold" lengthAdjust="spacing" textLength="5" x="195.6557" y="416.4388">*</text></g><!--link ModelManager to Student--><g id="link_ModelManager_Student"><path codeLine="56" d="M262.74,174.16 C273.06,191.03 288.869,216.8717 305.869,244.6617 " fill="none" id="ModelManager-to-Student" style="stroke:#9D0012;stroke-width:1.1;"/><polygon fill="#9D0012" points="309,249.78,307.7157,240.0152,306.3908,245.5148,300.8913,244.1899,309,249.78" style="stroke:#9D0012;stroke-width:1.1;"/><polygon fill="#000000" points="295.6092,216.7396,293.3961,207.4901,288.3821,210.5574,295.6092,216.7396" style="stroke:#000000;stroke-width:1.0;"/><text fill="#000000" font-family="sans-serif" font-size="13" font-weight="bold" lengthAdjust="spacing" textLength="35" x="302" y="217.1938">filters</text><text fill="#000000" font-family="sans-serif" font-size="13" font-weight="bold" lengthAdjust="spacing" textLength="5" x="298.9609" y="239.291">*</text></g><!--link Student to Tutorial--><g id="link_Student_Tutorial"><path codeLine="58" d="M282.8244,370.3897 C261.8344,391.4497 247.6163,405.731 230.9463,422.451 " fill="none" id="Student-Tutorial" style="stroke:#9D0012;stroke-width:1.1;"/><polygon fill="#9D0012" points="287.06,366.14,277.8735,369.6908,283.5304,369.6814,283.5398,375.3383,287.06,366.14" style="stroke:#9D0012;stroke-width:1.1;"/><polygon fill="#9D0012" points="226.71,426.7,235.8971,423.1507,230.2402,423.1592,230.2318,417.5023,226.71,426.7" style="stroke:#9D0012;stroke-width:1.1;"/><text fill="#000000" font-family="sans-serif" font-size="13" font-weight="bold" lengthAdjust="spacing" textLength="5" x="275.1873" y="385.9354">*</text><text fill="#000000" font-family="sans-serif" font-size="13" font-weight="bold" lengthAdjust="spacing" textLength="5" x="227.6789" y="416.1597">*</text></g><!--link Tutorial to Assignment--><g id="link_Tutorial_Assignment"><path codeLine="59" d="M205.2647,490.2127 C207.4347,514.5727 209.119,533.6135 211.279,557.9235 " fill="none" id="Tutorial-Assignment" style="stroke:#9D0012;stroke-width:1.1;"/><polygon fill="#9D0012" points="204.2,478.26,200.7482,484.5913,205.2647,490.2127,208.7166,483.8814,204.2,478.26" style="stroke:#9D0012;stroke-width:1.1;"/><polygon fill="#9D0012" points="211.81,563.9,214.9978,554.5813,211.3675,558.9196,207.0292,555.2893,211.81,563.9" style="stroke:#9D0012;stroke-width:1.1;"/><text fill="#000000" font-family="sans-serif" font-size="13" font-weight="bold" lengthAdjust="spacing" textLength="7" x="196.8831" y="498.5124">1</text><text fill="#000000" font-family="sans-serif" font-size="13" font-weight="bold" lengthAdjust="spacing" textLength="5" x="205.5496" y="553.4134">*</text></g><!--reverse link Attendance to Student--><g id="link_Attendance_Student"><path codeLine="60" d="M107.9616,269.2195 C124.1616,246.9695 145.08,224.6 174.5,212 C201.46,200.45 213.19,201.29 240.5,212 C261.26,220.15 280.34,234.63 296.31,249.92 " fill="none" id="Attendance-backto-Student" style="stroke:#9D0012;stroke-width:1.1;"/><polygon fill="#9D0012" points="104.43,274.07,112.9611,269.1486,107.373,270.0279,106.4937,264.4398,104.43,274.07" style="stroke:#9D0012;stroke-width:1.1;"/><text fill="#000000" font-family="sans-serif" font-size="13" font-weight="bold" lengthAdjust="spacing" textLength="5" x="103.3343" y="263.8739">*</text><text fill="#000000" font-family="sans-serif" font-size="13" font-weight="bold" lengthAdjust="spacing" textLength="7" x="282.1114" y="239.0468">1</text></g><!--reverse link Attendance to Tutorial--><g id="link_Attendance_Tutorial"><path codeLine="61" d="M114.1451,346.296 C135.8251,372.266 161.83,403.4 181.51,426.96 " fill="none" id="Attendance-backto-Tutorial" style="stroke:#9D0012;stroke-width:1.1;"/><polygon fill="#9D0012" points="110.3,341.69,112.997,351.1624,113.5043,345.5283,119.1383,346.0356,110.3,341.69" style="stroke:#9D0012;stroke-width:1.1;"/><text fill="#000000" font-family="sans-serif" font-size="13" font-weight="bold" lengthAdjust="spacing" textLength="5" x="110.415" y="362.328">*</text><text fill="#000000" font-family="sans-serif" font-size="13" font-weight="bold" lengthAdjust="spacing" textLength="7" x="167.7628" y="416.0866">1</text></g><!--link Student to apoint34--><g id="link_Student_apoint34"><path d="M333.57,366.14 C327.02,402.07 319.55,442.98 318.21,450.34 " fill="none" id="Student-apoint34" style="stroke:#9D0012;stroke-width:1.1;"/><text fill="#000000" font-family="sans-serif" font-size="13" font-weight="bold" lengthAdjust="spacing" textLength="5" x="327.075" y="385.9354">*</text></g><!--link apoint34 to Assignment--><g id="link_apoint34_Assignment"><path d="M316.83,455.02 C308.73,465.53 260.43,528.23 233,563.84 " fill="none" id="apoint34-Assignment" style="stroke:#9D0012;stroke-width:1.1;"/><text fill="#000000" font-family="sans-serif" font-size="13" font-weight="bold" lengthAdjust="spacing" textLength="5" x="232.4344" y="553.3373">*</text></g><!--link apoint34 to Submission--><g id="link_apoint34_Submission"><path d="M320.16,452.5 C331.87,452.5 343.57,452.5 355.28,452.5 " fill="none" id="apoint34-Submission" style="stroke:#9D0012;stroke-width:1.1;stroke-dasharray:7.0,7.0;"/></g><!--link Submission to State--><g id="link_Submission_State"><path codeLine="66" d="M397,466.44 C397,483.08 397,506.9 397,532.91 " fill="none" id="Submission-to-State" style="stroke:#9D0012;stroke-width:1.1;"/><polygon fill="#9D0012" points="397,538.91,401,529.91,397,533.91,393,529.91,397,538.91" style="stroke:#9D0012;stroke-width:1.1;"/></g><!--SRC=[XLDDZzem4BtxLxWvjQjk9AueYiGI3Yi1GK1xgeIyoH2iE3Qo7QrMM_vxRUVBWQoQGsA_UNupdddvHdd6wXomqXyCmcjTCQHAogz4aWeJASNxyKApaeDIU1RExeDBmOJ4cpHPhK_BT9tkFKB6Y58l92iBAMgUFrBHpWH90NWZSc2Og6RHeL6qXqmJNZ28uq-qj78uY2BADSWpoGpwX- -1v2bd7uiybwR65o7Am2fDuFzH-AL0xYISrUXyZtvnsbKSzBMthCUiBheXt5nCjj0WtGB7MWj92KC8kTxXWpQZuHf_8cmUJYgO6qnINZX0DU7NP8HUBuAFUL0HoaR8XV2S3QHRcwyhO2hXhIjgeHGjU3NKbTUG46sOzgrf1HvNQ-0vuHcqt7U0SYlcsFJGxPdfak0Tqfyxr6yLDNa4HmXuNTcssoz8eWre6t_G9fjhl5kr-ijqirklZgl4xNulrg_9QRzQ7DAj0xRfyJHGRZQXDoeSrjVmRppf7UGFi2Cs8s_S6qfQN7GOJpYd9J0u-t5VVIJ-R8dFCGvc0VwQvDArh25Llxg_YsUsiOwLU0g6qS_ncJ9ZS8NZQMPdIf-8Ej0IedjDr8lROf-wy60avFcaKMXkv_Yjz2Ed2Gy_ZL-33OvJV6_3Fptm1mx3aTU6jRkkSzO_]--></g></svg>

