<svg xmlns="http://www.w3.org/2000/svg" xmlns:xlink="http://www.w3.org/1999/xlink" contentStyleType="text/css" height="418.6px" preserveAspectRatio="none" style="width:695px;height:418px;background:#FFFFFF;" version="1.1" viewBox="0 0 695 418" width="695.8px" zoomAndPan="magnify"><defs/><g><!--cluster ModelPackage--><g id="cluster_ModelPackage"><rect fill="#FFFFFF" height="400.4" rx="3.5" ry="3.5" style="stroke:#181818;stroke-width:1.3999999999999997;" width="677.6" x="9.8" y="9.8"/><text fill="#000000" font-family="sans-serif" font-size="19.6" font-weight="bold" lengthAdjust="spacing" textLength="56.618" x="320.291" y="30.9846">Model</text></g><!--class ReadOnlyAddressBook--><g id="elem_ReadOnlyAddressBook"><rect codeLine="7" fill="#9D0012" height="62.2959" id="ReadOnlyAddressBook" rx="3.5" ry="3.5" style="stroke:#FFFFFF;stroke-width:1.3999999999999997;" width="226.6852" x="32.2" y="58.8"/><text fill="#FFFFFF" font-family="Arial" font-size="21" lengthAdjust="spacing" textLength="103.9028" x="93.5912" y="85.4978">&#171;interface&#187;</text><text fill="#FFFFFF" font-family="Arial" font-size="21" lengthAdjust="spacing" textLength="218.2852" x="36.4" y="109.6457">ReadOnlyAddressBook</text></g><!--class ReadOnlyUserPrefs--><g id="elem_ReadOnlyUserPrefs"><rect codeLine="8" fill="#9D0012" height="62.2959" id="ReadOnlyUserPrefs" rx="3.5" ry="3.5" style="stroke:#FFFFFF;stroke-width:1.3999999999999997;" width="195.1339" x="469.7" y="58.8"/><text fill="#FFFFFF" font-family="Arial" font-size="21" lengthAdjust="spacing" textLength="103.9028" x="515.3155" y="85.4978">&#171;interface&#187;</text><text fill="#FFFFFF" font-family="Arial" font-size="21" lengthAdjust="spacing" textLength="186.7339" x="473.9" y="109.6457">ReadOnlyUserPrefs</text></g><!--class Model--><g id="elem_Model"><rect codeLine="9" fill="#9D0012" height="62.2959" id="Model" rx="3.5" ry="3.5" style="stroke:#FFFFFF;stroke-width:1.3999999999999997;" width="112.3028" x="308" y="58.8"/><text fill="#FFFFFF" font-family="Arial" font-size="21" lengthAdjust="spacing" textLength="103.9028" x="312.2" y="85.4978">&#171;interface&#187;</text><text fill="#FFFFFF" font-family="Arial" font-size="21" lengthAdjust="spacing" textLength="57.1963" x="335.5533" y="109.6457">Model</text></g><!--class AddressBook--><g id="elem_AddressBook"><rect codeLine="10" fill="#9D0012" height="38.1479" id="AddressBook" rx="3.5" ry="3.5" style="stroke:#FFFFFF;stroke-width:1.3999999999999997;" width="133.3028" x="80.5" y="205.8"/><text fill="#FFFFFF" font-family="Arial" font-size="21" lengthAdjust="spacing" textLength="124.9028" x="84.7" y="232.4978">AddressBook</text></g><!--class ModelManager--><g id="elem_ModelManager"><rect codeLine="11" fill="#9D0012" height="38.1479" id="ModelManager" rx="3.5" ry="3.5" style="stroke:#FFFFFF;stroke-width:1.3999999999999997;" width="148.4786" x="289.8" y="205.8"/><text fill="#FFFFFF" font-family="Arial" font-size="21" lengthAdjust="spacing" textLength="140.0786" x="294" y="232.4978">ModelManager</text></g><!--class UserPrefs--><g id="elem_UserPrefs"><rect codeLine="12" fill="#9D0012" height="38.1479" id="UserPrefs" rx="3.5" ry="3.5" style="stroke:#FFFFFF;stroke-width:1.3999999999999997;" width="101.7516" x="501.9" y="205.8"/><text fill="#FFFFFF" font-family="Arial" font-size="21" lengthAdjust="spacing" textLength="93.3516" x="506.1" y="232.4978">UserPrefs</text></g><!--class Tutorial--><g id="elem_Tutorial"><rect codeLine="19" fill="#9D0012" height="38.1479" id="Tutorial" rx="3.5" ry="3.5" style="stroke:#FFFFFF;stroke-width:1.3999999999999997;" width="78.4239" x="92.4" y="350"/><text fill="#FFFFFF" font-family="Arial" font-size="21" lengthAdjust="spacing" textLength="70.0239" x="96.6" y="376.6978">Tutorial</text></g><!--class Student--><g id="elem_Student"><rect codeLine="17" fill="#9D0012" height="38.1479" id="Student" rx="3.5" ry="3.5" style="stroke:#FFFFFF;stroke-width:1.3999999999999997;" width="80.7926" x="231" y="350"/><text fill="#FFFFFF" font-family="Arial" font-size="21" lengthAdjust="spacing" textLength="72.3926" x="235.2" y="376.6978">Student</text></g><!--class Attendance--><g id="elem_Attendance"><rect codeLine="22" fill="#9D0012" height="38.1479" id="Attendance" rx="3.5" ry="3.5" style="stroke:#FFFFFF;stroke-width:1.3999999999999997;" width="114.651" x="366.8" y="350"/><text fill="#FFFFFF" font-family="Arial" font-size="21" lengthAdjust="spacing" textLength="106.251" x="371" y="376.6978">Attendance</text></g><!--class Submission--><g id="elem_Submission"><rect codeLine="25" fill="#9D0012" height="38.1479" id="Submission" rx="3.5" ry="3.5" style="stroke:#FFFFFF;stroke-width:1.3999999999999997;" width="116.9479" x="533.4" y="350"/><text fill="#FFFFFF" font-family="Arial" font-size="21" lengthAdjust="spacing" textLength="108.5479" x="537.6" y="376.6978">Submission</text></g><!--reverse link ReadOnlyAddressBook to AddressBook--><g id="link_ReadOnlyAddressBook_AddressBook"><path codeLine="28" d="M146.179,146.2147 C146.445,172.2967 146.58,183.974 146.818,205.59 " fill="none" id="ReadOnlyAddressBook-backto-AddressBook" style="stroke:#9D0012;stroke-width:1.5399999999999998;stroke-dasharray:7.0,7.0;"/><polygon fill="none" points="145.922,121.016,137.7794,146.3004,154.5786,146.129,145.922,121.016" style="stroke:#9D0012;stroke-width:1.5399999999999998;"/></g><!--reverse link Model to ModelManager--><g id="link_Model_ModelManager"><path codeLine="30" d="M364,146.216 C364,172.298 364,183.974 364,205.59 " fill="none" id="Model-backto-ModelManager" style="stroke:#9D0012;stroke-width:1.5399999999999998;stroke-dasharray:7.0,7.0;"/><polygon fill="none" points="364,121.016,355.6,146.216,372.4,146.216,364,121.016" style="stroke:#9D0012;stroke-width:1.5399999999999998;"/></g><!--link Model to ReadOnlyUserPrefs--><g id="link_Model_ReadOnlyUserPrefs"><path codeLine="31" d="M420.294,89.6 C436.73,89.6 444.752,89.6 461.188,89.6 " fill="none" id="Model-to-ReadOnlyUserPrefs" style="stroke:#9D0012;stroke-width:1.5399999999999998;stroke-dasharray:7.0,7.0;"/><polygon fill="#9D0012" points="469.588,89.6,456.988,84,462.588,89.6,456.988,95.2,469.588,89.6" style="stroke:#9D0012;stroke-width:1.5399999999999998;"/></g><!--reverse link ReadOnlyAddressBook to Model--><g id="link_ReadOnlyAddressBook_Model"><path codeLine="32" d="M267.47,89.6 C283.724,89.6 291.578,89.6 307.846,89.6 " fill="none" id="ReadOnlyAddressBook-backto-Model" style="stroke:#9D0012;stroke-width:1.5399999999999998;stroke-dasharray:7.0,7.0;"/><polygon fill="#9D0012" points="259.07,89.6,271.67,95.2,266.07,89.6,271.67,84,259.07,89.6" style="stroke:#9D0012;stroke-width:1.5399999999999998;"/></g><!--link ModelManager to AddressBook--><g id="link_ModelManager_AddressBook"><path codeLine="33" d="M289.352,224.7 C264.082,224.7 247.212,224.7 221.942,224.7 " fill="none" id="ModelManager-to-AddressBook" style="stroke:#9D0012;stroke-width:1.5399999999999998;"/><polygon fill="#9D0012" points="213.542,224.7,226.142,230.3,220.542,224.7,226.142,219.1,213.542,224.7" style="stroke:#9D0012;stroke-width:1.5399999999999998;"/><text fill="#000000" font-family="sans-serif" font-size="18.2" font-weight="bold" lengthAdjust="spacing" textLength="10.122" x="224.9296" y="220.6876">1</text></g><!--link ModelManager to UserPrefs--><g id="link_ModelManager_UserPrefs"><path codeLine="34" d="M438.564,224.7 C459.578,224.7 472.178,224.7 493.192,224.7 " fill="none" id="ModelManager-to-UserPrefs" style="stroke:#9D0012;stroke-width:1.5399999999999998;"/><polygon fill="#9D0012" points="501.592,224.7,488.992,219.1,494.592,224.7,488.992,230.3,501.592,224.7" style="stroke:#9D0012;stroke-width:1.5399999999999998;"/><text fill="#000000" font-family="sans-serif" font-size="18.2" font-weight="bold" lengthAdjust="spacing" textLength="10.122" x="480.2579" y="220.2512">1</text></g><!--reverse link ReadOnlyUserPrefs to UserPrefs--><g id="link_ReadOnlyUserPrefs_UserPrefs"><path codeLine="35" d="M561.172,146.0763 C558.414,172.1583 557.158,183.974 554.876,205.59 " fill="none" id="ReadOnlyUserPrefs-backto-UserPrefs" style="stroke:#9D0012;stroke-width:1.5399999999999998;stroke-dasharray:7.0,7.0;"/><polygon fill="none" points="563.822,121.016,552.8186,145.193,569.5255,146.9596,563.822,121.016" style="stroke:#9D0012;stroke-width:1.5399999999999998;"/></g><!--link ModelManager to Tutorial--><g id="link_ModelManager_Tutorial"><path codeLine="37" d="M316.274,243.81 C290.22,254.366 257.88,268.94 231,285.6 C200.396,304.57 175.1254,326.3393 156.0154,344.1473 " fill="none" id="ModelManager-to-Tutorial" style="stroke:#9D0012;stroke-width:1.5399999999999998;"/><polygon fill="#9D0012" points="149.87,349.874,162.9058,345.3809,154.9911,345.1018,155.2703,337.1871,149.87,349.874" style="stroke:#9D0012;stroke-width:1.5399999999999998;"/><polygon fill="#000000" points="232.0669,301.1788,244.9834,297.9462,240.6165,290.9715,232.0669,301.1788" style="stroke:#000000;stroke-width:1.3999999999999997;"/><text fill="#000000" font-family="sans-serif" font-size="18.2" font-weight="bold" lengthAdjust="spacing" textLength="49.5612" x="250.6" y="304.0714">filters</text><text fill="#000000" font-family="sans-serif" font-size="18.2" font-weight="bold" lengthAdjust="spacing" textLength="7.0827" x="149.3447" y="334.9484">*</text></g><!--link ModelManager to Student--><g id="link_ModelManager_Student"><path codeLine="38" d="M352.296,244.006 C334.53,271.208 305.5273,315.5997 287.8033,342.7037 " fill="none" id="ModelManager-to-Student" style="stroke:#9D0012;stroke-width:1.5399999999999998;"/><polygon fill="#9D0012" points="283.206,349.734,294.7888,342.2534,287.0371,343.8754,285.4151,336.1237,283.206,349.734" style="stroke:#9D0012;stroke-width:1.5399999999999998;"/><polygon fill="#000000" points="325.1709,303.324,335.5421,294.974,328.6534,290.4727,325.1709,303.324" style="stroke:#000000;stroke-width:1.3999999999999997;"/><text fill="#000000" font-family="sans-serif" font-size="18.2" font-weight="bold" lengthAdjust="spacing" textLength="49.5612" x="341.6" y="304.0714">filters</text><text fill="#000000" font-family="sans-serif" font-size="18.2" font-weight="bold" lengthAdjust="spacing" textLength="7.0827" x="279.8596" y="334.7472">*</text></g><!--link ModelManager to Submission--><g id="link_ModelManager_Submission"><path codeLine="39" d="M414.274,243.782 C440.734,254.142 473.13,268.534 499.8,285.6 C528.696,304.08 551.6831,325.4521 569.2671,343.3861 " fill="none" id="ModelManager-to-Submission" style="stroke:#9D0012;stroke-width:1.5399999999999998;"/><polygon fill="#9D0012" points="575.148,349.384,570.3253,336.4665,570.2473,344.3857,562.3281,344.3077,575.148,349.384" style="stroke:#9D0012;stroke-width:1.5399999999999998;"/><polygon fill="#000000" points="542.0888,301.2485,533.6602,290.9411,529.2114,297.8639,542.0888,301.2485" style="stroke:#000000;stroke-width:1.3999999999999997;"/><text fill="#000000" font-family="sans-serif" font-size="18.2" font-weight="bold" lengthAdjust="spacing" textLength="49.5612" x="548.8" y="304.0714">filters</text><text fill="#000000" font-family="sans-serif" font-size="18.2" font-weight="bold" lengthAdjust="spacing" textLength="7.0827" x="559.8219" y="334.9647">*</text></g><!--link ModelManager to Attendance--><g id="link_ModelManager_Attendance"><path codeLine="40" d="M383.348,244.076 C393.89,255.038 406.14,269.906 413,285.6 C422.086,306.376 424.0838,324.2972 424.3778,341.4192 " fill="none" id="ModelManager-to-Attendance" style="stroke:#9D0012;stroke-width:1.5399999999999998;"/><polygon fill="#9D0012" points="424.522,349.818,429.9049,337.1237,424.4018,342.819,418.7065,337.316,424.522,349.818" style="stroke:#9D0012;stroke-width:1.5399999999999998;"/><polygon fill="#000000" points="428.3188,303.9145,427.1919,290.6475,419.609,293.8437,428.3188,303.9145" style="stroke:#000000;stroke-width:1.3999999999999997;"/><text fill="#000000" font-family="sans-serif" font-size="18.2" font-weight="bold" lengthAdjust="spacing" textLength="49.5612" x="438.2" y="304.0714">filters</text><text fill="#000000" font-family="sans-serif" font-size="18.2" font-weight="bold" lengthAdjust="spacing" textLength="7.0827" x="416.1823" y="334.8679">*</text></g><!--link AddressBook to Tutorial--><g id="link_AddressBook_Tutorial"><path codeLine="42" d="M143.038,243.712 C140.546,255.5 137.494,271.404 135.8,285.6 C133.168,307.65 132.3718,324.844 132.0078,341.476 " fill="none" id="AddressBook-to-Tutorial" style="stroke:#9D0012;stroke-width:1.5399999999999998;"/><polygon fill="#9D0012" points="131.824,349.874,137.6984,337.3995,131.9772,342.8757,126.501,337.1545,131.824,349.874" style="stroke:#9D0012;stroke-width:1.5399999999999998;"/><text fill="#000000" font-family="sans-serif" font-size="18.2" font-weight="bold" lengthAdjust="spacing" textLength="7.0827" x="123.4036" y="334.9484">*</text></g><!--link AddressBook to Student--><g id="link_AddressBook_Student"><path codeLine="43" d="M141.414,243.908 C137.018,261.59 133.42,288.778 145.6,308 C164.122,337.218 193.1402,350.2298 222.3162,357.9018 " fill="none" id="AddressBook-to-Student" style="stroke:#9D0012;stroke-width:1.5399999999999998;"/><polygon fill="#9D0012" points="230.44,360.038,219.6784,351.4178,223.6701,358.2578,216.8301,362.2496,230.44,360.038" style="stroke:#9D0012;stroke-width:1.5399999999999998;"/><text fill="#000000" font-family="sans-serif" font-size="18.2" font-weight="bold" lengthAdjust="spacing" textLength="7.0827" x="212.6139" y="353.08">*</text></g><!--link AddressBook to Submission--><g id="link_AddressBook_Submission"><path codeLine="44" d="M150.584,243.67 C155.456,262.794 166.166,292.684 187.6,308 C245.798,349.608 436.24,338.142 506.8,350 C515.312,351.428 516.0126,351.4896 524.7906,353.1976 " fill="none" id="AddressBook-to-Submission" style="stroke:#9D0012;stroke-width:1.5399999999999998;"/><polygon fill="#9D0012" points="533.036,354.802,521.7375,346.8985,526.1649,353.465,519.5984,357.8924,533.036,354.802" style="stroke:#9D0012;stroke-width:1.5399999999999998;"/><text fill="#000000" font-family="sans-serif" font-size="18.2" font-weight="bold" lengthAdjust="spacing" textLength="7.0827" x="514.9394" y="348.1039">*</text></g><!--link AddressBook to Attendance--><g id="link_AddressBook_Attendance"><path codeLine="45" d="M143.332,244.118 C140.728,262.5 140,290.71 155.4,308 C158.942,311.976 280.008,337.6216 357.96,353.8336 " fill="none" id="AddressBook-to-Attendance" style="stroke:#9D0012;stroke-width:1.5399999999999998;"/><polygon fill="#9D0012" points="366.184,355.544,354.9882,347.4957,359.3306,354.1187,352.7077,358.4611,366.184,355.544" style="stroke:#9D0012;stroke-width:1.5399999999999998;"/><text fill="#000000" font-family="sans-serif" font-size="18.2" font-weight="bold" lengthAdjust="spacing" textLength="7.0827" x="348.6309" y="349.1197">*</text></g><!--SRC=[ZLBHQi8m57tFLzprSM31rr4AwlQcLDIz3KRMtDRGc4YI8kBsxsjhsgQkujx2EISdvvwR9ovJKJ84Oyy2msDv4CGKN1wffWUWMglJRi_JGg8nC0sdj-H22QLXbRo-BJyNoJBPU89KK6FcD2rohKh9_ah9kY9fZh1I30LGSpsqQ1HjCBLKvWBZ-48MjHq4KSIbHPtHj48_v0OfIwGupnZJLSQvKaLGEutW3npU3UgrnimCxdVedTjDug3BxbH_NstO5PNLODf1lRK3TgLLcbD126cwWwsjLYCjNCYFGrf90pbiPYrAHcMAFhejlmxS6AvaZNc182oFuNSysX3nOxR2ws3N7OMQvtiRnYFzE870pETzzu7vf76Qn11C0_YVgd-hEzqEutKwz67g96kRvw3ly0KoBgfT6eXlr4xPzlzOs9NzMEkjozSELbHh1rd7MPVl3jb_W56-pq5-0G00]--></g></svg>
