<svg xmlns="http://www.w3.org/2000/svg" xmlns:xlink="http://www.w3.org/1999/xlink" contentStyleType="text/css" height="701.6px" preserveAspectRatio="none" style="width:397px;height:701px;background:#FFFFFF;" version="1.1" viewBox="0 0 397 701" width="397.6px" zoomAndPan="magnify"><defs/><g><!--cluster ModelPackage--><g id="cluster_ModelPackage"><rect fill="#FFFFFF" height="691.2" rx="2" ry="2" style="stroke:#181818;stroke-width:0.8000000000000002;" width="387.2" x="5.6" y="5.6"/><text fill="#000000" font-family="sans-serif" font-size="11.2" font-weight="bold" lengthAdjust="spacing" textLength="32.3531" x="183.0234" y="17.7055">Model</text></g><!--class ReadOnlyAddressBook--><g id="elem_ReadOnlyAddressBook"><rect codeLine="7" fill="#9D0012" height="35.5977" id="ReadOnlyAddressBook" rx="2" ry="2" style="stroke:#FFFFFF;stroke-width:0.8000000000000002;" width="129.5344" x="18.4" y="33.6"/><text fill="#FFFFFF" font-family="Arial" font-size="12" lengthAdjust="spacing" textLength="59.373" x="53.4807" y="48.8559">&#171;interface&#187;</text><text fill="#FFFFFF" font-family="Arial" font-size="12" lengthAdjust="spacing" textLength="124.7344" x="20.8" y="62.6547">ReadOnlyAddressBook</text></g><!--class ReadOnlyUserPrefs--><g id="elem_ReadOnlyUserPrefs"><rect codeLine="8" fill="#9D0012" height="35.5977" id="ReadOnlyUserPrefs" rx="2" ry="2" style="stroke:#FFFFFF;stroke-width:0.8000000000000002;" width="111.5051" x="268.4" y="33.6"/><text fill="#FFFFFF" font-family="Arial" font-size="12" lengthAdjust="spacing" textLength="59.373" x="294.466" y="48.8559">&#171;interface&#187;</text><text fill="#FFFFFF" font-family="Arial" font-size="12" lengthAdjust="spacing" textLength="106.7051" x="270.8" y="62.6547">ReadOnlyUserPrefs</text></g><!--class Model--><g id="elem_Model"><rect codeLine="9" fill="#9D0012" height="35.5977" id="Model" rx="2" ry="2" style="stroke:#FFFFFF;stroke-width:0.8000000000000002;" width="64.173" x="176" y="33.6"/><text fill="#FFFFFF" font-family="Arial" font-size="12" lengthAdjust="spacing" textLength="59.373" x="178.4" y="48.8559">&#171;interface&#187;</text><text fill="#FFFFFF" font-family="Arial" font-size="12" lengthAdjust="spacing" textLength="32.6836" x="191.7447" y="62.6547">Model</text></g><!--class AddressBook--><g id="elem_AddressBook"><rect codeLine="10" fill="#9D0012" height="21.7988" id="AddressBook" rx="2" ry="2" style="stroke:#FFFFFF;stroke-width:0.8000000000000002;" width="76.173" x="53.2" y="117.6"/><text fill="#FFFFFF" font-family="Arial" font-size="12" lengthAdjust="spacing" textLength="71.373" x="55.6" y="132.8559">AddressBook</text></g><!--class ModelManager--><g id="elem_ModelManager"><rect codeLine="11" fill="#9D0012" height="21.7988" id="ModelManager" rx="2" ry="2" style="stroke:#FFFFFF;stroke-width:0.8000000000000002;" width="84.8449" x="165.6" y="117.6"/><text fill="#FFFFFF" font-family="Arial" font-size="12" lengthAdjust="spacing" textLength="80.0449" x="168" y="132.8559">ModelManager</text></g><!--class UserPrefs--><g id="elem_UserPrefs"><rect codeLine="12" fill="#9D0012" height="21.7988" id="UserPrefs" rx="2" ry="2" style="stroke:#FFFFFF;stroke-width:0.8000000000000002;" width="58.1438" x="286.8" y="117.6"/><text fill="#FFFFFF" font-family="Arial" font-size="12" lengthAdjust="spacing" textLength="53.3438" x="289.2" y="132.8559">UserPrefs</text></g><!--class Tutorial--><g id="elem_Tutorial"><rect codeLine="24" fill="#9D0012" height="41.0777" id="Tutorial" rx="2" ry="2" style="stroke:#FFFFFF;stroke-width:0.8000000000000002;" width="73.0977" x="206.8" y="200"/><text fill="#FFFFFF" font-family="Arial" font-size="12" lengthAdjust="spacing" textLength="40.0137" x="223.342" y="215.2559">Tutorial</text><line style="stroke:#FFFFFF;stroke-width:0.8000000000000002;" x1="207.6" x2="279.0977" y1="221.7988" y2="221.7988"/><text fill="#FFFFFF" font-family="sans-serif" font-size="11.2" lengthAdjust="spacing" textLength="63.4977" x="211.6" y="235.5043">name: String</text></g><!--class Student--><g id="elem_Student"><rect codeLine="17" fill="#9D0012" height="92.5934" id="Student" rx="2" ry="2" style="stroke:#FFFFFF;stroke-width:0.8000000000000002;" width="91.1609" x="37.6" y="391.2"/><text fill="#FFFFFF" font-family="Arial" font-size="12" lengthAdjust="spacing" textLength="41.3672" x="62.4969" y="406.4559">Student</text><line style="stroke:#FFFFFF;stroke-width:0.8000000000000002;" x1="38.4" x2="127.9609" y1="412.9988" y2="412.9988"/><text fill="#FFFFFF" font-family="sans-serif" font-size="11.2" lengthAdjust="spacing" textLength="63.4977" x="42.4" y="426.7043">name: String</text><text fill="#FFFFFF" font-family="sans-serif" font-size="11.2" lengthAdjust="spacing" textLength="81.5609" x="42.4" y="439.5832">studentId: String</text><text fill="#FFFFFF" font-family="sans-serif" font-size="11.2" lengthAdjust="spacing" textLength="66.6258" x="42.4" y="452.4621">phone: String</text><text fill="#FFFFFF" font-family="sans-serif" font-size="11.2" lengthAdjust="spacing" textLength="62.2453" x="42.4" y="465.341">email: String</text><text fill="#FFFFFF" font-family="sans-serif" font-size="11.2" lengthAdjust="spacing" textLength="69.1141" x="42.4" y="478.2199">handle: String</text></g><!--class Assignment--><g id="elem_Assignment"><rect codeLine="28" fill="#9D0012" height="41.0777" id="Assignment" rx="2" ry="2" style="stroke:#FFFFFF;stroke-width:0.8000000000000002;" width="102.9844" x="188.4" y="417.2"/><text fill="#FFFFFF" font-family="Arial" font-size="12" lengthAdjust="spacing" textLength="62.6953" x="208.5445" y="432.4559">Assignment</text><line style="stroke:#FFFFFF;stroke-width:0.8000000000000002;" x1="189.2" x2="290.5844" y1="438.9988" y2="438.9988"/><text fill="#FFFFFF" font-family="sans-serif" font-size="11.2" lengthAdjust="spacing" textLength="93.3844" x="193.2" y="452.7043">dueDate: Datetime</text></g><!--class Attendance--><g id="elem_Attendance"><rect codeLine="32" fill="#9D0012" height="41.0777" id="Attendance" rx="2" ry="2" style="stroke:#FFFFFF;stroke-width:0.8000000000000002;" width="68.1156" x="110.8" y="301.6"/><text fill="#FFFFFF" font-family="Arial" font-size="12" lengthAdjust="spacing" textLength="60.7148" x="114.5004" y="316.8559">Attendance</text><line style="stroke:#FFFFFF;stroke-width:0.8000000000000002;" x1="111.6" x2="178.1156" y1="323.3988" y2="323.3988"/><text fill="#FFFFFF" font-family="sans-serif" font-size="11.2" lengthAdjust="spacing" textLength="58.5156" x="115.6" y="337.1043">weekNo: int</text></g><!--class Submission--><g id="elem_Submission"><rect codeLine="36" fill="#9D0012" height="21.7988" id="Submission" rx="2" ry="2" style="stroke:#FFFFFF;stroke-width:0.8000000000000002;" width="66.8273" x="246.4" y="532.8"/><text fill="#FFFFFF" font-family="Arial" font-size="12" lengthAdjust="spacing" textLength="62.0273" x="248.8" y="548.0559">Submission</text></g><!--class State--><g id="elem_State"><rect codeLine="38" fill="#9D0012" height="80.6344" id="State" rx="2" ry="2" style="stroke:#FFFFFF;stroke-width:0.8000000000000002;" width="104.182" x="228" y="603.2"/><text fill="#FFFFFF" font-family="Arial" font-size="12" lengthAdjust="spacing" textLength="80.0566" x="240.0627" y="618.4559">&#171;enumeration&#187;</text><text fill="#FFFFFF" font-family="Arial" font-size="12" lengthAdjust="spacing" textLength="96.0469" x="232.0676" y="632.2547">SubmissionStatus</text><line style="stroke:#FFFFFF;stroke-width:0.8000000000000002;" x1="228.8" x2="331.382" y1="638.7977" y2="638.7977"/><text fill="#FFFFFF" font-family="sans-serif" font-size="11.2" lengthAdjust="spacing" textLength="64.7117" x="232.8" y="652.5031">SUBMITTED</text><text fill="#FFFFFF" font-family="sans-serif" font-size="11.2" lengthAdjust="spacing" textLength="94.582" x="232.8" y="665.382">NOT_SUBMITTED</text><text fill="#FFFFFF" font-family="sans-serif" font-size="11.2" lengthAdjust="spacing" textLength="47.9172" x="232.8" y="678.2609">GRADED</text></g><ellipse cx="208.8" cy="322" fill="#9D0012" rx="1.6" ry="1.6" style="stroke:#9D0012;stroke-width:0.8000000000000002;"/><ellipse cx="158.4" cy="437.6" fill="#9D0012" rx="1.6" ry="1.6" style="stroke:#9D0012;stroke-width:0.8000000000000002;"/><!--reverse link ReadOnlyAddressBook to AddressBook--><g id="link_ReadOnlyAddressBook_AddressBook"><path codeLine="45" d="M86.5303,83.4722 C88.1063,98.3762 88.824,105.128 90.128,117.48 " fill="none" id="ReadOnlyAddressBook-backto-AddressBook" style="stroke:#9D0012;stroke-width:0.8800000000000002;stroke-dasharray:7.0,7.0;"/><polygon fill="none" points="85.016,69.152,81.7569,83.9769,91.3036,82.9674,85.016,69.152" style="stroke:#9D0012;stroke-width:0.8800000000000002;"/></g><!--reverse link Model to ModelManager--><g id="link_Model_ModelManager"><path codeLine="47" d="M208,83.552 C208,98.456 208,105.128 208,117.48 " fill="none" id="Model-backto-ModelManager" style="stroke:#9D0012;stroke-width:0.8800000000000002;stroke-dasharray:7.0,7.0;"/><polygon fill="none" points="208,69.152,203.2,83.552,212.8,83.552,208,69.152" style="stroke:#9D0012;stroke-width:0.8800000000000002;"/></g><!--link Model to ReadOnlyUserPrefs--><g id="link_Model_ReadOnlyUserPrefs"><path codeLine="48" d="M240.168,51.2 C249.56,51.2 254.144,51.2 263.536,51.2 " fill="none" id="Model-to-ReadOnlyUserPrefs" style="stroke:#9D0012;stroke-width:0.8800000000000002;stroke-dasharray:7.0,7.0;"/><polygon fill="#9D0012" points="268.336,51.2,261.136,48,264.336,51.2,261.136,54.4,268.336,51.2" style="stroke:#9D0012;stroke-width:0.8800000000000002;"/></g><!--reverse link ReadOnlyAddressBook to Model--><g id="link_ReadOnlyAddressBook_Model"><path codeLine="49" d="M152.84,51.2 C162.128,51.2 166.616,51.2 175.912,51.2 " fill="none" id="ReadOnlyAddressBook-backto-Model" style="stroke:#9D0012;stroke-width:0.8800000000000002;stroke-dasharray:7.0,7.0;"/><polygon fill="#9D0012" points="148.04,51.2,155.24,54.4,152.04,51.2,155.24,48,148.04,51.2" style="stroke:#9D0012;stroke-width:0.8800000000000002;"/></g><!--reverse link AddressBook to ModelManager--><g id="link_AddressBook_ModelManager"><path codeLine="50" d="M134.096,128.4 C146.192,128.4 153.48,128.4 165.576,128.4 " fill="none" id="AddressBook-backto-ModelManager" style="stroke:#9D0012;stroke-width:0.8800000000000002;"/><polygon fill="#9D0012" points="129.296,128.4,136.496,131.6,133.296,128.4,136.496,125.2,129.296,128.4" style="stroke:#9D0012;stroke-width:0.8800000000000002;"/><text fill="#000000" font-family="sans-serif" font-size="10.4" font-weight="bold" lengthAdjust="spacing" textLength="5.784" x="135.8147" y="126.1072">1</text></g><!--link ModelManager to UserPrefs--><g id="link_ModelManager_UserPrefs"><path codeLine="51" d="M250.608,128.4 C262.616,128.4 269.816,128.4 281.824,128.4 " fill="none" id="ModelManager-to-UserPrefs" style="stroke:#9D0012;stroke-width:0.8800000000000002;"/><polygon fill="#9D0012" points="286.624,128.4,279.424,125.2,282.624,128.4,279.424,131.6,286.624,128.4" style="stroke:#9D0012;stroke-width:0.8800000000000002;"/><text fill="#000000" font-family="sans-serif" font-size="10.4" font-weight="bold" lengthAdjust="spacing" textLength="5.784" x="274.4331" y="125.8578">1</text></g><!--reverse link ReadOnlyUserPrefs to UserPrefs--><g id="link_ReadOnlyUserPrefs_UserPrefs"><path codeLine="52" d="M320.6697,83.4722 C319.0937,98.3762 318.376,105.128 317.072,117.48 " fill="none" id="ReadOnlyUserPrefs-backto-UserPrefs" style="stroke:#9D0012;stroke-width:0.8800000000000002;stroke-dasharray:7.0,7.0;"/><polygon fill="none" points="322.184,69.152,315.8964,82.9674,325.4431,83.9769,322.184,69.152" style="stroke:#9D0012;stroke-width:0.8800000000000002;"/></g><!--link ModelManager to Tutorial--><g id="link_ModelManager_Tutorial"><path codeLine="54" d="M211.904,139.216 C217.56,153.744 226.4093,176.4875 233.6973,195.1915 " fill="none" id="ModelManager-to-Tutorial" style="stroke:#9D0012;stroke-width:0.8800000000000002;"/><polygon fill="#9D0012" points="235.44,199.664,235.8076,191.7935,233.9878,195.9369,229.8443,194.1171,235.44,199.664" style="stroke:#9D0012;stroke-width:0.8800000000000002;"/><polygon fill="#000000" points="231.0512,173.7069,230.6169,166.1109,226.235,167.8169,231.0512,173.7069" style="stroke:#000000;stroke-width:0.8000000000000002;"/><text fill="#000000" font-family="sans-serif" font-size="10.4" font-weight="bold" lengthAdjust="spacing" textLength="28.3207" x="236.8" y="173.7551">filters</text><text fill="#000000" font-family="sans-serif" font-size="10.4" font-weight="bold" lengthAdjust="spacing" textLength="4.0473" x="228.9069" y="191.5321">*</text></g><!--link ModelManager to Student--><g id="link_ModelManager_Student"><path codeLine="55" d="M190,139.336 C180.176,145.432 168.208,153.816 159.2,163.2 C122.112,201.832 111.064,213.904 94.4,264.8 C80.896,306.04 78.9624,350.9459 79.9464,386.2899 " fill="none" id="ModelManager-to-Student" style="stroke:#9D0012;stroke-width:0.8800000000000002;"/><polygon fill="#9D0012" points="80.08,391.088,83.0784,383.8017,79.9687,387.0895,76.6809,383.9798,80.08,391.088" style="stroke:#9D0012;stroke-width:0.8800000000000002;"/><polygon fill="#000000" points="96.7718,275.2331,101.8648,269.5807,97.5697,267.6666,96.7718,275.2331" style="stroke:#000000;stroke-width:0.8000000000000002;"/><text fill="#000000" font-family="sans-serif" font-size="10.4" font-weight="bold" lengthAdjust="spacing" textLength="28.3207" x="105.6" y="275.3551">filters</text><text fill="#000000" font-family="sans-serif" font-size="10.4" font-weight="bold" lengthAdjust="spacing" textLength="4.0473" x="75.3978" y="382.7054">*</text></g><!--link ModelManager to Submission--><g id="link_ModelManager_Submission"><path codeLine="56" d="M239.72,139.304 C273.088,152.144 320.8,177.816 320.8,219.6 C320.8,219.6 320.8,219.6 320.8,438.4 C320.8,475.176 301.1567,510.515 289.5167,528.611 " fill="none" id="ModelManager-to-Submission" style="stroke:#9D0012;stroke-width:0.8800000000000002;"/><polygon fill="#9D0012" points="286.92,532.648,293.5064,528.3237,289.0839,529.2839,288.1238,524.8614,286.92,532.648" style="stroke:#9D0012;stroke-width:0.8800000000000002;"/><polygon fill="#000000" points="325.3075,326.3472,326.7216,318.8713,322.0573,319.4679,325.3075,326.3472" style="stroke:#000000;stroke-width:0.8000000000000002;"/><text fill="#000000" font-family="sans-serif" font-size="10.4" font-weight="bold" lengthAdjust="spacing" textLength="28.3207" x="332" y="326.1551">filters</text><text fill="#000000" font-family="sans-serif" font-size="10.4" font-weight="bold" lengthAdjust="spacing" textLength="4.0473" x="285.1644" y="524.0841">*</text></g><!--link ModelManager to Attendance--><g id="link_ModelManager_Attendance"><path codeLine="57" d="M196.688,139.416 C183.48,152.144 162.232,175.24 152.8,200 C139.888,233.896 140.3355,272.1668 142.2715,296.7748 " fill="none" id="ModelManager-to-Attendance" style="stroke:#9D0012;stroke-width:0.8800000000000002;"/><polygon fill="#9D0012" points="142.648,301.56,145.2734,294.1312,142.3343,297.5723,138.8932,294.6332,142.648,301.56" style="stroke:#9D0012;stroke-width:0.8800000000000002;"/><polygon fill="#000000" points="155.4927,224.5598,160.0796,218.4895,155.6356,216.9527,155.4927,224.5598" style="stroke:#000000;stroke-width:0.8000000000000002;"/><text fill="#000000" font-family="sans-serif" font-size="10.4" font-weight="bold" lengthAdjust="spacing" textLength="28.3207" x="164" y="224.5551">filters</text><text fill="#000000" font-family="sans-serif" font-size="10.4" font-weight="bold" lengthAdjust="spacing" textLength="4.0473" x="137.4706" y="292.859">*</text></g><!--link Tutorial to Assignment--><g id="link_Tutorial_Assignment"><path codeLine="59" d="M242.7619,250.6949 C242.1539,291.7669 240.9751,371.1205 240.3671,412.1525 " fill="none" id="Tutorial-Assignment" style="stroke:#9D0012;stroke-width:0.8800000000000002;"/><polygon fill="#9D0012" points="242.904,241.096,239.6333,245.8481,242.7619,250.6949,246.0326,245.9428,242.904,241.096" style="stroke:#9D0012;stroke-width:0.8800000000000002;"/><polygon fill="#9D0012" points="240.296,416.952,243.6023,409.8002,240.3553,412.9524,237.203,409.7054,240.296,416.952" style="stroke:#9D0012;stroke-width:0.8800000000000002;"/><text fill="#000000" font-family="sans-serif" font-size="10.4" font-weight="bold" lengthAdjust="spacing" textLength="5.784" x="236.5355" y="257.3194">1</text><text fill="#000000" font-family="sans-serif" font-size="10.4" font-weight="bold" lengthAdjust="spacing" textLength="4.0473" x="235.8734" y="408.5176">*</text></g><!--link Tutorial to apoint33--><g id="link_Tutorial_apoint33"><path d="M236.4,240.96 C227.16,267.824 211.504,313.352 209.112,320.296 " fill="none" id="Tutorial-apoint33" style="stroke:#9D0012;stroke-width:0.8800000000000002;"/><text fill="#000000" font-family="sans-serif" font-size="10.4" font-weight="bold" lengthAdjust="spacing" textLength="4.0473" x="230.2245" y="257.1502">*</text></g><!--link apoint33 to Student--><g id="link_apoint33_Student"><path d="M208.232,323.592 C206.256,326.32 199.416,335.6 192.8,342.4 C173,362.728 149.328,383.504 129.056,400.368 " fill="none" id="apoint33-Student" style="stroke:#9D0012;stroke-width:0.8800000000000002;"/><text fill="#000000" font-family="sans-serif" font-size="10.4" font-weight="bold" lengthAdjust="spacing" textLength="4.0473" x="135.1931" y="393.4971">*</text></g><!--link apoint33 to Attendance--><g id="link_apoint33_Attendance"><path d="M207.176,322 C197.8,322 188.424,322 179.048,322 " fill="none" id="apoint33-Attendance" style="stroke:#9D0012;stroke-width:0.8800000000000002;stroke-dasharray:7.0,7.0;"/></g><!--link Student to apoint39--><g id="link_Student_apoint39"><path d="M129.024,437.6 C138.28,437.6 147.536,437.6 156.792,437.6 " fill="none" id="Student-apoint39" style="stroke:#9D0012;stroke-width:0.8800000000000002;"/><text fill="#000000" font-family="sans-serif" font-size="10.4" font-weight="bold" lengthAdjust="spacing" textLength="4.0473" x="135.157" y="435.4994">*</text></g><!--link apoint39 to Assignment--><g id="link_apoint39_Assignment"><path d="M160.312,437.6 C169.648,437.6 178.992,437.6 188.328,437.6 " fill="none" id="apoint39-Assignment" style="stroke:#9D0012;stroke-width:0.8800000000000002;"/><text fill="#000000" font-family="sans-serif" font-size="10.4" font-weight="bold" lengthAdjust="spacing" textLength="4.0473" x="177.8027" y="435.5019">*</text></g><!--link apoint39 to Submission--><g id="link_apoint39_Submission"><path d="M158.488,439.392 C159.016,444.632 162.072,469.368 174.4,484 C194.272,507.592 226.144,523.48 249.68,532.728 " fill="none" id="apoint39-Submission" style="stroke:#9D0012;stroke-width:0.8800000000000002;stroke-dasharray:7.0,7.0;"/></g><!--link Submission to State--><g id="link_Submission_State"><path codeLine="67" d="M280,554.56 C280,566.048 280,580.672 280,598.368 " fill="none" id="Submission-to-State" style="stroke:#9D0012;stroke-width:0.8800000000000002;"/><polygon fill="#9D0012" points="280,603.168,283.2,595.968,280,599.168,276.8,595.968,280,603.168" style="stroke:#9D0012;stroke-width:0.8800000000000002;"/></g><!--SRC=[XP9TIyCm58RlyojYhrHSORTZ5FOX8ZWhMxqJ93PdNMYQZ2H5HFVVJVgPpifsiMNlUVAUStBE5HCfBobWRRuuXCUou4ZdJ1o98WKcIidFvC3IN83MU1fEpuChoQN2ctXz__I-Yf_YhGUad6Yz96cUALaA-XT5BpP8Ci0RIO5Zekj3gyxdMqWD4Hc7AFf6AsU7W_cS2GDgJrAhleaj41eB_hMWLDaQbrBcWNCQqIyul6fGBmhsUd2_K_-vNLKSTBKtrD-iLNH3X6rCDL9ltGX9QQHYX2E4ghV3EsD78mp-HjX-12bWPZN5H5O9kWu_qe5wF4WnvA0WZ0-K0n6Kzz2foTSMC9Rmr1Qrq9fbekZheYMiYR6a-pQi08yr1WGb8eM6_GJ8d-KCspVigLtvKJ3hAWL28Ch2FRBx1KMC5TqpzyZE45FMCtB7rdZtkjmy9idzklht72VlG-LXkrZRuybbzQQ3m_8O_aIZwuBycRLWFULwOKF5ieC9ev5bQG0EUp_kkm_C9mwSH3YO1lX_g4hNK7sgxdJUYxTVGnzdSHlqqvxXFUDsfpMEnibs3o-3tPWkizvk-2pgod9jtdPqjtK-OGEJYLyYkcw3TwrqWyFGIuPGsqrrktxJynJN3NFdYPMFlwfUiwxAQXj_0G00]--></g></svg>

